%TF.GenerationSoftware,KiCad,Pcbnew,(6.0.9-0)*%
%TF.CreationDate,2023-01-05T16:32:08-08:00*%
%TF.ProjectId,mini-extender-m2,6d696e69-2d65-4787-9465-6e6465722d6d,rev?*%
%TF.SameCoordinates,Original*%
%TF.FileFunction,Legend,Bot*%
%TF.FilePolarity,Positive*%
%FSLAX46Y46*%
G04 Gerber Fmt 4.6, Leading zero omitted, Abs format (unit mm)*
G04 Created by KiCad (PCBNEW (6.0.9-0)) date 2023-01-05 16:32:08*
%MOMM*%
%LPD*%
G01*
G04 APERTURE LIST*
%ADD10C,0.200000*%
%ADD11C,0.150000*%
%ADD12C,0.250000*%
%ADD13C,0.010000*%
G04 APERTURE END LIST*
D10*
X168130047Y-88947761D02*
X166987190Y-88947761D01*
X167558619Y-90947761D02*
X167558619Y-88947761D01*
X166320523Y-90947761D02*
X166320523Y-88947761D01*
X165463380Y-90947761D02*
X165463380Y-89900142D01*
X165558619Y-89709666D01*
X165749095Y-89614428D01*
X166034809Y-89614428D01*
X166225285Y-89709666D01*
X166320523Y-89804904D01*
X164511000Y-90947761D02*
X164511000Y-89614428D01*
X164511000Y-88947761D02*
X164606238Y-89043000D01*
X164511000Y-89138238D01*
X164415761Y-89043000D01*
X164511000Y-88947761D01*
X164511000Y-89138238D01*
X163653857Y-90852523D02*
X163463380Y-90947761D01*
X163082428Y-90947761D01*
X162891952Y-90852523D01*
X162796714Y-90662047D01*
X162796714Y-90566809D01*
X162891952Y-90376333D01*
X163082428Y-90281095D01*
X163368142Y-90281095D01*
X163558619Y-90185857D01*
X163653857Y-89995380D01*
X163653857Y-89900142D01*
X163558619Y-89709666D01*
X163368142Y-89614428D01*
X163082428Y-89614428D01*
X162891952Y-89709666D01*
X160415761Y-90947761D02*
X160415761Y-89614428D01*
X160415761Y-88947761D02*
X160511000Y-89043000D01*
X160415761Y-89138238D01*
X160320523Y-89043000D01*
X160415761Y-88947761D01*
X160415761Y-89138238D01*
X159558619Y-90852523D02*
X159368142Y-90947761D01*
X158987190Y-90947761D01*
X158796714Y-90852523D01*
X158701476Y-90662047D01*
X158701476Y-90566809D01*
X158796714Y-90376333D01*
X158987190Y-90281095D01*
X159272904Y-90281095D01*
X159463380Y-90185857D01*
X159558619Y-89995380D01*
X159558619Y-89900142D01*
X159463380Y-89709666D01*
X159272904Y-89614428D01*
X158987190Y-89614428D01*
X158796714Y-89709666D01*
X156606238Y-89614428D02*
X155844333Y-89614428D01*
X156320523Y-88947761D02*
X156320523Y-90662047D01*
X156225285Y-90852523D01*
X156034809Y-90947761D01*
X155844333Y-90947761D01*
X155177666Y-90947761D02*
X155177666Y-88947761D01*
X154320523Y-90947761D02*
X154320523Y-89900142D01*
X154415761Y-89709666D01*
X154606238Y-89614428D01*
X154891952Y-89614428D01*
X155082428Y-89709666D01*
X155177666Y-89804904D01*
X152606238Y-90852523D02*
X152796714Y-90947761D01*
X153177666Y-90947761D01*
X153368142Y-90852523D01*
X153463380Y-90662047D01*
X153463380Y-89900142D01*
X153368142Y-89709666D01*
X153177666Y-89614428D01*
X152796714Y-89614428D01*
X152606238Y-89709666D01*
X152511000Y-89900142D01*
X152511000Y-90090619D01*
X153463380Y-90281095D01*
X149463380Y-89900142D02*
X149177666Y-89995380D01*
X149082428Y-90090619D01*
X148987190Y-90281095D01*
X148987190Y-90566809D01*
X149082428Y-90757285D01*
X149177666Y-90852523D01*
X149368142Y-90947761D01*
X150130047Y-90947761D01*
X150130047Y-88947761D01*
X149463380Y-88947761D01*
X149272904Y-89043000D01*
X149177666Y-89138238D01*
X149082428Y-89328714D01*
X149082428Y-89519190D01*
X149177666Y-89709666D01*
X149272904Y-89804904D01*
X149463380Y-89900142D01*
X150130047Y-89900142D01*
X148225285Y-90376333D02*
X147272904Y-90376333D01*
X148415761Y-90947761D02*
X147749095Y-88947761D01*
X147082428Y-90947761D01*
X145272904Y-90757285D02*
X145368142Y-90852523D01*
X145653857Y-90947761D01*
X145844333Y-90947761D01*
X146130047Y-90852523D01*
X146320523Y-90662047D01*
X146415761Y-90471571D01*
X146511000Y-90090619D01*
X146511000Y-89804904D01*
X146415761Y-89423952D01*
X146320523Y-89233476D01*
X146130047Y-89043000D01*
X145844333Y-88947761D01*
X145653857Y-88947761D01*
X145368142Y-89043000D01*
X145272904Y-89138238D01*
X144415761Y-90947761D02*
X144415761Y-88947761D01*
X143272904Y-90947761D02*
X144130047Y-89804904D01*
X143272904Y-88947761D02*
X144415761Y-90090619D01*
X140987190Y-90852523D02*
X140701476Y-90947761D01*
X140225285Y-90947761D01*
X140034809Y-90852523D01*
X139939571Y-90757285D01*
X139844333Y-90566809D01*
X139844333Y-90376333D01*
X139939571Y-90185857D01*
X140034809Y-90090619D01*
X140225285Y-89995380D01*
X140606238Y-89900142D01*
X140796714Y-89804904D01*
X140891952Y-89709666D01*
X140987190Y-89519190D01*
X140987190Y-89328714D01*
X140891952Y-89138238D01*
X140796714Y-89043000D01*
X140606238Y-88947761D01*
X140130047Y-88947761D01*
X139844333Y-89043000D01*
X138987190Y-90947761D02*
X138987190Y-88947761D01*
X138034809Y-90947761D02*
X138034809Y-88947761D01*
X137558619Y-88947761D01*
X137272904Y-89043000D01*
X137082428Y-89233476D01*
X136987190Y-89423952D01*
X136891952Y-89804904D01*
X136891952Y-90090619D01*
X136987190Y-90471571D01*
X137082428Y-90662047D01*
X137272904Y-90852523D01*
X137558619Y-90947761D01*
X138034809Y-90947761D01*
X136034809Y-89900142D02*
X135368142Y-89900142D01*
X135082428Y-90947761D02*
X136034809Y-90947761D01*
X136034809Y-88947761D01*
X135082428Y-88947761D01*
D11*
X213820428Y-92753571D02*
X214677571Y-92753571D01*
X214249000Y-92753571D02*
X214249000Y-91253571D01*
X214391857Y-91467857D01*
X214534714Y-91610714D01*
X214677571Y-91682142D01*
X91638285Y-91380571D02*
X90638285Y-91380571D01*
X91281142Y-92880571D01*
X89995428Y-92880571D02*
X89709714Y-92880571D01*
X89566857Y-92809142D01*
X89495428Y-92737714D01*
X89352571Y-92523428D01*
X89281142Y-92237714D01*
X89281142Y-91666285D01*
X89352571Y-91523428D01*
X89424000Y-91452000D01*
X89566857Y-91380571D01*
X89852571Y-91380571D01*
X89995428Y-91452000D01*
X90066857Y-91523428D01*
X90138285Y-91666285D01*
X90138285Y-92023428D01*
X90066857Y-92166285D01*
X89995428Y-92237714D01*
X89852571Y-92309142D01*
X89566857Y-92309142D01*
X89424000Y-92237714D01*
X89352571Y-92166285D01*
X89281142Y-92023428D01*
D12*
X212325761Y-78063380D02*
X211754333Y-78063380D01*
X212040047Y-79063380D02*
X212040047Y-78063380D01*
X211278142Y-79063380D02*
X211373380Y-79015761D01*
X211421000Y-78968142D01*
X211468619Y-78872904D01*
X211468619Y-78587190D01*
X211421000Y-78491952D01*
X211373380Y-78444333D01*
X211278142Y-78396714D01*
X211135285Y-78396714D01*
X211040047Y-78444333D01*
X210992428Y-78491952D01*
X210944809Y-78587190D01*
X210944809Y-78872904D01*
X210992428Y-78968142D01*
X211040047Y-79015761D01*
X211135285Y-79063380D01*
X211278142Y-79063380D01*
X209325761Y-79015761D02*
X209421000Y-79063380D01*
X209611476Y-79063380D01*
X209706714Y-79015761D01*
X209754333Y-78968142D01*
X209801952Y-78872904D01*
X209801952Y-78587190D01*
X209754333Y-78491952D01*
X209706714Y-78444333D01*
X209611476Y-78396714D01*
X209421000Y-78396714D01*
X209325761Y-78444333D01*
X208754333Y-79063380D02*
X208849571Y-79015761D01*
X208897190Y-78968142D01*
X208944809Y-78872904D01*
X208944809Y-78587190D01*
X208897190Y-78491952D01*
X208849571Y-78444333D01*
X208754333Y-78396714D01*
X208611476Y-78396714D01*
X208516238Y-78444333D01*
X208468619Y-78491952D01*
X208421000Y-78587190D01*
X208421000Y-78872904D01*
X208468619Y-78968142D01*
X208516238Y-79015761D01*
X208611476Y-79063380D01*
X208754333Y-79063380D01*
X207992428Y-78396714D02*
X207992428Y-79063380D01*
X207992428Y-78491952D02*
X207944809Y-78444333D01*
X207849571Y-78396714D01*
X207706714Y-78396714D01*
X207611476Y-78444333D01*
X207563857Y-78539571D01*
X207563857Y-79063380D01*
X207230523Y-78396714D02*
X206849571Y-78396714D01*
X207087666Y-78063380D02*
X207087666Y-78920523D01*
X207040047Y-79015761D01*
X206944809Y-79063380D01*
X206849571Y-79063380D01*
X206516238Y-79063380D02*
X206516238Y-78396714D01*
X206516238Y-78063380D02*
X206563857Y-78111000D01*
X206516238Y-78158619D01*
X206468619Y-78111000D01*
X206516238Y-78063380D01*
X206516238Y-78158619D01*
X206040047Y-78396714D02*
X206040047Y-79063380D01*
X206040047Y-78491952D02*
X205992428Y-78444333D01*
X205897190Y-78396714D01*
X205754333Y-78396714D01*
X205659095Y-78444333D01*
X205611476Y-78539571D01*
X205611476Y-79063380D01*
X204706714Y-78396714D02*
X204706714Y-79063380D01*
X205135285Y-78396714D02*
X205135285Y-78920523D01*
X205087666Y-79015761D01*
X204992428Y-79063380D01*
X204849571Y-79063380D01*
X204754333Y-79015761D01*
X204706714Y-78968142D01*
X203849571Y-79015761D02*
X203944809Y-79063380D01*
X204135285Y-79063380D01*
X204230523Y-79015761D01*
X204278142Y-78920523D01*
X204278142Y-78539571D01*
X204230523Y-78444333D01*
X204135285Y-78396714D01*
X203944809Y-78396714D01*
X203849571Y-78444333D01*
X203801952Y-78539571D01*
X203801952Y-78634809D01*
X204278142Y-78730047D01*
X202182904Y-79015761D02*
X202278142Y-79063380D01*
X202468619Y-79063380D01*
X202563857Y-79015761D01*
X202611476Y-78968142D01*
X202659095Y-78872904D01*
X202659095Y-78587190D01*
X202611476Y-78491952D01*
X202563857Y-78444333D01*
X202468619Y-78396714D01*
X202278142Y-78396714D01*
X202182904Y-78444333D01*
X201611476Y-79063380D02*
X201706714Y-79015761D01*
X201754333Y-78968142D01*
X201801952Y-78872904D01*
X201801952Y-78587190D01*
X201754333Y-78491952D01*
X201706714Y-78444333D01*
X201611476Y-78396714D01*
X201468619Y-78396714D01*
X201373380Y-78444333D01*
X201325761Y-78491952D01*
X201278142Y-78587190D01*
X201278142Y-78872904D01*
X201325761Y-78968142D01*
X201373380Y-79015761D01*
X201468619Y-79063380D01*
X201611476Y-79063380D01*
X200849571Y-78396714D02*
X200849571Y-79063380D01*
X200849571Y-78491952D02*
X200801952Y-78444333D01*
X200706714Y-78396714D01*
X200563857Y-78396714D01*
X200468619Y-78444333D01*
X200421000Y-78539571D01*
X200421000Y-79063380D01*
X200087666Y-78396714D02*
X199706714Y-78396714D01*
X199944809Y-78063380D02*
X199944809Y-78920523D01*
X199897190Y-79015761D01*
X199801952Y-79063380D01*
X199706714Y-79063380D01*
X199373380Y-79063380D02*
X199373380Y-78396714D01*
X199373380Y-78063380D02*
X199421000Y-78111000D01*
X199373380Y-78158619D01*
X199325761Y-78111000D01*
X199373380Y-78063380D01*
X199373380Y-78158619D01*
X198897190Y-78396714D02*
X198897190Y-79063380D01*
X198897190Y-78491952D02*
X198849571Y-78444333D01*
X198754333Y-78396714D01*
X198611476Y-78396714D01*
X198516238Y-78444333D01*
X198468619Y-78539571D01*
X198468619Y-79063380D01*
X197563857Y-78396714D02*
X197563857Y-79063380D01*
X197992428Y-78396714D02*
X197992428Y-78920523D01*
X197944809Y-79015761D01*
X197849571Y-79063380D01*
X197706714Y-79063380D01*
X197611476Y-79015761D01*
X197563857Y-78968142D01*
X197087666Y-79063380D02*
X197087666Y-78396714D01*
X197087666Y-78063380D02*
X197135285Y-78111000D01*
X197087666Y-78158619D01*
X197040047Y-78111000D01*
X197087666Y-78063380D01*
X197087666Y-78158619D01*
X196754333Y-78396714D02*
X196373380Y-78396714D01*
X196611476Y-78063380D02*
X196611476Y-78920523D01*
X196563857Y-79015761D01*
X196468619Y-79063380D01*
X196373380Y-79063380D01*
X196135285Y-78396714D02*
X195897190Y-79063380D01*
X195659095Y-78396714D02*
X195897190Y-79063380D01*
X195992428Y-79301476D01*
X196040047Y-79349095D01*
X196135285Y-79396714D01*
X194373380Y-79063380D02*
X194468619Y-79015761D01*
X194516238Y-78968142D01*
X194563857Y-78872904D01*
X194563857Y-78587190D01*
X194516238Y-78491952D01*
X194468619Y-78444333D01*
X194373380Y-78396714D01*
X194230523Y-78396714D01*
X194135285Y-78444333D01*
X194087666Y-78491952D01*
X194040047Y-78587190D01*
X194040047Y-78872904D01*
X194087666Y-78968142D01*
X194135285Y-79015761D01*
X194230523Y-79063380D01*
X194373380Y-79063380D01*
X193754333Y-78396714D02*
X193373380Y-78396714D01*
X193611476Y-79063380D02*
X193611476Y-78206238D01*
X193563857Y-78111000D01*
X193468619Y-78063380D01*
X193373380Y-78063380D01*
X192421000Y-78396714D02*
X192040047Y-78396714D01*
X192278142Y-78063380D02*
X192278142Y-78920523D01*
X192230523Y-79015761D01*
X192135285Y-79063380D01*
X192040047Y-79063380D01*
X191706714Y-79063380D02*
X191706714Y-78063380D01*
X191278142Y-79063380D02*
X191278142Y-78539571D01*
X191325761Y-78444333D01*
X191421000Y-78396714D01*
X191563857Y-78396714D01*
X191659095Y-78444333D01*
X191706714Y-78491952D01*
X190421000Y-79015761D02*
X190516238Y-79063380D01*
X190706714Y-79063380D01*
X190801952Y-79015761D01*
X190849571Y-78920523D01*
X190849571Y-78539571D01*
X190801952Y-78444333D01*
X190706714Y-78396714D01*
X190516238Y-78396714D01*
X190421000Y-78444333D01*
X190373380Y-78539571D01*
X190373380Y-78634809D01*
X190849571Y-78730047D01*
X189278142Y-78063380D02*
X188611476Y-78063380D01*
X189278142Y-79063380D01*
X188611476Y-79063380D01*
X188087666Y-78491952D02*
X188182904Y-78444333D01*
X188230523Y-78396714D01*
X188278142Y-78301476D01*
X188278142Y-78253857D01*
X188230523Y-78158619D01*
X188182904Y-78111000D01*
X188087666Y-78063380D01*
X187897190Y-78063380D01*
X187801952Y-78111000D01*
X187754333Y-78158619D01*
X187706714Y-78253857D01*
X187706714Y-78301476D01*
X187754333Y-78396714D01*
X187801952Y-78444333D01*
X187897190Y-78491952D01*
X188087666Y-78491952D01*
X188182904Y-78539571D01*
X188230523Y-78587190D01*
X188278142Y-78682428D01*
X188278142Y-78872904D01*
X188230523Y-78968142D01*
X188182904Y-79015761D01*
X188087666Y-79063380D01*
X187897190Y-79063380D01*
X187801952Y-79015761D01*
X187754333Y-78968142D01*
X187706714Y-78872904D01*
X187706714Y-78682428D01*
X187754333Y-78587190D01*
X187801952Y-78539571D01*
X187897190Y-78491952D01*
X187087666Y-78063380D02*
X186992428Y-78063380D01*
X186897190Y-78111000D01*
X186849571Y-78158619D01*
X186801952Y-78253857D01*
X186754333Y-78444333D01*
X186754333Y-78682428D01*
X186801952Y-78872904D01*
X186849571Y-78968142D01*
X186897190Y-79015761D01*
X186992428Y-79063380D01*
X187087666Y-79063380D01*
X187182904Y-79015761D01*
X187230523Y-78968142D01*
X187278142Y-78872904D01*
X187325761Y-78682428D01*
X187325761Y-78444333D01*
X187278142Y-78253857D01*
X187230523Y-78158619D01*
X187182904Y-78111000D01*
X187087666Y-78063380D01*
X185563857Y-79063380D02*
X185563857Y-78063380D01*
X185087666Y-78396714D02*
X185087666Y-79063380D01*
X185087666Y-78491952D02*
X185040047Y-78444333D01*
X184944809Y-78396714D01*
X184801952Y-78396714D01*
X184706714Y-78444333D01*
X184659095Y-78539571D01*
X184659095Y-79063380D01*
X184325761Y-78396714D02*
X183944809Y-78396714D01*
X184182904Y-78063380D02*
X184182904Y-78920523D01*
X184135285Y-79015761D01*
X184040047Y-79063380D01*
X183944809Y-79063380D01*
X183230523Y-79015761D02*
X183325761Y-79063380D01*
X183516238Y-79063380D01*
X183611476Y-79015761D01*
X183659095Y-78920523D01*
X183659095Y-78539571D01*
X183611476Y-78444333D01*
X183516238Y-78396714D01*
X183325761Y-78396714D01*
X183230523Y-78444333D01*
X183182904Y-78539571D01*
X183182904Y-78634809D01*
X183659095Y-78730047D01*
X182754333Y-79063380D02*
X182754333Y-78396714D01*
X182754333Y-78587190D02*
X182706714Y-78491952D01*
X182659095Y-78444333D01*
X182563857Y-78396714D01*
X182468619Y-78396714D01*
X182135285Y-79063380D02*
X182135285Y-78396714D01*
X182135285Y-78587190D02*
X182087666Y-78491952D01*
X182040047Y-78444333D01*
X181944809Y-78396714D01*
X181849571Y-78396714D01*
X181087666Y-78396714D02*
X181087666Y-79063380D01*
X181516238Y-78396714D02*
X181516238Y-78920523D01*
X181468619Y-79015761D01*
X181373380Y-79063380D01*
X181230523Y-79063380D01*
X181135285Y-79015761D01*
X181087666Y-78968142D01*
X180611476Y-78396714D02*
X180611476Y-79396714D01*
X180611476Y-78444333D02*
X180516238Y-78396714D01*
X180325761Y-78396714D01*
X180230523Y-78444333D01*
X180182904Y-78491952D01*
X180135285Y-78587190D01*
X180135285Y-78872904D01*
X180182904Y-78968142D01*
X180230523Y-79015761D01*
X180325761Y-79063380D01*
X180516238Y-79063380D01*
X180611476Y-79015761D01*
X179849571Y-78396714D02*
X179468619Y-78396714D01*
X179706714Y-78063380D02*
X179706714Y-78920523D01*
X179659095Y-79015761D01*
X179563857Y-79063380D01*
X179468619Y-79063380D01*
X177801952Y-78968142D02*
X177849571Y-79015761D01*
X177992428Y-79063380D01*
X178087666Y-79063380D01*
X178230523Y-79015761D01*
X178325761Y-78920523D01*
X178373380Y-78825285D01*
X178421000Y-78634809D01*
X178421000Y-78491952D01*
X178373380Y-78301476D01*
X178325761Y-78206238D01*
X178230523Y-78111000D01*
X178087666Y-78063380D01*
X177992428Y-78063380D01*
X177849571Y-78111000D01*
X177801952Y-78158619D01*
X177373380Y-79063380D02*
X177373380Y-78063380D01*
X176944809Y-79063380D02*
X176944809Y-78539571D01*
X176992428Y-78444333D01*
X177087666Y-78396714D01*
X177230523Y-78396714D01*
X177325761Y-78444333D01*
X177373380Y-78491952D01*
X176040047Y-79063380D02*
X176040047Y-78539571D01*
X176087666Y-78444333D01*
X176182904Y-78396714D01*
X176373380Y-78396714D01*
X176468619Y-78444333D01*
X176040047Y-79015761D02*
X176135285Y-79063380D01*
X176373380Y-79063380D01*
X176468619Y-79015761D01*
X176516238Y-78920523D01*
X176516238Y-78825285D01*
X176468619Y-78730047D01*
X176373380Y-78682428D01*
X176135285Y-78682428D01*
X176040047Y-78634809D01*
X175563857Y-79063380D02*
X175563857Y-78396714D01*
X175563857Y-78063380D02*
X175611476Y-78111000D01*
X175563857Y-78158619D01*
X175516238Y-78111000D01*
X175563857Y-78063380D01*
X175563857Y-78158619D01*
X175087666Y-78396714D02*
X175087666Y-79063380D01*
X175087666Y-78491952D02*
X175040047Y-78444333D01*
X174944809Y-78396714D01*
X174801952Y-78396714D01*
X174706714Y-78444333D01*
X174659095Y-78539571D01*
X174659095Y-79063380D01*
X212730523Y-80006714D02*
X212540047Y-80673380D01*
X212349571Y-80197190D01*
X212159095Y-80673380D01*
X211968619Y-80006714D01*
X211587666Y-80673380D02*
X211587666Y-79673380D01*
X211159095Y-80673380D02*
X211159095Y-80149571D01*
X211206714Y-80054333D01*
X211301952Y-80006714D01*
X211444809Y-80006714D01*
X211540047Y-80054333D01*
X211587666Y-80101952D01*
X210301952Y-80625761D02*
X210397190Y-80673380D01*
X210587666Y-80673380D01*
X210682904Y-80625761D01*
X210730523Y-80530523D01*
X210730523Y-80149571D01*
X210682904Y-80054333D01*
X210587666Y-80006714D01*
X210397190Y-80006714D01*
X210301952Y-80054333D01*
X210254333Y-80149571D01*
X210254333Y-80244809D01*
X210730523Y-80340047D01*
X209825761Y-80006714D02*
X209825761Y-80673380D01*
X209825761Y-80101952D02*
X209778142Y-80054333D01*
X209682904Y-80006714D01*
X209540047Y-80006714D01*
X209444809Y-80054333D01*
X209397190Y-80149571D01*
X209397190Y-80673380D01*
X207730523Y-80006714D02*
X207730523Y-80673380D01*
X208159095Y-80006714D02*
X208159095Y-80530523D01*
X208111476Y-80625761D01*
X208016238Y-80673380D01*
X207873380Y-80673380D01*
X207778142Y-80625761D01*
X207730523Y-80578142D01*
X207301952Y-80625761D02*
X207206714Y-80673380D01*
X207016238Y-80673380D01*
X206921000Y-80625761D01*
X206873380Y-80530523D01*
X206873380Y-80482904D01*
X206921000Y-80387666D01*
X207016238Y-80340047D01*
X207159095Y-80340047D01*
X207254333Y-80292428D01*
X207301952Y-80197190D01*
X207301952Y-80149571D01*
X207254333Y-80054333D01*
X207159095Y-80006714D01*
X207016238Y-80006714D01*
X206921000Y-80054333D01*
X206444809Y-80673380D02*
X206444809Y-80006714D01*
X206444809Y-79673380D02*
X206492428Y-79721000D01*
X206444809Y-79768619D01*
X206397190Y-79721000D01*
X206444809Y-79673380D01*
X206444809Y-79768619D01*
X205968619Y-80006714D02*
X205968619Y-80673380D01*
X205968619Y-80101952D02*
X205921000Y-80054333D01*
X205825761Y-80006714D01*
X205682904Y-80006714D01*
X205587666Y-80054333D01*
X205540047Y-80149571D01*
X205540047Y-80673380D01*
X204635285Y-80006714D02*
X204635285Y-80816238D01*
X204682904Y-80911476D01*
X204730523Y-80959095D01*
X204825761Y-81006714D01*
X204968619Y-81006714D01*
X205063857Y-80959095D01*
X204635285Y-80625761D02*
X204730523Y-80673380D01*
X204921000Y-80673380D01*
X205016238Y-80625761D01*
X205063857Y-80578142D01*
X205111476Y-80482904D01*
X205111476Y-80197190D01*
X205063857Y-80101952D01*
X205016238Y-80054333D01*
X204921000Y-80006714D01*
X204730523Y-80006714D01*
X204635285Y-80054333D01*
X203540047Y-80006714D02*
X203159095Y-80006714D01*
X203397190Y-79673380D02*
X203397190Y-80530523D01*
X203349571Y-80625761D01*
X203254333Y-80673380D01*
X203159095Y-80673380D01*
X202825761Y-80673380D02*
X202825761Y-79673380D01*
X202397190Y-80673380D02*
X202397190Y-80149571D01*
X202444809Y-80054333D01*
X202540047Y-80006714D01*
X202682904Y-80006714D01*
X202778142Y-80054333D01*
X202825761Y-80101952D01*
X201921000Y-80673380D02*
X201921000Y-80006714D01*
X201921000Y-79673380D02*
X201968619Y-79721000D01*
X201921000Y-79768619D01*
X201873380Y-79721000D01*
X201921000Y-79673380D01*
X201921000Y-79768619D01*
X201492428Y-80625761D02*
X201397190Y-80673380D01*
X201206714Y-80673380D01*
X201111476Y-80625761D01*
X201063857Y-80530523D01*
X201063857Y-80482904D01*
X201111476Y-80387666D01*
X201206714Y-80340047D01*
X201349571Y-80340047D01*
X201444809Y-80292428D01*
X201492428Y-80197190D01*
X201492428Y-80149571D01*
X201444809Y-80054333D01*
X201349571Y-80006714D01*
X201206714Y-80006714D01*
X201111476Y-80054333D01*
X199921000Y-80625761D02*
X199825761Y-80673380D01*
X199635285Y-80673380D01*
X199540047Y-80625761D01*
X199492428Y-80530523D01*
X199492428Y-80482904D01*
X199540047Y-80387666D01*
X199635285Y-80340047D01*
X199778142Y-80340047D01*
X199873380Y-80292428D01*
X199921000Y-80197190D01*
X199921000Y-80149571D01*
X199873380Y-80054333D01*
X199778142Y-80006714D01*
X199635285Y-80006714D01*
X199540047Y-80054333D01*
X199063857Y-80006714D02*
X199063857Y-81006714D01*
X199063857Y-80054333D02*
X198968619Y-80006714D01*
X198778142Y-80006714D01*
X198682904Y-80054333D01*
X198635285Y-80101952D01*
X198587666Y-80197190D01*
X198587666Y-80482904D01*
X198635285Y-80578142D01*
X198682904Y-80625761D01*
X198778142Y-80673380D01*
X198968619Y-80673380D01*
X199063857Y-80625761D01*
X197730523Y-80673380D02*
X197730523Y-80149571D01*
X197778142Y-80054333D01*
X197873380Y-80006714D01*
X198063857Y-80006714D01*
X198159095Y-80054333D01*
X197730523Y-80625761D02*
X197825761Y-80673380D01*
X198063857Y-80673380D01*
X198159095Y-80625761D01*
X198206714Y-80530523D01*
X198206714Y-80435285D01*
X198159095Y-80340047D01*
X198063857Y-80292428D01*
X197825761Y-80292428D01*
X197730523Y-80244809D01*
X196825761Y-80625761D02*
X196921000Y-80673380D01*
X197111476Y-80673380D01*
X197206714Y-80625761D01*
X197254333Y-80578142D01*
X197301952Y-80482904D01*
X197301952Y-80197190D01*
X197254333Y-80101952D01*
X197206714Y-80054333D01*
X197111476Y-80006714D01*
X196921000Y-80006714D01*
X196825761Y-80054333D01*
X196016238Y-80625761D02*
X196111476Y-80673380D01*
X196301952Y-80673380D01*
X196397190Y-80625761D01*
X196444809Y-80530523D01*
X196444809Y-80149571D01*
X196397190Y-80054333D01*
X196301952Y-80006714D01*
X196111476Y-80006714D01*
X196016238Y-80054333D01*
X195968619Y-80149571D01*
X195968619Y-80244809D01*
X196444809Y-80340047D01*
X195540047Y-80673380D02*
X195540047Y-80006714D01*
X195540047Y-80197190D02*
X195492428Y-80101952D01*
X195444809Y-80054333D01*
X195349571Y-80006714D01*
X195254333Y-80006714D01*
X194873380Y-80625761D02*
X194873380Y-80673380D01*
X194921000Y-80768619D01*
X194968619Y-80816238D01*
X193682904Y-80006714D02*
X193682904Y-80863857D01*
X193730523Y-80959095D01*
X193825761Y-81006714D01*
X193873380Y-81006714D01*
X193682904Y-79673380D02*
X193730523Y-79721000D01*
X193682904Y-79768619D01*
X193635285Y-79721000D01*
X193682904Y-79673380D01*
X193682904Y-79768619D01*
X192778142Y-80006714D02*
X192778142Y-80673380D01*
X193206714Y-80006714D02*
X193206714Y-80530523D01*
X193159095Y-80625761D01*
X193063857Y-80673380D01*
X192921000Y-80673380D01*
X192825761Y-80625761D01*
X192778142Y-80578142D01*
X192301952Y-80673380D02*
X192301952Y-80006714D01*
X192301952Y-80101952D02*
X192254333Y-80054333D01*
X192159095Y-80006714D01*
X192016238Y-80006714D01*
X191921000Y-80054333D01*
X191873380Y-80149571D01*
X191873380Y-80673380D01*
X191873380Y-80149571D02*
X191825761Y-80054333D01*
X191730523Y-80006714D01*
X191587666Y-80006714D01*
X191492428Y-80054333D01*
X191444809Y-80149571D01*
X191444809Y-80673380D01*
X190968619Y-80006714D02*
X190968619Y-81006714D01*
X190968619Y-80054333D02*
X190873380Y-80006714D01*
X190682904Y-80006714D01*
X190587666Y-80054333D01*
X190540047Y-80101952D01*
X190492428Y-80197190D01*
X190492428Y-80482904D01*
X190540047Y-80578142D01*
X190587666Y-80625761D01*
X190682904Y-80673380D01*
X190873380Y-80673380D01*
X190968619Y-80625761D01*
X189682904Y-80625761D02*
X189778142Y-80673380D01*
X189968619Y-80673380D01*
X190063857Y-80625761D01*
X190111476Y-80530523D01*
X190111476Y-80149571D01*
X190063857Y-80054333D01*
X189968619Y-80006714D01*
X189778142Y-80006714D01*
X189682904Y-80054333D01*
X189635285Y-80149571D01*
X189635285Y-80244809D01*
X190111476Y-80340047D01*
X189206714Y-80673380D02*
X189206714Y-80006714D01*
X189206714Y-80197190D02*
X189159095Y-80101952D01*
X189111476Y-80054333D01*
X189016238Y-80006714D01*
X188921000Y-80006714D01*
X187825761Y-80673380D02*
X187825761Y-79673380D01*
X187349571Y-80149571D02*
X187016238Y-80149571D01*
X186873380Y-80673380D02*
X187349571Y-80673380D01*
X187349571Y-79673380D01*
X186873380Y-79673380D01*
X186444809Y-80673380D02*
X186444809Y-79673380D01*
X185968619Y-80673380D02*
X185968619Y-79673380D01*
X185397190Y-80673380D01*
X185397190Y-79673380D01*
X184301952Y-80006714D02*
X183921000Y-80006714D01*
X184159095Y-79673380D02*
X184159095Y-80530523D01*
X184111476Y-80625761D01*
X184016238Y-80673380D01*
X183921000Y-80673380D01*
X183444809Y-80673380D02*
X183540047Y-80625761D01*
X183587666Y-80578142D01*
X183635285Y-80482904D01*
X183635285Y-80197190D01*
X183587666Y-80101952D01*
X183540047Y-80054333D01*
X183444809Y-80006714D01*
X183301952Y-80006714D01*
X183206714Y-80054333D01*
X183159095Y-80101952D01*
X183111476Y-80197190D01*
X183111476Y-80482904D01*
X183159095Y-80578142D01*
X183206714Y-80625761D01*
X183301952Y-80673380D01*
X183444809Y-80673380D01*
X181921000Y-80673380D02*
X181921000Y-79673380D01*
X181444809Y-80149571D02*
X181111476Y-80149571D01*
X180968619Y-80673380D02*
X181444809Y-80673380D01*
X181444809Y-79673380D01*
X180968619Y-79673380D01*
X180349571Y-79673380D02*
X180159095Y-79673380D01*
X180063857Y-79721000D01*
X179968619Y-79816238D01*
X179921000Y-80006714D01*
X179921000Y-80340047D01*
X179968619Y-80530523D01*
X180063857Y-80625761D01*
X180159095Y-80673380D01*
X180349571Y-80673380D01*
X180444809Y-80625761D01*
X180540047Y-80530523D01*
X180587666Y-80340047D01*
X180587666Y-80006714D01*
X180540047Y-79816238D01*
X180444809Y-79721000D01*
X180349571Y-79673380D01*
X179492428Y-79673380D02*
X179492428Y-80482904D01*
X179444809Y-80578142D01*
X179397190Y-80625761D01*
X179301952Y-80673380D01*
X179111476Y-80673380D01*
X179016238Y-80625761D01*
X178968619Y-80578142D01*
X178921000Y-80482904D01*
X178921000Y-79673380D01*
X178587666Y-79673380D02*
X178016238Y-79673380D01*
X178301952Y-80673380D02*
X178301952Y-79673380D01*
X177635285Y-80625761D02*
X177635285Y-80673380D01*
X177682904Y-80768619D01*
X177730523Y-80816238D01*
X176016238Y-80673380D02*
X176016238Y-80149571D01*
X176063857Y-80054333D01*
X176159095Y-80006714D01*
X176349571Y-80006714D01*
X176444809Y-80054333D01*
X176016238Y-80625761D02*
X176111476Y-80673380D01*
X176349571Y-80673380D01*
X176444809Y-80625761D01*
X176492428Y-80530523D01*
X176492428Y-80435285D01*
X176444809Y-80340047D01*
X176349571Y-80292428D01*
X176111476Y-80292428D01*
X176016238Y-80244809D01*
X175540047Y-80006714D02*
X175540047Y-80673380D01*
X175540047Y-80101952D02*
X175492428Y-80054333D01*
X175397190Y-80006714D01*
X175254333Y-80006714D01*
X175159095Y-80054333D01*
X175111476Y-80149571D01*
X175111476Y-80673380D01*
X174206714Y-80673380D02*
X174206714Y-79673380D01*
X174206714Y-80625761D02*
X174301952Y-80673380D01*
X174492428Y-80673380D01*
X174587666Y-80625761D01*
X174635285Y-80578142D01*
X174682904Y-80482904D01*
X174682904Y-80197190D01*
X174635285Y-80101952D01*
X174587666Y-80054333D01*
X174492428Y-80006714D01*
X174301952Y-80006714D01*
X174206714Y-80054333D01*
X213040047Y-81759571D02*
X212897190Y-81807190D01*
X212849571Y-81854809D01*
X212801952Y-81950047D01*
X212801952Y-82092904D01*
X212849571Y-82188142D01*
X212897190Y-82235761D01*
X212992428Y-82283380D01*
X213373380Y-82283380D01*
X213373380Y-81283380D01*
X213040047Y-81283380D01*
X212944809Y-81331000D01*
X212897190Y-81378619D01*
X212849571Y-81473857D01*
X212849571Y-81569095D01*
X212897190Y-81664333D01*
X212944809Y-81711952D01*
X213040047Y-81759571D01*
X213373380Y-81759571D01*
X212421000Y-81997666D02*
X211944809Y-81997666D01*
X212516238Y-82283380D02*
X212182904Y-81283380D01*
X211849571Y-82283380D01*
X211516238Y-82283380D02*
X211516238Y-81283380D01*
X210944809Y-82283380D02*
X211373380Y-81711952D01*
X210944809Y-81283380D02*
X211516238Y-81854809D01*
X210516238Y-82283380D02*
X210516238Y-81283380D01*
X210040047Y-82283380D02*
X210040047Y-81283380D01*
X209468619Y-82283380D01*
X209468619Y-81283380D01*
X208373380Y-81616714D02*
X207992428Y-81616714D01*
X208230523Y-81283380D02*
X208230523Y-82140523D01*
X208182904Y-82235761D01*
X208087666Y-82283380D01*
X207992428Y-82283380D01*
X207516238Y-82283380D02*
X207611476Y-82235761D01*
X207659095Y-82188142D01*
X207706714Y-82092904D01*
X207706714Y-81807190D01*
X207659095Y-81711952D01*
X207611476Y-81664333D01*
X207516238Y-81616714D01*
X207373380Y-81616714D01*
X207278142Y-81664333D01*
X207230523Y-81711952D01*
X207182904Y-81807190D01*
X207182904Y-82092904D01*
X207230523Y-82188142D01*
X207278142Y-82235761D01*
X207373380Y-82283380D01*
X207516238Y-82283380D01*
X205659095Y-81759571D02*
X205516238Y-81807190D01*
X205468619Y-81854809D01*
X205421000Y-81950047D01*
X205421000Y-82092904D01*
X205468619Y-82188142D01*
X205516238Y-82235761D01*
X205611476Y-82283380D01*
X205992428Y-82283380D01*
X205992428Y-81283380D01*
X205659095Y-81283380D01*
X205563857Y-81331000D01*
X205516238Y-81378619D01*
X205468619Y-81473857D01*
X205468619Y-81569095D01*
X205516238Y-81664333D01*
X205563857Y-81711952D01*
X205659095Y-81759571D01*
X205992428Y-81759571D01*
X205040047Y-81997666D02*
X204563857Y-81997666D01*
X205135285Y-82283380D02*
X204801952Y-81283380D01*
X204468619Y-82283380D01*
X204135285Y-82283380D02*
X204135285Y-81283380D01*
X203563857Y-82283380D02*
X203992428Y-81711952D01*
X203563857Y-81283380D02*
X204135285Y-81854809D01*
X202944809Y-81283380D02*
X202754333Y-81283380D01*
X202659095Y-81331000D01*
X202563857Y-81426238D01*
X202516238Y-81616714D01*
X202516238Y-81950047D01*
X202563857Y-82140523D01*
X202659095Y-82235761D01*
X202754333Y-82283380D01*
X202944809Y-82283380D01*
X203040047Y-82235761D01*
X203135285Y-82140523D01*
X203182904Y-81950047D01*
X203182904Y-81616714D01*
X203135285Y-81426238D01*
X203040047Y-81331000D01*
X202944809Y-81283380D01*
X202087666Y-81283380D02*
X202087666Y-82092904D01*
X202040047Y-82188142D01*
X201992428Y-82235761D01*
X201897190Y-82283380D01*
X201706714Y-82283380D01*
X201611476Y-82235761D01*
X201563857Y-82188142D01*
X201516238Y-82092904D01*
X201516238Y-81283380D01*
X201182904Y-81283380D02*
X200611476Y-81283380D01*
X200897190Y-82283380D02*
X200897190Y-81283380D01*
X199611476Y-81616714D02*
X199421000Y-82283380D01*
X199230523Y-81807190D01*
X199040047Y-82283380D01*
X198849571Y-81616714D01*
X198468619Y-82283380D02*
X198468619Y-81616714D01*
X198468619Y-81283380D02*
X198516238Y-81331000D01*
X198468619Y-81378619D01*
X198421000Y-81331000D01*
X198468619Y-81283380D01*
X198468619Y-81378619D01*
X198135285Y-81616714D02*
X197754333Y-81616714D01*
X197992428Y-81283380D02*
X197992428Y-82140523D01*
X197944809Y-82235761D01*
X197849571Y-82283380D01*
X197754333Y-82283380D01*
X197421000Y-82283380D02*
X197421000Y-81283380D01*
X196992428Y-82283380D02*
X196992428Y-81759571D01*
X197040047Y-81664333D01*
X197135285Y-81616714D01*
X197278142Y-81616714D01*
X197373380Y-81664333D01*
X197421000Y-81711952D01*
X195897190Y-81616714D02*
X195516238Y-81616714D01*
X195754333Y-81283380D02*
X195754333Y-82140523D01*
X195706714Y-82235761D01*
X195611476Y-82283380D01*
X195516238Y-82283380D01*
X195182904Y-82283380D02*
X195182904Y-81283380D01*
X194754333Y-82283380D02*
X194754333Y-81759571D01*
X194801952Y-81664333D01*
X194897190Y-81616714D01*
X195040047Y-81616714D01*
X195135285Y-81664333D01*
X195182904Y-81711952D01*
X193897190Y-82235761D02*
X193992428Y-82283380D01*
X194182904Y-82283380D01*
X194278142Y-82235761D01*
X194325761Y-82140523D01*
X194325761Y-81759571D01*
X194278142Y-81664333D01*
X194182904Y-81616714D01*
X193992428Y-81616714D01*
X193897190Y-81664333D01*
X193849571Y-81759571D01*
X193849571Y-81854809D01*
X194325761Y-81950047D01*
X192373380Y-81283380D02*
X192373380Y-81997666D01*
X192421000Y-82140523D01*
X192516238Y-82235761D01*
X192659095Y-82283380D01*
X192754333Y-82283380D01*
X191897190Y-82283380D02*
X191897190Y-81283380D01*
X191516238Y-81283380D01*
X191421000Y-81331000D01*
X191373380Y-81378619D01*
X191325761Y-81473857D01*
X191325761Y-81616714D01*
X191373380Y-81711952D01*
X191421000Y-81759571D01*
X191516238Y-81807190D01*
X191897190Y-81807190D01*
X190373380Y-82283380D02*
X190944809Y-82283380D01*
X190659095Y-82283380D02*
X190659095Y-81283380D01*
X190754333Y-81426238D01*
X190849571Y-81521476D01*
X190944809Y-81569095D01*
X188754333Y-82283380D02*
X188754333Y-81759571D01*
X188801952Y-81664333D01*
X188897190Y-81616714D01*
X189087666Y-81616714D01*
X189182904Y-81664333D01*
X188754333Y-82235761D02*
X188849571Y-82283380D01*
X189087666Y-82283380D01*
X189182904Y-82235761D01*
X189230523Y-82140523D01*
X189230523Y-82045285D01*
X189182904Y-81950047D01*
X189087666Y-81902428D01*
X188849571Y-81902428D01*
X188754333Y-81854809D01*
X188278142Y-81616714D02*
X188278142Y-82283380D01*
X188278142Y-81711952D02*
X188230523Y-81664333D01*
X188135285Y-81616714D01*
X187992428Y-81616714D01*
X187897190Y-81664333D01*
X187849571Y-81759571D01*
X187849571Y-82283380D01*
X186944809Y-82283380D02*
X186944809Y-81283380D01*
X186944809Y-82235761D02*
X187040047Y-82283380D01*
X187230523Y-82283380D01*
X187325761Y-82235761D01*
X187373380Y-82188142D01*
X187421000Y-82092904D01*
X187421000Y-81807190D01*
X187373380Y-81711952D01*
X187325761Y-81664333D01*
X187230523Y-81616714D01*
X187040047Y-81616714D01*
X186944809Y-81664333D01*
X185421000Y-81283380D02*
X185421000Y-81997666D01*
X185468619Y-82140523D01*
X185563857Y-82235761D01*
X185706714Y-82283380D01*
X185801952Y-82283380D01*
X184944809Y-82283380D02*
X184944809Y-81283380D01*
X184563857Y-81283380D01*
X184468619Y-81331000D01*
X184421000Y-81378619D01*
X184373380Y-81473857D01*
X184373380Y-81616714D01*
X184421000Y-81711952D01*
X184468619Y-81759571D01*
X184563857Y-81807190D01*
X184944809Y-81807190D01*
X183992428Y-81378619D02*
X183944809Y-81331000D01*
X183849571Y-81283380D01*
X183611476Y-81283380D01*
X183516238Y-81331000D01*
X183468619Y-81378619D01*
X183421000Y-81473857D01*
X183421000Y-81569095D01*
X183468619Y-81711952D01*
X184040047Y-82283380D01*
X183421000Y-82283380D01*
X182230523Y-81616714D02*
X182230523Y-82473857D01*
X182278142Y-82569095D01*
X182373380Y-82616714D01*
X182421000Y-82616714D01*
X182230523Y-81283380D02*
X182278142Y-81331000D01*
X182230523Y-81378619D01*
X182182904Y-81331000D01*
X182230523Y-81283380D01*
X182230523Y-81378619D01*
X181325761Y-81616714D02*
X181325761Y-82283380D01*
X181754333Y-81616714D02*
X181754333Y-82140523D01*
X181706714Y-82235761D01*
X181611476Y-82283380D01*
X181468619Y-82283380D01*
X181373380Y-82235761D01*
X181325761Y-82188142D01*
X180849571Y-82283380D02*
X180849571Y-81616714D01*
X180849571Y-81711952D02*
X180801952Y-81664333D01*
X180706714Y-81616714D01*
X180563857Y-81616714D01*
X180468619Y-81664333D01*
X180421000Y-81759571D01*
X180421000Y-82283380D01*
X180421000Y-81759571D02*
X180373380Y-81664333D01*
X180278142Y-81616714D01*
X180135285Y-81616714D01*
X180040047Y-81664333D01*
X179992428Y-81759571D01*
X179992428Y-82283380D01*
X179516238Y-81616714D02*
X179516238Y-82616714D01*
X179516238Y-81664333D02*
X179421000Y-81616714D01*
X179230523Y-81616714D01*
X179135285Y-81664333D01*
X179087666Y-81711952D01*
X179040047Y-81807190D01*
X179040047Y-82092904D01*
X179087666Y-82188142D01*
X179135285Y-82235761D01*
X179230523Y-82283380D01*
X179421000Y-82283380D01*
X179516238Y-82235761D01*
X178230523Y-82235761D02*
X178325761Y-82283380D01*
X178516238Y-82283380D01*
X178611476Y-82235761D01*
X178659095Y-82140523D01*
X178659095Y-81759571D01*
X178611476Y-81664333D01*
X178516238Y-81616714D01*
X178325761Y-81616714D01*
X178230523Y-81664333D01*
X178182904Y-81759571D01*
X178182904Y-81854809D01*
X178659095Y-81950047D01*
X177754333Y-82283380D02*
X177754333Y-81616714D01*
X177754333Y-81807190D02*
X177706714Y-81711952D01*
X177659095Y-81664333D01*
X177563857Y-81616714D01*
X177468619Y-81616714D01*
X177182904Y-82235761D02*
X177087666Y-82283380D01*
X176897190Y-82283380D01*
X176801952Y-82235761D01*
X176754333Y-82140523D01*
X176754333Y-82092904D01*
X176801952Y-81997666D01*
X176897190Y-81950047D01*
X177040047Y-81950047D01*
X177135285Y-81902428D01*
X177182904Y-81807190D01*
X177182904Y-81759571D01*
X177135285Y-81664333D01*
X177040047Y-81616714D01*
X176897190Y-81616714D01*
X176801952Y-81664333D01*
X175421000Y-82283380D02*
X175516238Y-82235761D01*
X175563857Y-82188142D01*
X175611476Y-82092904D01*
X175611476Y-81807190D01*
X175563857Y-81711952D01*
X175516238Y-81664333D01*
X175421000Y-81616714D01*
X175278142Y-81616714D01*
X175182904Y-81664333D01*
X175135285Y-81711952D01*
X175087666Y-81807190D01*
X175087666Y-82092904D01*
X175135285Y-82188142D01*
X175182904Y-82235761D01*
X175278142Y-82283380D01*
X175421000Y-82283380D01*
X174659095Y-81616714D02*
X174659095Y-82283380D01*
X174659095Y-81711952D02*
X174611476Y-81664333D01*
X174516238Y-81616714D01*
X174373380Y-81616714D01*
X174278142Y-81664333D01*
X174230523Y-81759571D01*
X174230523Y-82283380D01*
X201087666Y-83226714D02*
X200706714Y-83226714D01*
X200944809Y-82893380D02*
X200944809Y-83750523D01*
X200897190Y-83845761D01*
X200801952Y-83893380D01*
X200706714Y-83893380D01*
X200373380Y-83893380D02*
X200373380Y-82893380D01*
X199944809Y-83893380D02*
X199944809Y-83369571D01*
X199992428Y-83274333D01*
X200087666Y-83226714D01*
X200230523Y-83226714D01*
X200325761Y-83274333D01*
X200373380Y-83321952D01*
X199087666Y-83845761D02*
X199182904Y-83893380D01*
X199373380Y-83893380D01*
X199468619Y-83845761D01*
X199516238Y-83750523D01*
X199516238Y-83369571D01*
X199468619Y-83274333D01*
X199373380Y-83226714D01*
X199182904Y-83226714D01*
X199087666Y-83274333D01*
X199040047Y-83369571D01*
X199040047Y-83464809D01*
X199516238Y-83560047D01*
X197421000Y-83845761D02*
X197516238Y-83893380D01*
X197706714Y-83893380D01*
X197801952Y-83845761D01*
X197849571Y-83798142D01*
X197897190Y-83702904D01*
X197897190Y-83417190D01*
X197849571Y-83321952D01*
X197801952Y-83274333D01*
X197706714Y-83226714D01*
X197516238Y-83226714D01*
X197421000Y-83274333D01*
X196849571Y-83893380D02*
X196944809Y-83845761D01*
X196992428Y-83798142D01*
X197040047Y-83702904D01*
X197040047Y-83417190D01*
X196992428Y-83321952D01*
X196944809Y-83274333D01*
X196849571Y-83226714D01*
X196706714Y-83226714D01*
X196611476Y-83274333D01*
X196563857Y-83321952D01*
X196516238Y-83417190D01*
X196516238Y-83702904D01*
X196563857Y-83798142D01*
X196611476Y-83845761D01*
X196706714Y-83893380D01*
X196849571Y-83893380D01*
X196087666Y-83893380D02*
X196087666Y-83226714D01*
X196087666Y-83321952D02*
X196040047Y-83274333D01*
X195944809Y-83226714D01*
X195801952Y-83226714D01*
X195706714Y-83274333D01*
X195659095Y-83369571D01*
X195659095Y-83893380D01*
X195659095Y-83369571D02*
X195611476Y-83274333D01*
X195516238Y-83226714D01*
X195373380Y-83226714D01*
X195278142Y-83274333D01*
X195230523Y-83369571D01*
X195230523Y-83893380D01*
X194754333Y-83226714D02*
X194754333Y-84226714D01*
X194754333Y-83274333D02*
X194659095Y-83226714D01*
X194468619Y-83226714D01*
X194373380Y-83274333D01*
X194325761Y-83321952D01*
X194278142Y-83417190D01*
X194278142Y-83702904D01*
X194325761Y-83798142D01*
X194373380Y-83845761D01*
X194468619Y-83893380D01*
X194659095Y-83893380D01*
X194754333Y-83845761D01*
X193706714Y-83893380D02*
X193801952Y-83845761D01*
X193849571Y-83798142D01*
X193897190Y-83702904D01*
X193897190Y-83417190D01*
X193849571Y-83321952D01*
X193801952Y-83274333D01*
X193706714Y-83226714D01*
X193563857Y-83226714D01*
X193468619Y-83274333D01*
X193421000Y-83321952D01*
X193373380Y-83417190D01*
X193373380Y-83702904D01*
X193421000Y-83798142D01*
X193468619Y-83845761D01*
X193563857Y-83893380D01*
X193706714Y-83893380D01*
X192944809Y-83226714D02*
X192944809Y-83893380D01*
X192944809Y-83321952D02*
X192897190Y-83274333D01*
X192801952Y-83226714D01*
X192659095Y-83226714D01*
X192563857Y-83274333D01*
X192516238Y-83369571D01*
X192516238Y-83893380D01*
X191659095Y-83845761D02*
X191754333Y-83893380D01*
X191944809Y-83893380D01*
X192040047Y-83845761D01*
X192087666Y-83750523D01*
X192087666Y-83369571D01*
X192040047Y-83274333D01*
X191944809Y-83226714D01*
X191754333Y-83226714D01*
X191659095Y-83274333D01*
X191611476Y-83369571D01*
X191611476Y-83464809D01*
X192087666Y-83560047D01*
X191182904Y-83226714D02*
X191182904Y-83893380D01*
X191182904Y-83321952D02*
X191135285Y-83274333D01*
X191040047Y-83226714D01*
X190897190Y-83226714D01*
X190801952Y-83274333D01*
X190754333Y-83369571D01*
X190754333Y-83893380D01*
X190421000Y-83226714D02*
X190040047Y-83226714D01*
X190278142Y-82893380D02*
X190278142Y-83750523D01*
X190230523Y-83845761D01*
X190135285Y-83893380D01*
X190040047Y-83893380D01*
X188992428Y-83845761D02*
X188897190Y-83893380D01*
X188706714Y-83893380D01*
X188611476Y-83845761D01*
X188563857Y-83750523D01*
X188563857Y-83702904D01*
X188611476Y-83607666D01*
X188706714Y-83560047D01*
X188849571Y-83560047D01*
X188944809Y-83512428D01*
X188992428Y-83417190D01*
X188992428Y-83369571D01*
X188944809Y-83274333D01*
X188849571Y-83226714D01*
X188706714Y-83226714D01*
X188611476Y-83274333D01*
X188135285Y-83893380D02*
X188135285Y-83226714D01*
X188135285Y-82893380D02*
X188182904Y-82941000D01*
X188135285Y-82988619D01*
X188087666Y-82941000D01*
X188135285Y-82893380D01*
X188135285Y-82988619D01*
X187230523Y-83893380D02*
X187230523Y-82893380D01*
X187230523Y-83845761D02*
X187325761Y-83893380D01*
X187516238Y-83893380D01*
X187611476Y-83845761D01*
X187659095Y-83798142D01*
X187706714Y-83702904D01*
X187706714Y-83417190D01*
X187659095Y-83321952D01*
X187611476Y-83274333D01*
X187516238Y-83226714D01*
X187325761Y-83226714D01*
X187230523Y-83274333D01*
X186373380Y-83845761D02*
X186468619Y-83893380D01*
X186659095Y-83893380D01*
X186754333Y-83845761D01*
X186801952Y-83750523D01*
X186801952Y-83369571D01*
X186754333Y-83274333D01*
X186659095Y-83226714D01*
X186468619Y-83226714D01*
X186373380Y-83274333D01*
X186325761Y-83369571D01*
X186325761Y-83464809D01*
X186801952Y-83560047D01*
X185897190Y-83798142D02*
X185849571Y-83845761D01*
X185897190Y-83893380D01*
X185944809Y-83845761D01*
X185897190Y-83798142D01*
X185897190Y-83893380D01*
D11*
X117798571Y-74375666D02*
X117322380Y-74375666D01*
X117893809Y-74661380D02*
X117560476Y-73661380D01*
X117227142Y-74661380D01*
X117036666Y-73994714D02*
X116655714Y-73994714D01*
X116893809Y-73661380D02*
X116893809Y-74518523D01*
X116846190Y-74613761D01*
X116750952Y-74661380D01*
X116655714Y-74661380D01*
X116465238Y-73994714D02*
X116084285Y-73994714D01*
X116322380Y-73661380D02*
X116322380Y-74518523D01*
X116274761Y-74613761D01*
X116179523Y-74661380D01*
X116084285Y-74661380D01*
X115322380Y-74661380D02*
X115322380Y-74137571D01*
X115370000Y-74042333D01*
X115465238Y-73994714D01*
X115655714Y-73994714D01*
X115750952Y-74042333D01*
X115322380Y-74613761D02*
X115417619Y-74661380D01*
X115655714Y-74661380D01*
X115750952Y-74613761D01*
X115798571Y-74518523D01*
X115798571Y-74423285D01*
X115750952Y-74328047D01*
X115655714Y-74280428D01*
X115417619Y-74280428D01*
X115322380Y-74232809D01*
X114417619Y-74613761D02*
X114512857Y-74661380D01*
X114703333Y-74661380D01*
X114798571Y-74613761D01*
X114846190Y-74566142D01*
X114893809Y-74470904D01*
X114893809Y-74185190D01*
X114846190Y-74089952D01*
X114798571Y-74042333D01*
X114703333Y-73994714D01*
X114512857Y-73994714D01*
X114417619Y-74042333D01*
X113989047Y-74661380D02*
X113989047Y-73661380D01*
X113560476Y-74661380D02*
X113560476Y-74137571D01*
X113608095Y-74042333D01*
X113703333Y-73994714D01*
X113846190Y-73994714D01*
X113941428Y-74042333D01*
X113989047Y-74089952D01*
X111893809Y-74661380D02*
X111893809Y-74137571D01*
X111941428Y-74042333D01*
X112036666Y-73994714D01*
X112227142Y-73994714D01*
X112322380Y-74042333D01*
X111893809Y-74613761D02*
X111989047Y-74661380D01*
X112227142Y-74661380D01*
X112322380Y-74613761D01*
X112370000Y-74518523D01*
X112370000Y-74423285D01*
X112322380Y-74328047D01*
X112227142Y-74280428D01*
X111989047Y-74280428D01*
X111893809Y-74232809D01*
X110512857Y-74661380D02*
X110608095Y-74613761D01*
X110655714Y-74518523D01*
X110655714Y-73661380D01*
X109703333Y-74661380D02*
X109703333Y-74137571D01*
X109750952Y-74042333D01*
X109846190Y-73994714D01*
X110036666Y-73994714D01*
X110131904Y-74042333D01*
X109703333Y-74613761D02*
X109798571Y-74661380D01*
X110036666Y-74661380D01*
X110131904Y-74613761D01*
X110179523Y-74518523D01*
X110179523Y-74423285D01*
X110131904Y-74328047D01*
X110036666Y-74280428D01*
X109798571Y-74280428D01*
X109703333Y-74232809D01*
X109227142Y-73994714D02*
X109227142Y-74661380D01*
X109227142Y-74089952D02*
X109179523Y-74042333D01*
X109084285Y-73994714D01*
X108941428Y-73994714D01*
X108846190Y-74042333D01*
X108798571Y-74137571D01*
X108798571Y-74661380D01*
X108417619Y-73994714D02*
X108179523Y-74661380D01*
X107941428Y-73994714D02*
X108179523Y-74661380D01*
X108274761Y-74899476D01*
X108322380Y-74947095D01*
X108417619Y-74994714D01*
X107131904Y-74661380D02*
X107131904Y-74137571D01*
X107179523Y-74042333D01*
X107274761Y-73994714D01*
X107465238Y-73994714D01*
X107560476Y-74042333D01*
X107131904Y-74613761D02*
X107227142Y-74661380D01*
X107465238Y-74661380D01*
X107560476Y-74613761D01*
X107608095Y-74518523D01*
X107608095Y-74423285D01*
X107560476Y-74328047D01*
X107465238Y-74280428D01*
X107227142Y-74280428D01*
X107131904Y-74232809D01*
X106655714Y-74661380D02*
X106655714Y-73994714D01*
X106655714Y-74185190D02*
X106608095Y-74089952D01*
X106560476Y-74042333D01*
X106465238Y-73994714D01*
X106370000Y-73994714D01*
X105608095Y-74661380D02*
X105608095Y-73661380D01*
X105608095Y-74613761D02*
X105703333Y-74661380D01*
X105893809Y-74661380D01*
X105989047Y-74613761D01*
X106036666Y-74566142D01*
X106084285Y-74470904D01*
X106084285Y-74185190D01*
X106036666Y-74089952D01*
X105989047Y-74042333D01*
X105893809Y-73994714D01*
X105703333Y-73994714D01*
X105608095Y-74042333D01*
X104370000Y-74661380D02*
X104370000Y-73661380D01*
X104370000Y-74042333D02*
X104274761Y-73994714D01*
X104084285Y-73994714D01*
X103989047Y-74042333D01*
X103941428Y-74089952D01*
X103893809Y-74185190D01*
X103893809Y-74470904D01*
X103941428Y-74566142D01*
X103989047Y-74613761D01*
X104084285Y-74661380D01*
X104274761Y-74661380D01*
X104370000Y-74613761D01*
X103084285Y-74613761D02*
X103179523Y-74661380D01*
X103370000Y-74661380D01*
X103465238Y-74613761D01*
X103512857Y-74518523D01*
X103512857Y-74137571D01*
X103465238Y-74042333D01*
X103370000Y-73994714D01*
X103179523Y-73994714D01*
X103084285Y-74042333D01*
X103036666Y-74137571D01*
X103036666Y-74232809D01*
X103512857Y-74328047D01*
X102750952Y-73994714D02*
X102370000Y-73994714D01*
X102608095Y-73661380D02*
X102608095Y-74518523D01*
X102560476Y-74613761D01*
X102465238Y-74661380D01*
X102370000Y-74661380D01*
X102131904Y-73994714D02*
X101941428Y-74661380D01*
X101750952Y-74185190D01*
X101560476Y-74661380D01*
X101370000Y-73994714D01*
X100608095Y-74613761D02*
X100703333Y-74661380D01*
X100893809Y-74661380D01*
X100989047Y-74613761D01*
X101036666Y-74518523D01*
X101036666Y-74137571D01*
X100989047Y-74042333D01*
X100893809Y-73994714D01*
X100703333Y-73994714D01*
X100608095Y-74042333D01*
X100560476Y-74137571D01*
X100560476Y-74232809D01*
X101036666Y-74328047D01*
X99750952Y-74613761D02*
X99846190Y-74661380D01*
X100036666Y-74661380D01*
X100131904Y-74613761D01*
X100179523Y-74518523D01*
X100179523Y-74137571D01*
X100131904Y-74042333D01*
X100036666Y-73994714D01*
X99846190Y-73994714D01*
X99750952Y-74042333D01*
X99703333Y-74137571D01*
X99703333Y-74232809D01*
X100179523Y-74328047D01*
X99274761Y-73994714D02*
X99274761Y-74661380D01*
X99274761Y-74089952D02*
X99227142Y-74042333D01*
X99131904Y-73994714D01*
X98989047Y-73994714D01*
X98893809Y-74042333D01*
X98846190Y-74137571D01*
X98846190Y-74661380D01*
X97750952Y-73994714D02*
X97370000Y-73994714D01*
X97608095Y-73661380D02*
X97608095Y-74518523D01*
X97560476Y-74613761D01*
X97465238Y-74661380D01*
X97370000Y-74661380D01*
X97036666Y-74661380D02*
X97036666Y-73661380D01*
X96608095Y-74661380D02*
X96608095Y-74137571D01*
X96655714Y-74042333D01*
X96750952Y-73994714D01*
X96893809Y-73994714D01*
X96989047Y-74042333D01*
X97036666Y-74089952D01*
X95750952Y-74613761D02*
X95846190Y-74661380D01*
X96036666Y-74661380D01*
X96131904Y-74613761D01*
X96179523Y-74518523D01*
X96179523Y-74137571D01*
X96131904Y-74042333D01*
X96036666Y-73994714D01*
X95846190Y-73994714D01*
X95750952Y-74042333D01*
X95703333Y-74137571D01*
X95703333Y-74232809D01*
X96179523Y-74328047D01*
X94512857Y-74661380D02*
X94512857Y-73661380D01*
X94084285Y-74661380D02*
X94084285Y-74137571D01*
X94131904Y-74042333D01*
X94227142Y-73994714D01*
X94370000Y-73994714D01*
X94465238Y-74042333D01*
X94512857Y-74089952D01*
X93465238Y-74661380D02*
X93560476Y-74613761D01*
X93608095Y-74566142D01*
X93655714Y-74470904D01*
X93655714Y-74185190D01*
X93608095Y-74089952D01*
X93560476Y-74042333D01*
X93465238Y-73994714D01*
X93322380Y-73994714D01*
X93227142Y-74042333D01*
X93179523Y-74089952D01*
X93131904Y-74185190D01*
X93131904Y-74470904D01*
X93179523Y-74566142D01*
X93227142Y-74613761D01*
X93322380Y-74661380D01*
X93465238Y-74661380D01*
X92560476Y-74661380D02*
X92655714Y-74613761D01*
X92703333Y-74518523D01*
X92703333Y-73661380D01*
X91798571Y-74613761D02*
X91893809Y-74661380D01*
X92084285Y-74661380D01*
X92179523Y-74613761D01*
X92227142Y-74518523D01*
X92227142Y-74137571D01*
X92179523Y-74042333D01*
X92084285Y-73994714D01*
X91893809Y-73994714D01*
X91798571Y-74042333D01*
X91750952Y-74137571D01*
X91750952Y-74232809D01*
X92227142Y-74328047D01*
X91370000Y-74613761D02*
X91274761Y-74661380D01*
X91084285Y-74661380D01*
X90989047Y-74613761D01*
X90941428Y-74518523D01*
X90941428Y-74470904D01*
X90989047Y-74375666D01*
X91084285Y-74328047D01*
X91227142Y-74328047D01*
X91322380Y-74280428D01*
X91370000Y-74185190D01*
X91370000Y-74137571D01*
X91322380Y-74042333D01*
X91227142Y-73994714D01*
X91084285Y-73994714D01*
X90989047Y-74042333D01*
X89893809Y-73994714D02*
X89512857Y-73994714D01*
X89750952Y-73661380D02*
X89750952Y-74518523D01*
X89703333Y-74613761D01*
X89608095Y-74661380D01*
X89512857Y-74661380D01*
X89036666Y-74661380D02*
X89131904Y-74613761D01*
X89179523Y-74566142D01*
X89227142Y-74470904D01*
X89227142Y-74185190D01*
X89179523Y-74089952D01*
X89131904Y-74042333D01*
X89036666Y-73994714D01*
X88893809Y-73994714D01*
X88798571Y-74042333D01*
X88750952Y-74089952D01*
X88703333Y-74185190D01*
X88703333Y-74470904D01*
X88750952Y-74566142D01*
X88798571Y-74613761D01*
X88893809Y-74661380D01*
X89036666Y-74661380D01*
X116774761Y-76271380D02*
X116774761Y-75604714D01*
X116774761Y-75699952D02*
X116727142Y-75652333D01*
X116631904Y-75604714D01*
X116489047Y-75604714D01*
X116393809Y-75652333D01*
X116346190Y-75747571D01*
X116346190Y-76271380D01*
X116346190Y-75747571D02*
X116298571Y-75652333D01*
X116203333Y-75604714D01*
X116060476Y-75604714D01*
X115965238Y-75652333D01*
X115917619Y-75747571D01*
X115917619Y-76271380D01*
X115012857Y-76271380D02*
X115012857Y-75747571D01*
X115060476Y-75652333D01*
X115155714Y-75604714D01*
X115346190Y-75604714D01*
X115441428Y-75652333D01*
X115012857Y-76223761D02*
X115108095Y-76271380D01*
X115346190Y-76271380D01*
X115441428Y-76223761D01*
X115489047Y-76128523D01*
X115489047Y-76033285D01*
X115441428Y-75938047D01*
X115346190Y-75890428D01*
X115108095Y-75890428D01*
X115012857Y-75842809D01*
X114536666Y-76271380D02*
X114536666Y-75271380D01*
X114441428Y-75890428D02*
X114155714Y-76271380D01*
X114155714Y-75604714D02*
X114536666Y-75985666D01*
X113346190Y-76223761D02*
X113441428Y-76271380D01*
X113631904Y-76271380D01*
X113727142Y-76223761D01*
X113774761Y-76128523D01*
X113774761Y-75747571D01*
X113727142Y-75652333D01*
X113631904Y-75604714D01*
X113441428Y-75604714D01*
X113346190Y-75652333D01*
X113298571Y-75747571D01*
X113298571Y-75842809D01*
X113774761Y-75938047D01*
X112108095Y-76271380D02*
X112108095Y-75604714D01*
X112108095Y-75271380D02*
X112155714Y-75319000D01*
X112108095Y-75366619D01*
X112060476Y-75319000D01*
X112108095Y-75271380D01*
X112108095Y-75366619D01*
X111774761Y-75604714D02*
X111393809Y-75604714D01*
X111631904Y-75271380D02*
X111631904Y-76128523D01*
X111584285Y-76223761D01*
X111489047Y-76271380D01*
X111393809Y-76271380D01*
X109917619Y-76223761D02*
X110012857Y-76271380D01*
X110203333Y-76271380D01*
X110298571Y-76223761D01*
X110346190Y-76128523D01*
X110346190Y-75747571D01*
X110298571Y-75652333D01*
X110203333Y-75604714D01*
X110012857Y-75604714D01*
X109917619Y-75652333D01*
X109870000Y-75747571D01*
X109870000Y-75842809D01*
X110346190Y-75938047D01*
X109012857Y-76271380D02*
X109012857Y-75747571D01*
X109060476Y-75652333D01*
X109155714Y-75604714D01*
X109346190Y-75604714D01*
X109441428Y-75652333D01*
X109012857Y-76223761D02*
X109108095Y-76271380D01*
X109346190Y-76271380D01*
X109441428Y-76223761D01*
X109489047Y-76128523D01*
X109489047Y-76033285D01*
X109441428Y-75938047D01*
X109346190Y-75890428D01*
X109108095Y-75890428D01*
X109012857Y-75842809D01*
X108584285Y-76223761D02*
X108489047Y-76271380D01*
X108298571Y-76271380D01*
X108203333Y-76223761D01*
X108155714Y-76128523D01*
X108155714Y-76080904D01*
X108203333Y-75985666D01*
X108298571Y-75938047D01*
X108441428Y-75938047D01*
X108536666Y-75890428D01*
X108584285Y-75795190D01*
X108584285Y-75747571D01*
X108536666Y-75652333D01*
X108441428Y-75604714D01*
X108298571Y-75604714D01*
X108203333Y-75652333D01*
X107727142Y-76271380D02*
X107727142Y-75604714D01*
X107727142Y-75271380D02*
X107774761Y-75319000D01*
X107727142Y-75366619D01*
X107679523Y-75319000D01*
X107727142Y-75271380D01*
X107727142Y-75366619D01*
X106870000Y-76223761D02*
X106965238Y-76271380D01*
X107155714Y-76271380D01*
X107250952Y-76223761D01*
X107298571Y-76128523D01*
X107298571Y-75747571D01*
X107250952Y-75652333D01*
X107155714Y-75604714D01*
X106965238Y-75604714D01*
X106870000Y-75652333D01*
X106822380Y-75747571D01*
X106822380Y-75842809D01*
X107298571Y-75938047D01*
X106393809Y-76271380D02*
X106393809Y-75604714D01*
X106393809Y-75795190D02*
X106346190Y-75699952D01*
X106298571Y-75652333D01*
X106203333Y-75604714D01*
X106108095Y-75604714D01*
X105155714Y-75604714D02*
X104774761Y-75604714D01*
X105012857Y-75271380D02*
X105012857Y-76128523D01*
X104965238Y-76223761D01*
X104870000Y-76271380D01*
X104774761Y-76271380D01*
X104298571Y-76271380D02*
X104393809Y-76223761D01*
X104441428Y-76176142D01*
X104489047Y-76080904D01*
X104489047Y-75795190D01*
X104441428Y-75699952D01*
X104393809Y-75652333D01*
X104298571Y-75604714D01*
X104155714Y-75604714D01*
X104060476Y-75652333D01*
X104012857Y-75699952D01*
X103965238Y-75795190D01*
X103965238Y-76080904D01*
X104012857Y-76176142D01*
X104060476Y-76223761D01*
X104155714Y-76271380D01*
X104298571Y-76271380D01*
X102774761Y-76271380D02*
X102774761Y-75604714D01*
X102774761Y-75795190D02*
X102727142Y-75699952D01*
X102679523Y-75652333D01*
X102584285Y-75604714D01*
X102489047Y-75604714D01*
X101774761Y-76223761D02*
X101870000Y-76271380D01*
X102060476Y-76271380D01*
X102155714Y-76223761D01*
X102203333Y-76128523D01*
X102203333Y-75747571D01*
X102155714Y-75652333D01*
X102060476Y-75604714D01*
X101870000Y-75604714D01*
X101774761Y-75652333D01*
X101727142Y-75747571D01*
X101727142Y-75842809D01*
X102203333Y-75938047D01*
X101298571Y-76271380D02*
X101298571Y-75604714D01*
X101298571Y-75699952D02*
X101250952Y-75652333D01*
X101155714Y-75604714D01*
X101012857Y-75604714D01*
X100917619Y-75652333D01*
X100870000Y-75747571D01*
X100870000Y-76271380D01*
X100870000Y-75747571D02*
X100822380Y-75652333D01*
X100727142Y-75604714D01*
X100584285Y-75604714D01*
X100489047Y-75652333D01*
X100441428Y-75747571D01*
X100441428Y-76271380D01*
X99822380Y-76271380D02*
X99917619Y-76223761D01*
X99965238Y-76176142D01*
X100012857Y-76080904D01*
X100012857Y-75795190D01*
X99965238Y-75699952D01*
X99917619Y-75652333D01*
X99822380Y-75604714D01*
X99679523Y-75604714D01*
X99584285Y-75652333D01*
X99536666Y-75699952D01*
X99489047Y-75795190D01*
X99489047Y-76080904D01*
X99536666Y-76176142D01*
X99584285Y-76223761D01*
X99679523Y-76271380D01*
X99822380Y-76271380D01*
X99155714Y-75604714D02*
X98917619Y-76271380D01*
X98679523Y-75604714D01*
X97917619Y-76223761D02*
X98012857Y-76271380D01*
X98203333Y-76271380D01*
X98298571Y-76223761D01*
X98346190Y-76128523D01*
X98346190Y-75747571D01*
X98298571Y-75652333D01*
X98203333Y-75604714D01*
X98012857Y-75604714D01*
X97917619Y-75652333D01*
X97870000Y-75747571D01*
X97870000Y-75842809D01*
X98346190Y-75938047D01*
X96822380Y-75604714D02*
X96441428Y-75604714D01*
X96679523Y-75271380D02*
X96679523Y-76128523D01*
X96631904Y-76223761D01*
X96536666Y-76271380D01*
X96441428Y-76271380D01*
X96108095Y-76271380D02*
X96108095Y-75271380D01*
X95679523Y-76271380D02*
X95679523Y-75747571D01*
X95727142Y-75652333D01*
X95822380Y-75604714D01*
X95965238Y-75604714D01*
X96060476Y-75652333D01*
X96108095Y-75699952D01*
X94822380Y-76223761D02*
X94917619Y-76271380D01*
X95108095Y-76271380D01*
X95203333Y-76223761D01*
X95250952Y-76128523D01*
X95250952Y-75747571D01*
X95203333Y-75652333D01*
X95108095Y-75604714D01*
X94917619Y-75604714D01*
X94822380Y-75652333D01*
X94774761Y-75747571D01*
X94774761Y-75842809D01*
X95250952Y-75938047D01*
X93631904Y-76223761D02*
X93489047Y-76271380D01*
X93250952Y-76271380D01*
X93155714Y-76223761D01*
X93108095Y-76176142D01*
X93060476Y-76080904D01*
X93060476Y-75985666D01*
X93108095Y-75890428D01*
X93155714Y-75842809D01*
X93250952Y-75795190D01*
X93441428Y-75747571D01*
X93536666Y-75699952D01*
X93584285Y-75652333D01*
X93631904Y-75557095D01*
X93631904Y-75461857D01*
X93584285Y-75366619D01*
X93536666Y-75319000D01*
X93441428Y-75271380D01*
X93203333Y-75271380D01*
X93060476Y-75319000D01*
X92631904Y-75604714D02*
X92631904Y-76604714D01*
X92631904Y-75652333D02*
X92536666Y-75604714D01*
X92346190Y-75604714D01*
X92250952Y-75652333D01*
X92203333Y-75699952D01*
X92155714Y-75795190D01*
X92155714Y-76080904D01*
X92203333Y-76176142D01*
X92250952Y-76223761D01*
X92346190Y-76271380D01*
X92536666Y-76271380D01*
X92631904Y-76223761D01*
X91298571Y-76271380D02*
X91298571Y-75747571D01*
X91346190Y-75652333D01*
X91441428Y-75604714D01*
X91631904Y-75604714D01*
X91727142Y-75652333D01*
X91298571Y-76223761D02*
X91393809Y-76271380D01*
X91631904Y-76271380D01*
X91727142Y-76223761D01*
X91774761Y-76128523D01*
X91774761Y-76033285D01*
X91727142Y-75938047D01*
X91631904Y-75890428D01*
X91393809Y-75890428D01*
X91298571Y-75842809D01*
X90393809Y-76223761D02*
X90489047Y-76271380D01*
X90679523Y-76271380D01*
X90774761Y-76223761D01*
X90822380Y-76176142D01*
X90870000Y-76080904D01*
X90870000Y-75795190D01*
X90822380Y-75699952D01*
X90774761Y-75652333D01*
X90679523Y-75604714D01*
X90489047Y-75604714D01*
X90393809Y-75652333D01*
X89584285Y-76223761D02*
X89679523Y-76271380D01*
X89870000Y-76271380D01*
X89965238Y-76223761D01*
X90012857Y-76128523D01*
X90012857Y-75747571D01*
X89965238Y-75652333D01*
X89870000Y-75604714D01*
X89679523Y-75604714D01*
X89584285Y-75652333D01*
X89536666Y-75747571D01*
X89536666Y-75842809D01*
X90012857Y-75938047D01*
X89108095Y-76271380D02*
X89108095Y-75604714D01*
X89108095Y-75795190D02*
X89060476Y-75699952D01*
X89012857Y-75652333D01*
X88917619Y-75604714D01*
X88822380Y-75604714D01*
X112227142Y-77214714D02*
X111846190Y-77214714D01*
X112084285Y-77881380D02*
X112084285Y-77024238D01*
X112036666Y-76929000D01*
X111941428Y-76881380D01*
X111846190Y-76881380D01*
X111512857Y-77881380D02*
X111512857Y-77214714D01*
X111512857Y-77405190D02*
X111465238Y-77309952D01*
X111417619Y-77262333D01*
X111322380Y-77214714D01*
X111227142Y-77214714D01*
X110750952Y-77881380D02*
X110846190Y-77833761D01*
X110893809Y-77786142D01*
X110941428Y-77690904D01*
X110941428Y-77405190D01*
X110893809Y-77309952D01*
X110846190Y-77262333D01*
X110750952Y-77214714D01*
X110608095Y-77214714D01*
X110512857Y-77262333D01*
X110465238Y-77309952D01*
X110417619Y-77405190D01*
X110417619Y-77690904D01*
X110465238Y-77786142D01*
X110512857Y-77833761D01*
X110608095Y-77881380D01*
X110750952Y-77881380D01*
X109989047Y-77881380D02*
X109989047Y-77214714D01*
X109989047Y-77309952D02*
X109941428Y-77262333D01*
X109846190Y-77214714D01*
X109703333Y-77214714D01*
X109608095Y-77262333D01*
X109560476Y-77357571D01*
X109560476Y-77881380D01*
X109560476Y-77357571D02*
X109512857Y-77262333D01*
X109417619Y-77214714D01*
X109274761Y-77214714D01*
X109179523Y-77262333D01*
X109131904Y-77357571D01*
X109131904Y-77881380D01*
X108036666Y-77214714D02*
X107655714Y-77214714D01*
X107893809Y-76881380D02*
X107893809Y-77738523D01*
X107846190Y-77833761D01*
X107750952Y-77881380D01*
X107655714Y-77881380D01*
X107322380Y-77881380D02*
X107322380Y-76881380D01*
X106893809Y-77881380D02*
X106893809Y-77357571D01*
X106941428Y-77262333D01*
X107036666Y-77214714D01*
X107179523Y-77214714D01*
X107274761Y-77262333D01*
X107322380Y-77309952D01*
X106036666Y-77833761D02*
X106131904Y-77881380D01*
X106322380Y-77881380D01*
X106417619Y-77833761D01*
X106465238Y-77738523D01*
X106465238Y-77357571D01*
X106417619Y-77262333D01*
X106322380Y-77214714D01*
X106131904Y-77214714D01*
X106036666Y-77262333D01*
X105989047Y-77357571D01*
X105989047Y-77452809D01*
X106465238Y-77548047D01*
X104846190Y-77595666D02*
X104370000Y-77595666D01*
X104941428Y-77881380D02*
X104608095Y-76881380D01*
X104274761Y-77881380D01*
X103941428Y-77881380D02*
X103941428Y-76881380D01*
X103608095Y-77595666D01*
X103274761Y-76881380D01*
X103274761Y-77881380D01*
X102798571Y-77881380D02*
X102798571Y-76881380D01*
X102417619Y-76881380D01*
X102322380Y-76929000D01*
X102274761Y-76976619D01*
X102227142Y-77071857D01*
X102227142Y-77214714D01*
X102274761Y-77309952D01*
X102322380Y-77357571D01*
X102417619Y-77405190D01*
X102798571Y-77405190D01*
X100608095Y-77833761D02*
X100703333Y-77881380D01*
X100893809Y-77881380D01*
X100989047Y-77833761D01*
X101036666Y-77786142D01*
X101084285Y-77690904D01*
X101084285Y-77405190D01*
X101036666Y-77309952D01*
X100989047Y-77262333D01*
X100893809Y-77214714D01*
X100703333Y-77214714D01*
X100608095Y-77262333D01*
X100036666Y-77881380D02*
X100131904Y-77833761D01*
X100179523Y-77786142D01*
X100227142Y-77690904D01*
X100227142Y-77405190D01*
X100179523Y-77309952D01*
X100131904Y-77262333D01*
X100036666Y-77214714D01*
X99893809Y-77214714D01*
X99798571Y-77262333D01*
X99750952Y-77309952D01*
X99703333Y-77405190D01*
X99703333Y-77690904D01*
X99750952Y-77786142D01*
X99798571Y-77833761D01*
X99893809Y-77881380D01*
X100036666Y-77881380D01*
X99274761Y-77214714D02*
X99274761Y-77881380D01*
X99274761Y-77309952D02*
X99227142Y-77262333D01*
X99131904Y-77214714D01*
X98989047Y-77214714D01*
X98893809Y-77262333D01*
X98846190Y-77357571D01*
X98846190Y-77881380D01*
X98370000Y-77214714D02*
X98370000Y-77881380D01*
X98370000Y-77309952D02*
X98322380Y-77262333D01*
X98227142Y-77214714D01*
X98084285Y-77214714D01*
X97989047Y-77262333D01*
X97941428Y-77357571D01*
X97941428Y-77881380D01*
X97084285Y-77833761D02*
X97179523Y-77881380D01*
X97370000Y-77881380D01*
X97465238Y-77833761D01*
X97512857Y-77738523D01*
X97512857Y-77357571D01*
X97465238Y-77262333D01*
X97370000Y-77214714D01*
X97179523Y-77214714D01*
X97084285Y-77262333D01*
X97036666Y-77357571D01*
X97036666Y-77452809D01*
X97512857Y-77548047D01*
X96179523Y-77833761D02*
X96274761Y-77881380D01*
X96465238Y-77881380D01*
X96560476Y-77833761D01*
X96608095Y-77786142D01*
X96655714Y-77690904D01*
X96655714Y-77405190D01*
X96608095Y-77309952D01*
X96560476Y-77262333D01*
X96465238Y-77214714D01*
X96274761Y-77214714D01*
X96179523Y-77262333D01*
X95893809Y-77214714D02*
X95512857Y-77214714D01*
X95750952Y-76881380D02*
X95750952Y-77738523D01*
X95703333Y-77833761D01*
X95608095Y-77881380D01*
X95512857Y-77881380D01*
X95036666Y-77881380D02*
X95131904Y-77833761D01*
X95179523Y-77786142D01*
X95227142Y-77690904D01*
X95227142Y-77405190D01*
X95179523Y-77309952D01*
X95131904Y-77262333D01*
X95036666Y-77214714D01*
X94893809Y-77214714D01*
X94798571Y-77262333D01*
X94750952Y-77309952D01*
X94703333Y-77405190D01*
X94703333Y-77690904D01*
X94750952Y-77786142D01*
X94798571Y-77833761D01*
X94893809Y-77881380D01*
X95036666Y-77881380D01*
X94274761Y-77881380D02*
X94274761Y-77214714D01*
X94274761Y-77405190D02*
X94227142Y-77309952D01*
X94179523Y-77262333D01*
X94084285Y-77214714D01*
X93989047Y-77214714D01*
X93655714Y-77786142D02*
X93608095Y-77833761D01*
X93655714Y-77881380D01*
X93703333Y-77833761D01*
X93655714Y-77786142D01*
X93655714Y-77881380D01*
%TO.C,G\u002A\u002A\u002A*%
G36*
X84635205Y-77368116D02*
G01*
X84648844Y-77383462D01*
X84665086Y-77402990D01*
X84680908Y-77424148D01*
X84697727Y-77449268D01*
X84716960Y-77480686D01*
X84740023Y-77520733D01*
X84768332Y-77571744D01*
X84803303Y-77636053D01*
X84846354Y-77715993D01*
X84871513Y-77761845D01*
X84910200Y-77828794D01*
X84953009Y-77898673D01*
X85001184Y-77973314D01*
X85055969Y-78054552D01*
X85118606Y-78144217D01*
X85190339Y-78244144D01*
X85272412Y-78356166D01*
X85366068Y-78482115D01*
X85379774Y-78500463D01*
X85439847Y-78581388D01*
X85499568Y-78662591D01*
X85556952Y-78741325D01*
X85610014Y-78814843D01*
X85656769Y-78880399D01*
X85695232Y-78935245D01*
X85723418Y-78976634D01*
X85738312Y-78999231D01*
X85775097Y-79057151D01*
X85800692Y-79101972D01*
X85815981Y-79135963D01*
X85821850Y-79161391D01*
X85819182Y-79180525D01*
X85808864Y-79195632D01*
X85807845Y-79196549D01*
X85788387Y-79203916D01*
X85760926Y-79205284D01*
X85753048Y-79204276D01*
X85739675Y-79200055D01*
X85725192Y-79190844D01*
X85707315Y-79174440D01*
X85683764Y-79148640D01*
X85652256Y-79111241D01*
X85610511Y-79060040D01*
X85566336Y-79005263D01*
X85452223Y-78861935D01*
X85341487Y-78720270D01*
X85236701Y-78583610D01*
X85140438Y-78455299D01*
X85055272Y-78338680D01*
X85039507Y-78316734D01*
X84995997Y-78256204D01*
X84953800Y-78197552D01*
X84915549Y-78144436D01*
X84883878Y-78100512D01*
X84861421Y-78069440D01*
X84844424Y-78044627D01*
X84815764Y-77999550D01*
X84782672Y-77944848D01*
X84748012Y-77885279D01*
X84714648Y-77825600D01*
X84687027Y-77775276D01*
X84657513Y-77722033D01*
X84631406Y-77675474D01*
X84610797Y-77639327D01*
X84597778Y-77617320D01*
X84572475Y-77576680D01*
X84572158Y-77698879D01*
X84571164Y-77757237D01*
X84567555Y-77803711D01*
X84560262Y-77835136D01*
X84548202Y-77854224D01*
X84530294Y-77863688D01*
X84505459Y-77866240D01*
X84476302Y-77861381D01*
X84455718Y-77843360D01*
X84455248Y-77842630D01*
X84441981Y-77809777D01*
X84431711Y-77759064D01*
X84424674Y-77692695D01*
X84421107Y-77612873D01*
X84421244Y-77521801D01*
X84422561Y-77469395D01*
X84424473Y-77423968D01*
X84427263Y-77392084D01*
X84431428Y-77370089D01*
X84437466Y-77354333D01*
X84445875Y-77341164D01*
X84450600Y-77335104D01*
X84466779Y-77320449D01*
X84488580Y-77312917D01*
X84523338Y-77309511D01*
X84579447Y-77306502D01*
X84635205Y-77368116D01*
G37*
D13*
X84635205Y-77368116D02*
X84648844Y-77383462D01*
X84665086Y-77402990D01*
X84680908Y-77424148D01*
X84697727Y-77449268D01*
X84716960Y-77480686D01*
X84740023Y-77520733D01*
X84768332Y-77571744D01*
X84803303Y-77636053D01*
X84846354Y-77715993D01*
X84871513Y-77761845D01*
X84910200Y-77828794D01*
X84953009Y-77898673D01*
X85001184Y-77973314D01*
X85055969Y-78054552D01*
X85118606Y-78144217D01*
X85190339Y-78244144D01*
X85272412Y-78356166D01*
X85366068Y-78482115D01*
X85379774Y-78500463D01*
X85439847Y-78581388D01*
X85499568Y-78662591D01*
X85556952Y-78741325D01*
X85610014Y-78814843D01*
X85656769Y-78880399D01*
X85695232Y-78935245D01*
X85723418Y-78976634D01*
X85738312Y-78999231D01*
X85775097Y-79057151D01*
X85800692Y-79101972D01*
X85815981Y-79135963D01*
X85821850Y-79161391D01*
X85819182Y-79180525D01*
X85808864Y-79195632D01*
X85807845Y-79196549D01*
X85788387Y-79203916D01*
X85760926Y-79205284D01*
X85753048Y-79204276D01*
X85739675Y-79200055D01*
X85725192Y-79190844D01*
X85707315Y-79174440D01*
X85683764Y-79148640D01*
X85652256Y-79111241D01*
X85610511Y-79060040D01*
X85566336Y-79005263D01*
X85452223Y-78861935D01*
X85341487Y-78720270D01*
X85236701Y-78583610D01*
X85140438Y-78455299D01*
X85055272Y-78338680D01*
X85039507Y-78316734D01*
X84995997Y-78256204D01*
X84953800Y-78197552D01*
X84915549Y-78144436D01*
X84883878Y-78100512D01*
X84861421Y-78069440D01*
X84844424Y-78044627D01*
X84815764Y-77999550D01*
X84782672Y-77944848D01*
X84748012Y-77885279D01*
X84714648Y-77825600D01*
X84687027Y-77775276D01*
X84657513Y-77722033D01*
X84631406Y-77675474D01*
X84610797Y-77639327D01*
X84597778Y-77617320D01*
X84572475Y-77576680D01*
X84572158Y-77698879D01*
X84571164Y-77757237D01*
X84567555Y-77803711D01*
X84560262Y-77835136D01*
X84548202Y-77854224D01*
X84530294Y-77863688D01*
X84505459Y-77866240D01*
X84476302Y-77861381D01*
X84455718Y-77843360D01*
X84455248Y-77842630D01*
X84441981Y-77809777D01*
X84431711Y-77759064D01*
X84424674Y-77692695D01*
X84421107Y-77612873D01*
X84421244Y-77521801D01*
X84422561Y-77469395D01*
X84424473Y-77423968D01*
X84427263Y-77392084D01*
X84431428Y-77370089D01*
X84437466Y-77354333D01*
X84445875Y-77341164D01*
X84450600Y-77335104D01*
X84466779Y-77320449D01*
X84488580Y-77312917D01*
X84523338Y-77309511D01*
X84579447Y-77306502D01*
X84635205Y-77368116D01*
G36*
X82772487Y-82187943D02*
G01*
X82791809Y-82196432D01*
X82796173Y-82205958D01*
X82800563Y-82234611D01*
X82803151Y-82281979D01*
X82804000Y-82348832D01*
X82804000Y-82489040D01*
X82903569Y-82489040D01*
X82909275Y-82489051D01*
X82962004Y-82490636D01*
X82997921Y-82494758D01*
X83015329Y-82501232D01*
X83023407Y-82518905D01*
X83027340Y-82549089D01*
X83026638Y-82583200D01*
X83021498Y-82613291D01*
X83012117Y-82631415D01*
X83005417Y-82635258D01*
X82984991Y-82639354D01*
X82951066Y-82639921D01*
X82900357Y-82637126D01*
X82804000Y-82630053D01*
X82804000Y-82995149D01*
X82803990Y-83027327D01*
X82803774Y-83121291D01*
X82803222Y-83197677D01*
X82802253Y-83258588D01*
X82800786Y-83306128D01*
X82798740Y-83342402D01*
X82796036Y-83369513D01*
X82792592Y-83389566D01*
X82788328Y-83404664D01*
X82774915Y-83434598D01*
X82736187Y-83486553D01*
X82683642Y-83528372D01*
X82621186Y-83556507D01*
X82605504Y-83559839D01*
X82567039Y-83563514D01*
X82519527Y-83564792D01*
X82469949Y-83563726D01*
X82425286Y-83560368D01*
X82392520Y-83554773D01*
X82371178Y-83548099D01*
X82338524Y-83530726D01*
X82321327Y-83506301D01*
X82316320Y-83471245D01*
X82319367Y-83439622D01*
X82333228Y-83411143D01*
X82359397Y-83396923D01*
X82399078Y-83396416D01*
X82453480Y-83409074D01*
X82481141Y-83416419D01*
X82512801Y-83419201D01*
X82544920Y-83413348D01*
X82556099Y-83410094D01*
X82591597Y-83395625D01*
X82616167Y-83375011D01*
X82637339Y-83342480D01*
X82637838Y-83341554D01*
X82643044Y-83330369D01*
X82647243Y-83316835D01*
X82650571Y-83298706D01*
X82653160Y-83273735D01*
X82655146Y-83239677D01*
X82656662Y-83194285D01*
X82657843Y-83135312D01*
X82658823Y-83060512D01*
X82659736Y-82967639D01*
X82662791Y-82628358D01*
X82529544Y-82635602D01*
X82519527Y-82636133D01*
X82461385Y-82638461D01*
X82420652Y-82638391D01*
X82394902Y-82635844D01*
X82381708Y-82630738D01*
X82373013Y-82613776D01*
X82368086Y-82584290D01*
X82367396Y-82550437D01*
X82371089Y-82520118D01*
X82379312Y-82501232D01*
X82387142Y-82497335D01*
X82414632Y-82492692D01*
X82461105Y-82489944D01*
X82527189Y-82489040D01*
X82662873Y-82489040D01*
X82655773Y-82352145D01*
X82654264Y-82320758D01*
X82652696Y-82269431D01*
X82653314Y-82234066D01*
X82656226Y-82211794D01*
X82661541Y-82199745D01*
X82678071Y-82190794D01*
X82707665Y-82185327D01*
X82741788Y-82184309D01*
X82772487Y-82187943D01*
G37*
X82772487Y-82187943D02*
X82791809Y-82196432D01*
X82796173Y-82205958D01*
X82800563Y-82234611D01*
X82803151Y-82281979D01*
X82804000Y-82348832D01*
X82804000Y-82489040D01*
X82903569Y-82489040D01*
X82909275Y-82489051D01*
X82962004Y-82490636D01*
X82997921Y-82494758D01*
X83015329Y-82501232D01*
X83023407Y-82518905D01*
X83027340Y-82549089D01*
X83026638Y-82583200D01*
X83021498Y-82613291D01*
X83012117Y-82631415D01*
X83005417Y-82635258D01*
X82984991Y-82639354D01*
X82951066Y-82639921D01*
X82900357Y-82637126D01*
X82804000Y-82630053D01*
X82804000Y-82995149D01*
X82803990Y-83027327D01*
X82803774Y-83121291D01*
X82803222Y-83197677D01*
X82802253Y-83258588D01*
X82800786Y-83306128D01*
X82798740Y-83342402D01*
X82796036Y-83369513D01*
X82792592Y-83389566D01*
X82788328Y-83404664D01*
X82774915Y-83434598D01*
X82736187Y-83486553D01*
X82683642Y-83528372D01*
X82621186Y-83556507D01*
X82605504Y-83559839D01*
X82567039Y-83563514D01*
X82519527Y-83564792D01*
X82469949Y-83563726D01*
X82425286Y-83560368D01*
X82392520Y-83554773D01*
X82371178Y-83548099D01*
X82338524Y-83530726D01*
X82321327Y-83506301D01*
X82316320Y-83471245D01*
X82319367Y-83439622D01*
X82333228Y-83411143D01*
X82359397Y-83396923D01*
X82399078Y-83396416D01*
X82453480Y-83409074D01*
X82481141Y-83416419D01*
X82512801Y-83419201D01*
X82544920Y-83413348D01*
X82556099Y-83410094D01*
X82591597Y-83395625D01*
X82616167Y-83375011D01*
X82637339Y-83342480D01*
X82637838Y-83341554D01*
X82643044Y-83330369D01*
X82647243Y-83316835D01*
X82650571Y-83298706D01*
X82653160Y-83273735D01*
X82655146Y-83239677D01*
X82656662Y-83194285D01*
X82657843Y-83135312D01*
X82658823Y-83060512D01*
X82659736Y-82967639D01*
X82662791Y-82628358D01*
X82529544Y-82635602D01*
X82519527Y-82636133D01*
X82461385Y-82638461D01*
X82420652Y-82638391D01*
X82394902Y-82635844D01*
X82381708Y-82630738D01*
X82373013Y-82613776D01*
X82368086Y-82584290D01*
X82367396Y-82550437D01*
X82371089Y-82520118D01*
X82379312Y-82501232D01*
X82387142Y-82497335D01*
X82414632Y-82492692D01*
X82461105Y-82489944D01*
X82527189Y-82489040D01*
X82662873Y-82489040D01*
X82655773Y-82352145D01*
X82654264Y-82320758D01*
X82652696Y-82269431D01*
X82653314Y-82234066D01*
X82656226Y-82211794D01*
X82661541Y-82199745D01*
X82678071Y-82190794D01*
X82707665Y-82185327D01*
X82741788Y-82184309D01*
X82772487Y-82187943D01*
G36*
X87743004Y-76781781D02*
G01*
X87743989Y-76806773D01*
X87744899Y-76837457D01*
X87745736Y-76874444D01*
X87746504Y-76918343D01*
X87747207Y-76969764D01*
X87747845Y-77029315D01*
X87748424Y-77097607D01*
X87748945Y-77175248D01*
X87749412Y-77262849D01*
X87749827Y-77361018D01*
X87750195Y-77470366D01*
X87750516Y-77591501D01*
X87750795Y-77725033D01*
X87751035Y-77871572D01*
X87751238Y-78031727D01*
X87751408Y-78206107D01*
X87751548Y-78395322D01*
X87751659Y-78599982D01*
X87751746Y-78820695D01*
X87751812Y-79058072D01*
X87751859Y-79312721D01*
X87751890Y-79585252D01*
X87751909Y-79876275D01*
X87751918Y-80186399D01*
X87751920Y-80516234D01*
X87751917Y-80807472D01*
X87751904Y-81120867D01*
X87751878Y-81415078D01*
X87751836Y-81690709D01*
X87751777Y-81948365D01*
X87751696Y-82188651D01*
X87751592Y-82412171D01*
X87751462Y-82619531D01*
X87751303Y-82811336D01*
X87751113Y-82988189D01*
X87750888Y-83150697D01*
X87750627Y-83299463D01*
X87750326Y-83435093D01*
X87749983Y-83558191D01*
X87749595Y-83669362D01*
X87749160Y-83769211D01*
X87748674Y-83858343D01*
X87748136Y-83937363D01*
X87747541Y-84006875D01*
X87746889Y-84067484D01*
X87746176Y-84119796D01*
X87745399Y-84164414D01*
X87744556Y-84201944D01*
X87743644Y-84232990D01*
X87742660Y-84258158D01*
X87741603Y-84278051D01*
X87740468Y-84293276D01*
X87739253Y-84304436D01*
X87737957Y-84312137D01*
X87736575Y-84316983D01*
X87735106Y-84319579D01*
X87734792Y-84319911D01*
X87732489Y-84321672D01*
X87728726Y-84323316D01*
X87722831Y-84324847D01*
X87714129Y-84326269D01*
X87701947Y-84327586D01*
X87685612Y-84328802D01*
X87664450Y-84329922D01*
X87637787Y-84330948D01*
X87604949Y-84331886D01*
X87565264Y-84332739D01*
X87518057Y-84333511D01*
X87462655Y-84334207D01*
X87398385Y-84334829D01*
X87324572Y-84335383D01*
X87240543Y-84335872D01*
X87145624Y-84336300D01*
X87039143Y-84336671D01*
X86920424Y-84336990D01*
X86788796Y-84337260D01*
X86643583Y-84337485D01*
X86484113Y-84337669D01*
X86309711Y-84337817D01*
X86119705Y-84337932D01*
X85913421Y-84338018D01*
X85690184Y-84338080D01*
X85449322Y-84338121D01*
X85190160Y-84338145D01*
X84912026Y-84338157D01*
X84614246Y-84338160D01*
X84334558Y-84338155D01*
X84054334Y-84338137D01*
X83793137Y-84338103D01*
X83550298Y-84338049D01*
X83325149Y-84337971D01*
X83117022Y-84337865D01*
X82925247Y-84337729D01*
X82749156Y-84337558D01*
X82588082Y-84337349D01*
X82441355Y-84337099D01*
X82308307Y-84336803D01*
X82188269Y-84336458D01*
X82080574Y-84336060D01*
X81984552Y-84335606D01*
X81899535Y-84335093D01*
X81824855Y-84334516D01*
X81759842Y-84333873D01*
X81703830Y-84333158D01*
X81656148Y-84332370D01*
X81616130Y-84331504D01*
X81583105Y-84330556D01*
X81556407Y-84329524D01*
X81535365Y-84328403D01*
X81519313Y-84327190D01*
X81507580Y-84325881D01*
X81499500Y-84324473D01*
X81494403Y-84322962D01*
X81491621Y-84321345D01*
X81491208Y-84320947D01*
X81489614Y-84318742D01*
X81488115Y-84315110D01*
X81486709Y-84309442D01*
X81485393Y-84301129D01*
X81484165Y-84289559D01*
X81483021Y-84274126D01*
X81481957Y-84254218D01*
X81480972Y-84229226D01*
X81480062Y-84198542D01*
X81479225Y-84161555D01*
X81478457Y-84117656D01*
X81477754Y-84066235D01*
X81477116Y-84006684D01*
X81476537Y-83938392D01*
X81476016Y-83860751D01*
X81475549Y-83773150D01*
X81475134Y-83674981D01*
X81474766Y-83565633D01*
X81474445Y-83444498D01*
X81474166Y-83310966D01*
X81473926Y-83164427D01*
X81473723Y-83004272D01*
X81473553Y-82829892D01*
X81473413Y-82640677D01*
X81473302Y-82436017D01*
X81473215Y-82215304D01*
X81473149Y-81977927D01*
X81473102Y-81723278D01*
X81473071Y-81450747D01*
X81473052Y-81159724D01*
X81473043Y-80849600D01*
X81473040Y-80519765D01*
X81473044Y-80228527D01*
X81473057Y-79915132D01*
X81473083Y-79620921D01*
X81473125Y-79345290D01*
X81473184Y-79087634D01*
X81473265Y-78847348D01*
X81473369Y-78623828D01*
X81473499Y-78416468D01*
X81473658Y-78224663D01*
X81473848Y-78047810D01*
X81474073Y-77885302D01*
X81474334Y-77736536D01*
X81474635Y-77600906D01*
X81474978Y-77477808D01*
X81475366Y-77366637D01*
X81475801Y-77266788D01*
X81476287Y-77177656D01*
X81476825Y-77098636D01*
X81477420Y-77029124D01*
X81478072Y-76968515D01*
X81478785Y-76916203D01*
X81479562Y-76871585D01*
X81480405Y-76834055D01*
X81481317Y-76803009D01*
X81482301Y-76777841D01*
X81483313Y-76758800D01*
X81534000Y-76758800D01*
X81534000Y-84277200D01*
X87690960Y-84277200D01*
X87690960Y-76758800D01*
X81534000Y-76758800D01*
X81483313Y-76758800D01*
X81483358Y-76757948D01*
X81484493Y-76742723D01*
X81485708Y-76731563D01*
X81487004Y-76723862D01*
X81488386Y-76719016D01*
X81489855Y-76716420D01*
X81490169Y-76716088D01*
X81492472Y-76714327D01*
X81496235Y-76712683D01*
X81502130Y-76711152D01*
X81510832Y-76709730D01*
X81523014Y-76708413D01*
X81539349Y-76707197D01*
X81560511Y-76706077D01*
X81587174Y-76705051D01*
X81620012Y-76704113D01*
X81659697Y-76703260D01*
X81706904Y-76702488D01*
X81762306Y-76701792D01*
X81826576Y-76701170D01*
X81900389Y-76700616D01*
X81984418Y-76700127D01*
X82079337Y-76699699D01*
X82185818Y-76699328D01*
X82304537Y-76699009D01*
X82436165Y-76698739D01*
X82581378Y-76698514D01*
X82740848Y-76698330D01*
X82915250Y-76698182D01*
X83105256Y-76698067D01*
X83311540Y-76697981D01*
X83534777Y-76697919D01*
X83775639Y-76697878D01*
X84034801Y-76697854D01*
X84312935Y-76697842D01*
X84610715Y-76697840D01*
X84890403Y-76697844D01*
X85170627Y-76697862D01*
X85431824Y-76697896D01*
X85674663Y-76697950D01*
X85899812Y-76698028D01*
X86107939Y-76698134D01*
X86299714Y-76698270D01*
X86475805Y-76698441D01*
X86636879Y-76698650D01*
X86783606Y-76698900D01*
X86916654Y-76699196D01*
X87036692Y-76699541D01*
X87144387Y-76699939D01*
X87240409Y-76700393D01*
X87325426Y-76700906D01*
X87400106Y-76701483D01*
X87465119Y-76702126D01*
X87521131Y-76702841D01*
X87568813Y-76703629D01*
X87608831Y-76704495D01*
X87641856Y-76705443D01*
X87668554Y-76706475D01*
X87689596Y-76707596D01*
X87705648Y-76708809D01*
X87717381Y-76710118D01*
X87725461Y-76711526D01*
X87730558Y-76713037D01*
X87733340Y-76714654D01*
X87733753Y-76715052D01*
X87735347Y-76717257D01*
X87736846Y-76720889D01*
X87738252Y-76726557D01*
X87739568Y-76734870D01*
X87740796Y-76746440D01*
X87741713Y-76758800D01*
X87741940Y-76761873D01*
X87743004Y-76781781D01*
G37*
X87743004Y-76781781D02*
X87743989Y-76806773D01*
X87744899Y-76837457D01*
X87745736Y-76874444D01*
X87746504Y-76918343D01*
X87747207Y-76969764D01*
X87747845Y-77029315D01*
X87748424Y-77097607D01*
X87748945Y-77175248D01*
X87749412Y-77262849D01*
X87749827Y-77361018D01*
X87750195Y-77470366D01*
X87750516Y-77591501D01*
X87750795Y-77725033D01*
X87751035Y-77871572D01*
X87751238Y-78031727D01*
X87751408Y-78206107D01*
X87751548Y-78395322D01*
X87751659Y-78599982D01*
X87751746Y-78820695D01*
X87751812Y-79058072D01*
X87751859Y-79312721D01*
X87751890Y-79585252D01*
X87751909Y-79876275D01*
X87751918Y-80186399D01*
X87751920Y-80516234D01*
X87751917Y-80807472D01*
X87751904Y-81120867D01*
X87751878Y-81415078D01*
X87751836Y-81690709D01*
X87751777Y-81948365D01*
X87751696Y-82188651D01*
X87751592Y-82412171D01*
X87751462Y-82619531D01*
X87751303Y-82811336D01*
X87751113Y-82988189D01*
X87750888Y-83150697D01*
X87750627Y-83299463D01*
X87750326Y-83435093D01*
X87749983Y-83558191D01*
X87749595Y-83669362D01*
X87749160Y-83769211D01*
X87748674Y-83858343D01*
X87748136Y-83937363D01*
X87747541Y-84006875D01*
X87746889Y-84067484D01*
X87746176Y-84119796D01*
X87745399Y-84164414D01*
X87744556Y-84201944D01*
X87743644Y-84232990D01*
X87742660Y-84258158D01*
X87741603Y-84278051D01*
X87740468Y-84293276D01*
X87739253Y-84304436D01*
X87737957Y-84312137D01*
X87736575Y-84316983D01*
X87735106Y-84319579D01*
X87734792Y-84319911D01*
X87732489Y-84321672D01*
X87728726Y-84323316D01*
X87722831Y-84324847D01*
X87714129Y-84326269D01*
X87701947Y-84327586D01*
X87685612Y-84328802D01*
X87664450Y-84329922D01*
X87637787Y-84330948D01*
X87604949Y-84331886D01*
X87565264Y-84332739D01*
X87518057Y-84333511D01*
X87462655Y-84334207D01*
X87398385Y-84334829D01*
X87324572Y-84335383D01*
X87240543Y-84335872D01*
X87145624Y-84336300D01*
X87039143Y-84336671D01*
X86920424Y-84336990D01*
X86788796Y-84337260D01*
X86643583Y-84337485D01*
X86484113Y-84337669D01*
X86309711Y-84337817D01*
X86119705Y-84337932D01*
X85913421Y-84338018D01*
X85690184Y-84338080D01*
X85449322Y-84338121D01*
X85190160Y-84338145D01*
X84912026Y-84338157D01*
X84614246Y-84338160D01*
X84334558Y-84338155D01*
X84054334Y-84338137D01*
X83793137Y-84338103D01*
X83550298Y-84338049D01*
X83325149Y-84337971D01*
X83117022Y-84337865D01*
X82925247Y-84337729D01*
X82749156Y-84337558D01*
X82588082Y-84337349D01*
X82441355Y-84337099D01*
X82308307Y-84336803D01*
X82188269Y-84336458D01*
X82080574Y-84336060D01*
X81984552Y-84335606D01*
X81899535Y-84335093D01*
X81824855Y-84334516D01*
X81759842Y-84333873D01*
X81703830Y-84333158D01*
X81656148Y-84332370D01*
X81616130Y-84331504D01*
X81583105Y-84330556D01*
X81556407Y-84329524D01*
X81535365Y-84328403D01*
X81519313Y-84327190D01*
X81507580Y-84325881D01*
X81499500Y-84324473D01*
X81494403Y-84322962D01*
X81491621Y-84321345D01*
X81491208Y-84320947D01*
X81489614Y-84318742D01*
X81488115Y-84315110D01*
X81486709Y-84309442D01*
X81485393Y-84301129D01*
X81484165Y-84289559D01*
X81483021Y-84274126D01*
X81481957Y-84254218D01*
X81480972Y-84229226D01*
X81480062Y-84198542D01*
X81479225Y-84161555D01*
X81478457Y-84117656D01*
X81477754Y-84066235D01*
X81477116Y-84006684D01*
X81476537Y-83938392D01*
X81476016Y-83860751D01*
X81475549Y-83773150D01*
X81475134Y-83674981D01*
X81474766Y-83565633D01*
X81474445Y-83444498D01*
X81474166Y-83310966D01*
X81473926Y-83164427D01*
X81473723Y-83004272D01*
X81473553Y-82829892D01*
X81473413Y-82640677D01*
X81473302Y-82436017D01*
X81473215Y-82215304D01*
X81473149Y-81977927D01*
X81473102Y-81723278D01*
X81473071Y-81450747D01*
X81473052Y-81159724D01*
X81473043Y-80849600D01*
X81473040Y-80519765D01*
X81473044Y-80228527D01*
X81473057Y-79915132D01*
X81473083Y-79620921D01*
X81473125Y-79345290D01*
X81473184Y-79087634D01*
X81473265Y-78847348D01*
X81473369Y-78623828D01*
X81473499Y-78416468D01*
X81473658Y-78224663D01*
X81473848Y-78047810D01*
X81474073Y-77885302D01*
X81474334Y-77736536D01*
X81474635Y-77600906D01*
X81474978Y-77477808D01*
X81475366Y-77366637D01*
X81475801Y-77266788D01*
X81476287Y-77177656D01*
X81476825Y-77098636D01*
X81477420Y-77029124D01*
X81478072Y-76968515D01*
X81478785Y-76916203D01*
X81479562Y-76871585D01*
X81480405Y-76834055D01*
X81481317Y-76803009D01*
X81482301Y-76777841D01*
X81483313Y-76758800D01*
X81534000Y-76758800D01*
X81534000Y-84277200D01*
X87690960Y-84277200D01*
X87690960Y-76758800D01*
X81534000Y-76758800D01*
X81483313Y-76758800D01*
X81483358Y-76757948D01*
X81484493Y-76742723D01*
X81485708Y-76731563D01*
X81487004Y-76723862D01*
X81488386Y-76719016D01*
X81489855Y-76716420D01*
X81490169Y-76716088D01*
X81492472Y-76714327D01*
X81496235Y-76712683D01*
X81502130Y-76711152D01*
X81510832Y-76709730D01*
X81523014Y-76708413D01*
X81539349Y-76707197D01*
X81560511Y-76706077D01*
X81587174Y-76705051D01*
X81620012Y-76704113D01*
X81659697Y-76703260D01*
X81706904Y-76702488D01*
X81762306Y-76701792D01*
X81826576Y-76701170D01*
X81900389Y-76700616D01*
X81984418Y-76700127D01*
X82079337Y-76699699D01*
X82185818Y-76699328D01*
X82304537Y-76699009D01*
X82436165Y-76698739D01*
X82581378Y-76698514D01*
X82740848Y-76698330D01*
X82915250Y-76698182D01*
X83105256Y-76698067D01*
X83311540Y-76697981D01*
X83534777Y-76697919D01*
X83775639Y-76697878D01*
X84034801Y-76697854D01*
X84312935Y-76697842D01*
X84610715Y-76697840D01*
X84890403Y-76697844D01*
X85170627Y-76697862D01*
X85431824Y-76697896D01*
X85674663Y-76697950D01*
X85899812Y-76698028D01*
X86107939Y-76698134D01*
X86299714Y-76698270D01*
X86475805Y-76698441D01*
X86636879Y-76698650D01*
X86783606Y-76698900D01*
X86916654Y-76699196D01*
X87036692Y-76699541D01*
X87144387Y-76699939D01*
X87240409Y-76700393D01*
X87325426Y-76700906D01*
X87400106Y-76701483D01*
X87465119Y-76702126D01*
X87521131Y-76702841D01*
X87568813Y-76703629D01*
X87608831Y-76704495D01*
X87641856Y-76705443D01*
X87668554Y-76706475D01*
X87689596Y-76707596D01*
X87705648Y-76708809D01*
X87717381Y-76710118D01*
X87725461Y-76711526D01*
X87730558Y-76713037D01*
X87733340Y-76714654D01*
X87733753Y-76715052D01*
X87735347Y-76717257D01*
X87736846Y-76720889D01*
X87738252Y-76726557D01*
X87739568Y-76734870D01*
X87740796Y-76746440D01*
X87741713Y-76758800D01*
X87741940Y-76761873D01*
X87743004Y-76781781D01*
G36*
X85310134Y-80988746D02*
G01*
X85311723Y-80991802D01*
X85303360Y-80995520D01*
X85297982Y-80994786D01*
X85296587Y-80988746D01*
X85298076Y-80987530D01*
X85310134Y-80988746D01*
G37*
X85310134Y-80988746D02*
X85311723Y-80991802D01*
X85303360Y-80995520D01*
X85297982Y-80994786D01*
X85296587Y-80988746D01*
X85298076Y-80987530D01*
X85310134Y-80988746D01*
G36*
X83136124Y-77074110D02*
G01*
X83175834Y-77086666D01*
X83221719Y-77116294D01*
X83272090Y-77161719D01*
X83325258Y-77221668D01*
X83334887Y-77233921D01*
X83347330Y-77251105D01*
X83360502Y-77271264D01*
X83375297Y-77296105D01*
X83392611Y-77327333D01*
X83413338Y-77366652D01*
X83438372Y-77415769D01*
X83468609Y-77476389D01*
X83504944Y-77550217D01*
X83548271Y-77638959D01*
X83599485Y-77744320D01*
X83616206Y-77778025D01*
X83646108Y-77835277D01*
X83675537Y-77888317D01*
X83701823Y-77932395D01*
X83722295Y-77962760D01*
X83729486Y-77972474D01*
X83757510Y-78018880D01*
X83769506Y-78057017D01*
X83765569Y-78085713D01*
X83745796Y-78103792D01*
X83710281Y-78110080D01*
X83708399Y-78110064D01*
X83692007Y-78107902D01*
X83675237Y-78100396D01*
X83654778Y-78085115D01*
X83627313Y-78059628D01*
X83589530Y-78021504D01*
X83587205Y-78019111D01*
X83539969Y-77967851D01*
X83500504Y-77918410D01*
X83466238Y-77866491D01*
X83434599Y-77807796D01*
X83403015Y-77738024D01*
X83368912Y-77652880D01*
X83340283Y-77580380D01*
X83303262Y-77492984D01*
X83269011Y-77419571D01*
X83238228Y-77361531D01*
X83211615Y-77320253D01*
X83189869Y-77297129D01*
X83160666Y-77276335D01*
X83128609Y-77380787D01*
X83101529Y-77466634D01*
X83052349Y-77609370D01*
X83002293Y-77736294D01*
X82949870Y-77850285D01*
X82893589Y-77954225D01*
X82831960Y-78050993D01*
X82763490Y-78143471D01*
X82686689Y-78234540D01*
X82658977Y-78265382D01*
X82626955Y-78299755D01*
X82603442Y-78322471D01*
X82585685Y-78335837D01*
X82570930Y-78342164D01*
X82556423Y-78343760D01*
X82526130Y-78339324D01*
X82505677Y-78322410D01*
X82499200Y-78291517D01*
X82499647Y-78286919D01*
X82505118Y-78270633D01*
X82517543Y-78246660D01*
X82537843Y-78213609D01*
X82566936Y-78170086D01*
X82605742Y-78114699D01*
X82655180Y-78046055D01*
X82716169Y-77962760D01*
X82729421Y-77944452D01*
X82753513Y-77908844D01*
X82775255Y-77872499D01*
X82795589Y-77833053D01*
X82815456Y-77788143D01*
X82835797Y-77735403D01*
X82857555Y-77672471D01*
X82881670Y-77596982D01*
X82909083Y-77506573D01*
X82940737Y-77398880D01*
X82966348Y-77316996D01*
X82998963Y-77229270D01*
X83031773Y-77158775D01*
X83064131Y-77107040D01*
X83078544Y-77090204D01*
X83099711Y-77077013D01*
X83129257Y-77073760D01*
X83136124Y-77074110D01*
G37*
X83136124Y-77074110D02*
X83175834Y-77086666D01*
X83221719Y-77116294D01*
X83272090Y-77161719D01*
X83325258Y-77221668D01*
X83334887Y-77233921D01*
X83347330Y-77251105D01*
X83360502Y-77271264D01*
X83375297Y-77296105D01*
X83392611Y-77327333D01*
X83413338Y-77366652D01*
X83438372Y-77415769D01*
X83468609Y-77476389D01*
X83504944Y-77550217D01*
X83548271Y-77638959D01*
X83599485Y-77744320D01*
X83616206Y-77778025D01*
X83646108Y-77835277D01*
X83675537Y-77888317D01*
X83701823Y-77932395D01*
X83722295Y-77962760D01*
X83729486Y-77972474D01*
X83757510Y-78018880D01*
X83769506Y-78057017D01*
X83765569Y-78085713D01*
X83745796Y-78103792D01*
X83710281Y-78110080D01*
X83708399Y-78110064D01*
X83692007Y-78107902D01*
X83675237Y-78100396D01*
X83654778Y-78085115D01*
X83627313Y-78059628D01*
X83589530Y-78021504D01*
X83587205Y-78019111D01*
X83539969Y-77967851D01*
X83500504Y-77918410D01*
X83466238Y-77866491D01*
X83434599Y-77807796D01*
X83403015Y-77738024D01*
X83368912Y-77652880D01*
X83340283Y-77580380D01*
X83303262Y-77492984D01*
X83269011Y-77419571D01*
X83238228Y-77361531D01*
X83211615Y-77320253D01*
X83189869Y-77297129D01*
X83160666Y-77276335D01*
X83128609Y-77380787D01*
X83101529Y-77466634D01*
X83052349Y-77609370D01*
X83002293Y-77736294D01*
X82949870Y-77850285D01*
X82893589Y-77954225D01*
X82831960Y-78050993D01*
X82763490Y-78143471D01*
X82686689Y-78234540D01*
X82658977Y-78265382D01*
X82626955Y-78299755D01*
X82603442Y-78322471D01*
X82585685Y-78335837D01*
X82570930Y-78342164D01*
X82556423Y-78343760D01*
X82526130Y-78339324D01*
X82505677Y-78322410D01*
X82499200Y-78291517D01*
X82499647Y-78286919D01*
X82505118Y-78270633D01*
X82517543Y-78246660D01*
X82537843Y-78213609D01*
X82566936Y-78170086D01*
X82605742Y-78114699D01*
X82655180Y-78046055D01*
X82716169Y-77962760D01*
X82729421Y-77944452D01*
X82753513Y-77908844D01*
X82775255Y-77872499D01*
X82795589Y-77833053D01*
X82815456Y-77788143D01*
X82835797Y-77735403D01*
X82857555Y-77672471D01*
X82881670Y-77596982D01*
X82909083Y-77506573D01*
X82940737Y-77398880D01*
X82966348Y-77316996D01*
X82998963Y-77229270D01*
X83031773Y-77158775D01*
X83064131Y-77107040D01*
X83078544Y-77090204D01*
X83099711Y-77077013D01*
X83129257Y-77073760D01*
X83136124Y-77074110D01*
G36*
X83908656Y-83314128D02*
G01*
X83900096Y-83368376D01*
X83887852Y-83402088D01*
X83853559Y-83453813D01*
X83804603Y-83498564D01*
X83744414Y-83533470D01*
X83676422Y-83555658D01*
X83661118Y-83557997D01*
X83622968Y-83560981D01*
X83575429Y-83562470D01*
X83525360Y-83562168D01*
X83511531Y-83561721D01*
X83441006Y-83555757D01*
X83383490Y-83542803D01*
X83333267Y-83521123D01*
X83284620Y-83488978D01*
X83251040Y-83463365D01*
X83251040Y-83492330D01*
X83247898Y-83514833D01*
X83238848Y-83533488D01*
X83237965Y-83534288D01*
X83218871Y-83541602D01*
X83189031Y-83545097D01*
X83156125Y-83544805D01*
X83127837Y-83540755D01*
X83111848Y-83532980D01*
X83110053Y-83524782D01*
X83108183Y-83497024D01*
X83106923Y-83451237D01*
X83106286Y-83388724D01*
X83106282Y-83310790D01*
X83106924Y-83218741D01*
X83108069Y-83126198D01*
X83251040Y-83126198D01*
X83251267Y-83144003D01*
X83256466Y-83197590D01*
X83270668Y-83241755D01*
X83296694Y-83283100D01*
X83337364Y-83328227D01*
X83344585Y-83335340D01*
X83392010Y-83373617D01*
X83439326Y-83395963D01*
X83443984Y-83397420D01*
X83504781Y-83412949D01*
X83555858Y-83417917D01*
X83603926Y-83413018D01*
X83656089Y-83398560D01*
X83705414Y-83372750D01*
X83737464Y-83338858D01*
X83758831Y-83289573D01*
X83763196Y-83237663D01*
X83749059Y-83188900D01*
X83717361Y-83145126D01*
X83669044Y-83108183D01*
X83605050Y-83079912D01*
X83566000Y-83069330D01*
X83509722Y-83058288D01*
X83448216Y-83049469D01*
X83387703Y-83043600D01*
X83334407Y-83041409D01*
X83294550Y-83043622D01*
X83251040Y-83050147D01*
X83251040Y-83126198D01*
X83108069Y-83126198D01*
X83108221Y-83113880D01*
X83109204Y-83047712D01*
X83110635Y-82957677D01*
X83112018Y-82884547D01*
X83113486Y-82826228D01*
X83115174Y-82780624D01*
X83117215Y-82745640D01*
X83119743Y-82719181D01*
X83122892Y-82699150D01*
X83126795Y-82683454D01*
X83131586Y-82669995D01*
X83137399Y-82656680D01*
X83169465Y-82602200D01*
X83221706Y-82547180D01*
X83285509Y-82507464D01*
X83299792Y-82501299D01*
X83322123Y-82493625D01*
X83346776Y-82488614D01*
X83378247Y-82485727D01*
X83421036Y-82484422D01*
X83479640Y-82484161D01*
X83533635Y-82484441D01*
X83576649Y-82485595D01*
X83608194Y-82488242D01*
X83632869Y-82493007D01*
X83655269Y-82500514D01*
X83679992Y-82511389D01*
X83708982Y-82527098D01*
X83751929Y-82555816D01*
X83789212Y-82586254D01*
X83822176Y-82622546D01*
X83839530Y-82658055D01*
X83838398Y-82691930D01*
X83819263Y-82726429D01*
X83794916Y-82747851D01*
X83764703Y-82753405D01*
X83729266Y-82740480D01*
X83687369Y-82708913D01*
X83679064Y-82701676D01*
X83628139Y-82667040D01*
X83566263Y-82641524D01*
X83528153Y-82630890D01*
X83470168Y-82623755D01*
X83415907Y-82631142D01*
X83358337Y-82653456D01*
X83332247Y-82669805D01*
X83295102Y-82711572D01*
X83269093Y-82769328D01*
X83254756Y-82842100D01*
X83248146Y-82905600D01*
X83384213Y-82905954D01*
X83453571Y-82907369D01*
X83562310Y-82915879D01*
X83652761Y-82932029D01*
X83724638Y-82955776D01*
X83745685Y-82966341D01*
X83794924Y-83000288D01*
X83839772Y-83042865D01*
X83875294Y-83088970D01*
X83896558Y-83133504D01*
X83897087Y-83135318D01*
X83907011Y-83188278D01*
X83910085Y-83237663D01*
X83910914Y-83250988D01*
X83908656Y-83314128D01*
G37*
X83908656Y-83314128D02*
X83900096Y-83368376D01*
X83887852Y-83402088D01*
X83853559Y-83453813D01*
X83804603Y-83498564D01*
X83744414Y-83533470D01*
X83676422Y-83555658D01*
X83661118Y-83557997D01*
X83622968Y-83560981D01*
X83575429Y-83562470D01*
X83525360Y-83562168D01*
X83511531Y-83561721D01*
X83441006Y-83555757D01*
X83383490Y-83542803D01*
X83333267Y-83521123D01*
X83284620Y-83488978D01*
X83251040Y-83463365D01*
X83251040Y-83492330D01*
X83247898Y-83514833D01*
X83238848Y-83533488D01*
X83237965Y-83534288D01*
X83218871Y-83541602D01*
X83189031Y-83545097D01*
X83156125Y-83544805D01*
X83127837Y-83540755D01*
X83111848Y-83532980D01*
X83110053Y-83524782D01*
X83108183Y-83497024D01*
X83106923Y-83451237D01*
X83106286Y-83388724D01*
X83106282Y-83310790D01*
X83106924Y-83218741D01*
X83108069Y-83126198D01*
X83251040Y-83126198D01*
X83251267Y-83144003D01*
X83256466Y-83197590D01*
X83270668Y-83241755D01*
X83296694Y-83283100D01*
X83337364Y-83328227D01*
X83344585Y-83335340D01*
X83392010Y-83373617D01*
X83439326Y-83395963D01*
X83443984Y-83397420D01*
X83504781Y-83412949D01*
X83555858Y-83417917D01*
X83603926Y-83413018D01*
X83656089Y-83398560D01*
X83705414Y-83372750D01*
X83737464Y-83338858D01*
X83758831Y-83289573D01*
X83763196Y-83237663D01*
X83749059Y-83188900D01*
X83717361Y-83145126D01*
X83669044Y-83108183D01*
X83605050Y-83079912D01*
X83566000Y-83069330D01*
X83509722Y-83058288D01*
X83448216Y-83049469D01*
X83387703Y-83043600D01*
X83334407Y-83041409D01*
X83294550Y-83043622D01*
X83251040Y-83050147D01*
X83251040Y-83126198D01*
X83108069Y-83126198D01*
X83108221Y-83113880D01*
X83109204Y-83047712D01*
X83110635Y-82957677D01*
X83112018Y-82884547D01*
X83113486Y-82826228D01*
X83115174Y-82780624D01*
X83117215Y-82745640D01*
X83119743Y-82719181D01*
X83122892Y-82699150D01*
X83126795Y-82683454D01*
X83131586Y-82669995D01*
X83137399Y-82656680D01*
X83169465Y-82602200D01*
X83221706Y-82547180D01*
X83285509Y-82507464D01*
X83299792Y-82501299D01*
X83322123Y-82493625D01*
X83346776Y-82488614D01*
X83378247Y-82485727D01*
X83421036Y-82484422D01*
X83479640Y-82484161D01*
X83533635Y-82484441D01*
X83576649Y-82485595D01*
X83608194Y-82488242D01*
X83632869Y-82493007D01*
X83655269Y-82500514D01*
X83679992Y-82511389D01*
X83708982Y-82527098D01*
X83751929Y-82555816D01*
X83789212Y-82586254D01*
X83822176Y-82622546D01*
X83839530Y-82658055D01*
X83838398Y-82691930D01*
X83819263Y-82726429D01*
X83794916Y-82747851D01*
X83764703Y-82753405D01*
X83729266Y-82740480D01*
X83687369Y-82708913D01*
X83679064Y-82701676D01*
X83628139Y-82667040D01*
X83566263Y-82641524D01*
X83528153Y-82630890D01*
X83470168Y-82623755D01*
X83415907Y-82631142D01*
X83358337Y-82653456D01*
X83332247Y-82669805D01*
X83295102Y-82711572D01*
X83269093Y-82769328D01*
X83254756Y-82842100D01*
X83248146Y-82905600D01*
X83384213Y-82905954D01*
X83453571Y-82907369D01*
X83562310Y-82915879D01*
X83652761Y-82932029D01*
X83724638Y-82955776D01*
X83745685Y-82966341D01*
X83794924Y-83000288D01*
X83839772Y-83042865D01*
X83875294Y-83088970D01*
X83896558Y-83133504D01*
X83897087Y-83135318D01*
X83907011Y-83188278D01*
X83910085Y-83237663D01*
X83910914Y-83250988D01*
X83908656Y-83314128D01*
G36*
X83681777Y-78965871D02*
G01*
X83704059Y-78976311D01*
X83727508Y-78999433D01*
X83744755Y-79021584D01*
X83756166Y-79048715D01*
X83759040Y-79084423D01*
X83754225Y-79127456D01*
X83737983Y-79160269D01*
X83719150Y-79176864D01*
X83685193Y-79187800D01*
X83649298Y-79183325D01*
X83618329Y-79163266D01*
X83597807Y-79132902D01*
X83582953Y-79092032D01*
X83576602Y-79049030D01*
X83579646Y-79010263D01*
X83592975Y-78982100D01*
X83613027Y-78969257D01*
X83652883Y-78963520D01*
X83681777Y-78965871D01*
G37*
X83681777Y-78965871D02*
X83704059Y-78976311D01*
X83727508Y-78999433D01*
X83744755Y-79021584D01*
X83756166Y-79048715D01*
X83759040Y-79084423D01*
X83754225Y-79127456D01*
X83737983Y-79160269D01*
X83719150Y-79176864D01*
X83685193Y-79187800D01*
X83649298Y-79183325D01*
X83618329Y-79163266D01*
X83597807Y-79132902D01*
X83582953Y-79092032D01*
X83576602Y-79049030D01*
X83579646Y-79010263D01*
X83592975Y-78982100D01*
X83613027Y-78969257D01*
X83652883Y-78963520D01*
X83681777Y-78965871D01*
G36*
X84752061Y-78944930D02*
G01*
X84778184Y-78956086D01*
X84807632Y-78980821D01*
X84810460Y-78983602D01*
X84833019Y-79009103D01*
X84843557Y-79031986D01*
X84846160Y-79060731D01*
X84842709Y-79091745D01*
X84825103Y-79129789D01*
X84799476Y-79151072D01*
X84767688Y-79157255D01*
X84735416Y-79147008D01*
X84706375Y-79121584D01*
X84684277Y-79082238D01*
X84682228Y-79076286D01*
X84675519Y-79042730D01*
X84673903Y-79006393D01*
X84677301Y-78974778D01*
X84685632Y-78955392D01*
X84686638Y-78954484D01*
X84705905Y-78946485D01*
X84733464Y-78943200D01*
X84752061Y-78944930D01*
G37*
X84752061Y-78944930D02*
X84778184Y-78956086D01*
X84807632Y-78980821D01*
X84810460Y-78983602D01*
X84833019Y-79009103D01*
X84843557Y-79031986D01*
X84846160Y-79060731D01*
X84842709Y-79091745D01*
X84825103Y-79129789D01*
X84799476Y-79151072D01*
X84767688Y-79157255D01*
X84735416Y-79147008D01*
X84706375Y-79121584D01*
X84684277Y-79082238D01*
X84682228Y-79076286D01*
X84675519Y-79042730D01*
X84673903Y-79006393D01*
X84677301Y-78974778D01*
X84685632Y-78955392D01*
X84686638Y-78954484D01*
X84705905Y-78946485D01*
X84733464Y-78943200D01*
X84752061Y-78944930D01*
G36*
X84991190Y-83157211D02*
G01*
X84974927Y-83241843D01*
X84948204Y-83315081D01*
X84909972Y-83380060D01*
X84859186Y-83439914D01*
X84844682Y-83454124D01*
X84779906Y-83504985D01*
X84709218Y-83539646D01*
X84629162Y-83559455D01*
X84536280Y-83565758D01*
X84449145Y-83560435D01*
X84372496Y-83542957D01*
X84305536Y-83512030D01*
X84244479Y-83466365D01*
X84202811Y-83428840D01*
X84209374Y-83693660D01*
X84209743Y-83708812D01*
X84211469Y-83792353D01*
X84212160Y-83857612D01*
X84211783Y-83906322D01*
X84210303Y-83940220D01*
X84207686Y-83961041D01*
X84203896Y-83970520D01*
X84201267Y-83972527D01*
X84181023Y-83978851D01*
X84151222Y-83981947D01*
X84119261Y-83981766D01*
X84092537Y-83978257D01*
X84078444Y-83971370D01*
X84077534Y-83963607D01*
X84076439Y-83936874D01*
X84075414Y-83892770D01*
X84074476Y-83832941D01*
X84073640Y-83759030D01*
X84072921Y-83672682D01*
X84072336Y-83575541D01*
X84071898Y-83469250D01*
X84071624Y-83355455D01*
X84071529Y-83235800D01*
X84071589Y-83140374D01*
X84071792Y-83042154D01*
X84219104Y-83042154D01*
X84227651Y-83118409D01*
X84250760Y-83206677D01*
X84287210Y-83279821D01*
X84336936Y-83337717D01*
X84399870Y-83380239D01*
X84470832Y-83408492D01*
X84537982Y-83418780D01*
X84603742Y-83410620D01*
X84671596Y-83384061D01*
X84689659Y-83373807D01*
X84743630Y-83328896D01*
X84788265Y-83269230D01*
X84822314Y-83197911D01*
X84844526Y-83118044D01*
X84853652Y-83032730D01*
X84848441Y-82945075D01*
X84829620Y-82860074D01*
X84796951Y-82781187D01*
X84752318Y-82717173D01*
X84696502Y-82668887D01*
X84630284Y-82637187D01*
X84554446Y-82622927D01*
X84495237Y-82624760D01*
X84425273Y-82643235D01*
X84363221Y-82678254D01*
X84310436Y-82728120D01*
X84268276Y-82791139D01*
X84238096Y-82865615D01*
X84221253Y-82949852D01*
X84219104Y-83042154D01*
X84071792Y-83042154D01*
X84071827Y-83025237D01*
X84072233Y-82917266D01*
X84072789Y-82818105D01*
X84073482Y-82729398D01*
X84074295Y-82652790D01*
X84075214Y-82589924D01*
X84076222Y-82542446D01*
X84077304Y-82512000D01*
X84078444Y-82500229D01*
X84083148Y-82496685D01*
X84104010Y-82491201D01*
X84133985Y-82489040D01*
X84160454Y-82490828D01*
X84194263Y-82502990D01*
X84212048Y-82527166D01*
X84214461Y-82563963D01*
X84210353Y-82599153D01*
X84244152Y-82569477D01*
X84269770Y-82549098D01*
X84343232Y-82507931D01*
X84427361Y-82481677D01*
X84519167Y-82471083D01*
X84615660Y-82476892D01*
X84667539Y-82486629D01*
X84738973Y-82510481D01*
X84800818Y-82546935D01*
X84858657Y-82598790D01*
X84897169Y-82642936D01*
X84936686Y-82701772D01*
X84965380Y-82765574D01*
X84984440Y-82837949D01*
X84995054Y-82922504D01*
X84998410Y-83022845D01*
X84998305Y-83032730D01*
X84998037Y-83058050D01*
X84991190Y-83157211D01*
G37*
X84991190Y-83157211D02*
X84974927Y-83241843D01*
X84948204Y-83315081D01*
X84909972Y-83380060D01*
X84859186Y-83439914D01*
X84844682Y-83454124D01*
X84779906Y-83504985D01*
X84709218Y-83539646D01*
X84629162Y-83559455D01*
X84536280Y-83565758D01*
X84449145Y-83560435D01*
X84372496Y-83542957D01*
X84305536Y-83512030D01*
X84244479Y-83466365D01*
X84202811Y-83428840D01*
X84209374Y-83693660D01*
X84209743Y-83708812D01*
X84211469Y-83792353D01*
X84212160Y-83857612D01*
X84211783Y-83906322D01*
X84210303Y-83940220D01*
X84207686Y-83961041D01*
X84203896Y-83970520D01*
X84201267Y-83972527D01*
X84181023Y-83978851D01*
X84151222Y-83981947D01*
X84119261Y-83981766D01*
X84092537Y-83978257D01*
X84078444Y-83971370D01*
X84077534Y-83963607D01*
X84076439Y-83936874D01*
X84075414Y-83892770D01*
X84074476Y-83832941D01*
X84073640Y-83759030D01*
X84072921Y-83672682D01*
X84072336Y-83575541D01*
X84071898Y-83469250D01*
X84071624Y-83355455D01*
X84071529Y-83235800D01*
X84071589Y-83140374D01*
X84071792Y-83042154D01*
X84219104Y-83042154D01*
X84227651Y-83118409D01*
X84250760Y-83206677D01*
X84287210Y-83279821D01*
X84336936Y-83337717D01*
X84399870Y-83380239D01*
X84470832Y-83408492D01*
X84537982Y-83418780D01*
X84603742Y-83410620D01*
X84671596Y-83384061D01*
X84689659Y-83373807D01*
X84743630Y-83328896D01*
X84788265Y-83269230D01*
X84822314Y-83197911D01*
X84844526Y-83118044D01*
X84853652Y-83032730D01*
X84848441Y-82945075D01*
X84829620Y-82860074D01*
X84796951Y-82781187D01*
X84752318Y-82717173D01*
X84696502Y-82668887D01*
X84630284Y-82637187D01*
X84554446Y-82622927D01*
X84495237Y-82624760D01*
X84425273Y-82643235D01*
X84363221Y-82678254D01*
X84310436Y-82728120D01*
X84268276Y-82791139D01*
X84238096Y-82865615D01*
X84221253Y-82949852D01*
X84219104Y-83042154D01*
X84071792Y-83042154D01*
X84071827Y-83025237D01*
X84072233Y-82917266D01*
X84072789Y-82818105D01*
X84073482Y-82729398D01*
X84074295Y-82652790D01*
X84075214Y-82589924D01*
X84076222Y-82542446D01*
X84077304Y-82512000D01*
X84078444Y-82500229D01*
X84083148Y-82496685D01*
X84104010Y-82491201D01*
X84133985Y-82489040D01*
X84160454Y-82490828D01*
X84194263Y-82502990D01*
X84212048Y-82527166D01*
X84214461Y-82563963D01*
X84210353Y-82599153D01*
X84244152Y-82569477D01*
X84269770Y-82549098D01*
X84343232Y-82507931D01*
X84427361Y-82481677D01*
X84519167Y-82471083D01*
X84615660Y-82476892D01*
X84667539Y-82486629D01*
X84738973Y-82510481D01*
X84800818Y-82546935D01*
X84858657Y-82598790D01*
X84897169Y-82642936D01*
X84936686Y-82701772D01*
X84965380Y-82765574D01*
X84984440Y-82837949D01*
X84995054Y-82922504D01*
X84998410Y-83022845D01*
X84998305Y-83032730D01*
X84998037Y-83058050D01*
X84991190Y-83157211D01*
G36*
X84809786Y-80734907D02*
G01*
X84809890Y-80734961D01*
X84827170Y-80742739D01*
X84846562Y-80748344D01*
X84871705Y-80752159D01*
X84906243Y-80754562D01*
X84953816Y-80755935D01*
X85018066Y-80756657D01*
X85041907Y-80756847D01*
X85100299Y-80757728D01*
X85144566Y-80759507D01*
X85179333Y-80762722D01*
X85209224Y-80767913D01*
X85238865Y-80775620D01*
X85272880Y-80786383D01*
X85285126Y-80790746D01*
X85286869Y-80791367D01*
X85328334Y-80808141D01*
X85382070Y-80831695D01*
X85444155Y-80860245D01*
X85510666Y-80892002D01*
X85577680Y-80925183D01*
X85644879Y-80958854D01*
X85722659Y-80996699D01*
X85788161Y-81026595D01*
X85844569Y-81049591D01*
X85895070Y-81066735D01*
X85942846Y-81079078D01*
X85991085Y-81087667D01*
X86042970Y-81093552D01*
X86101685Y-81097781D01*
X86121974Y-81099013D01*
X86326429Y-81114347D01*
X86528691Y-81134674D01*
X86725166Y-81159496D01*
X86912259Y-81188315D01*
X87086375Y-81220634D01*
X87243920Y-81255955D01*
X87266849Y-81261766D01*
X87318055Y-81275751D01*
X87361493Y-81288981D01*
X87393152Y-81300189D01*
X87409020Y-81308108D01*
X87418788Y-81321422D01*
X87426059Y-81350432D01*
X87423156Y-81380843D01*
X87409985Y-81403215D01*
X87399789Y-81408250D01*
X87378699Y-81412407D01*
X87345026Y-81415089D01*
X87296200Y-81416489D01*
X87229645Y-81416802D01*
X87229399Y-81416801D01*
X87170114Y-81416451D01*
X87122953Y-81415247D01*
X87082608Y-81412515D01*
X87043772Y-81407582D01*
X87001137Y-81399774D01*
X86949396Y-81388417D01*
X86883240Y-81372839D01*
X86834808Y-81361629D01*
X86769043Y-81347362D01*
X86707248Y-81334949D01*
X86654666Y-81325434D01*
X86616540Y-81319856D01*
X86578831Y-81315618D01*
X86502869Y-81306883D01*
X86441016Y-81299378D01*
X86388987Y-81292522D01*
X86342500Y-81285734D01*
X86297271Y-81278433D01*
X86249019Y-81270040D01*
X86211227Y-81263564D01*
X86155539Y-81254815D01*
X86104650Y-81247654D01*
X86066139Y-81243195D01*
X86041013Y-81241734D01*
X85993667Y-81243358D01*
X85952293Y-81250084D01*
X85921630Y-81260968D01*
X85906420Y-81275063D01*
X85905143Y-81282825D01*
X85910812Y-81309175D01*
X85926115Y-81342420D01*
X85947861Y-81377172D01*
X85972861Y-81408043D01*
X85997925Y-81429646D01*
X86027378Y-81447004D01*
X86084046Y-81474643D01*
X86150460Y-81500223D01*
X86228729Y-81524367D01*
X86320962Y-81547698D01*
X86429268Y-81570839D01*
X86555759Y-81594414D01*
X86557382Y-81594700D01*
X86652043Y-81612465D01*
X86736414Y-81630423D01*
X86808516Y-81648051D01*
X86866374Y-81664827D01*
X86908010Y-81680228D01*
X86931448Y-81693730D01*
X86941267Y-81705837D01*
X86949368Y-81736398D01*
X86942522Y-81769971D01*
X86921341Y-81800097D01*
X86891662Y-81823944D01*
X86853185Y-81844018D01*
X86809508Y-81854750D01*
X86758579Y-81855981D01*
X86698344Y-81847551D01*
X86626751Y-81829300D01*
X86541747Y-81801067D01*
X86441280Y-81762694D01*
X86407557Y-81749252D01*
X86335974Y-81721124D01*
X86279427Y-81699891D01*
X86235261Y-81684903D01*
X86200821Y-81675512D01*
X86173454Y-81671067D01*
X86150505Y-81670917D01*
X86129319Y-81674414D01*
X86107243Y-81680907D01*
X86095319Y-81684986D01*
X86050915Y-81703979D01*
X86023017Y-81725154D01*
X86022261Y-81726538D01*
X86008540Y-81751685D01*
X86004400Y-81786748D01*
X86006404Y-81809150D01*
X86023887Y-81860779D01*
X86057079Y-81913876D01*
X86103203Y-81966164D01*
X86159480Y-82015368D01*
X86223133Y-82059214D01*
X86291386Y-82095427D01*
X86361460Y-82121731D01*
X86430578Y-82135851D01*
X86440586Y-82138827D01*
X86467180Y-82157743D01*
X86499158Y-82192240D01*
X86511873Y-82208282D01*
X86531189Y-82237062D01*
X86540480Y-82261739D01*
X86542880Y-82289268D01*
X86540362Y-82321240D01*
X86529332Y-82343304D01*
X86506012Y-82354101D01*
X86466651Y-82356960D01*
X86426290Y-82352067D01*
X86367966Y-82333474D01*
X86304931Y-82303093D01*
X86241664Y-82263148D01*
X86182641Y-82215864D01*
X86173062Y-82207384D01*
X86136292Y-82178010D01*
X86102148Y-82155105D01*
X86076445Y-82142676D01*
X86050852Y-82138535D01*
X86018596Y-82143276D01*
X85982480Y-82159670D01*
X85940502Y-82188926D01*
X85890658Y-82232253D01*
X85830943Y-82290860D01*
X85782261Y-82339415D01*
X85740095Y-82377995D01*
X85703634Y-82406107D01*
X85669058Y-82426333D01*
X85632546Y-82441252D01*
X85590278Y-82453447D01*
X85575406Y-82456697D01*
X85518737Y-82463742D01*
X85450516Y-82466472D01*
X85376964Y-82465115D01*
X85304301Y-82459895D01*
X85238747Y-82451039D01*
X85186520Y-82438774D01*
X85113715Y-82412099D01*
X84990524Y-82352232D01*
X84863955Y-82272880D01*
X84734417Y-82174310D01*
X84602320Y-82056791D01*
X84546440Y-82003568D01*
X84383880Y-82018472D01*
X84329375Y-82022849D01*
X84226102Y-82028092D01*
X84123011Y-82029722D01*
X84024083Y-82027849D01*
X83933300Y-82022580D01*
X83854641Y-82014026D01*
X83792089Y-82002294D01*
X83780195Y-81999234D01*
X83675200Y-81962995D01*
X83583552Y-81912721D01*
X83502516Y-81846607D01*
X83429356Y-81762847D01*
X83398977Y-81724504D01*
X83357272Y-81680574D01*
X83314885Y-81648757D01*
X83268759Y-81628220D01*
X83215835Y-81618134D01*
X83153056Y-81617667D01*
X83077363Y-81625988D01*
X82985698Y-81642266D01*
X82981590Y-81643075D01*
X82893956Y-81657672D01*
X82809168Y-81667009D01*
X82730564Y-81671021D01*
X82661483Y-81669643D01*
X82605262Y-81662809D01*
X82565240Y-81650456D01*
X82541968Y-81637225D01*
X82527001Y-81620570D01*
X82521367Y-81596821D01*
X82520602Y-81574741D01*
X82525315Y-81557971D01*
X82538589Y-81546586D01*
X82563365Y-81539174D01*
X82602580Y-81534321D01*
X82659175Y-81530617D01*
X82703631Y-81527560D01*
X82803878Y-81515388D01*
X82891920Y-81496942D01*
X82965826Y-81472797D01*
X83023665Y-81443531D01*
X83063505Y-81409722D01*
X83072985Y-81396485D01*
X83085983Y-81364188D01*
X83086845Y-81333757D01*
X83074810Y-81311782D01*
X83070438Y-81307128D01*
X83056652Y-81285864D01*
X83042424Y-81257198D01*
X83037161Y-81245437D01*
X83023159Y-81217158D01*
X83012127Y-81198720D01*
X83008938Y-81193698D01*
X82998253Y-81169986D01*
X82987966Y-81139433D01*
X82986312Y-81133803D01*
X82975391Y-81107399D01*
X82971739Y-81103689D01*
X83127558Y-81103689D01*
X83128665Y-81132514D01*
X83134458Y-81157017D01*
X83147124Y-81184279D01*
X83168851Y-81221382D01*
X83170969Y-81224826D01*
X83206638Y-81271537D01*
X83249176Y-81305189D01*
X83302821Y-81328333D01*
X83371815Y-81343520D01*
X83373946Y-81343847D01*
X83410998Y-81348225D01*
X83443216Y-81348123D01*
X83478652Y-81342940D01*
X83525360Y-81332076D01*
X83534331Y-81329717D01*
X83581890Y-81314712D01*
X83626893Y-81296985D01*
X83660656Y-81279887D01*
X83681175Y-81268443D01*
X83713281Y-81254829D01*
X83737625Y-81249520D01*
X83752326Y-81251162D01*
X83782340Y-81267345D01*
X83802481Y-81297903D01*
X83809840Y-81339224D01*
X83808091Y-81366093D01*
X83799310Y-81385102D01*
X83779080Y-81400605D01*
X83778206Y-81401118D01*
X83755433Y-81410609D01*
X83718034Y-81422423D01*
X83670998Y-81435104D01*
X83619315Y-81447198D01*
X83609928Y-81449250D01*
X83541317Y-81465863D01*
X83484216Y-81482595D01*
X83440772Y-81498666D01*
X83413131Y-81513295D01*
X83403440Y-81525702D01*
X83403452Y-81526034D01*
X83412177Y-81540380D01*
X83435680Y-81564038D01*
X83471862Y-81595193D01*
X83518621Y-81632034D01*
X83573856Y-81672746D01*
X83628684Y-81709662D01*
X83727666Y-81767015D01*
X83829505Y-81815747D01*
X83926680Y-81852038D01*
X83986278Y-81867963D01*
X84059488Y-81880633D01*
X84126169Y-81884739D01*
X84180680Y-81879669D01*
X84195884Y-81876040D01*
X84231184Y-81865711D01*
X84269007Y-81852864D01*
X84303844Y-81839541D01*
X84330185Y-81827787D01*
X84342519Y-81819646D01*
X84342659Y-81819342D01*
X84338281Y-81807446D01*
X84323745Y-81785073D01*
X84302004Y-81756804D01*
X84292376Y-81744835D01*
X84241352Y-81671583D01*
X84198595Y-81590799D01*
X84163261Y-81500009D01*
X84134511Y-81396737D01*
X84111503Y-81278505D01*
X84104769Y-81228052D01*
X84226400Y-81228052D01*
X84226502Y-81234173D01*
X84233914Y-81290034D01*
X84251386Y-81355178D01*
X84276550Y-81423785D01*
X84307038Y-81490035D01*
X84340484Y-81548109D01*
X84374519Y-81592187D01*
X84393586Y-81610965D01*
X84414739Y-81628736D01*
X84427501Y-81635600D01*
X84429747Y-81635372D01*
X84444236Y-81623929D01*
X84455529Y-81600239D01*
X84460080Y-81571298D01*
X84459855Y-81566151D01*
X84454376Y-81534657D01*
X84442978Y-81491956D01*
X84427545Y-81444007D01*
X84409959Y-81396768D01*
X84392104Y-81356200D01*
X84389840Y-81351692D01*
X84373104Y-81321228D01*
X84351302Y-81284660D01*
X84327002Y-81245921D01*
X84302770Y-81208945D01*
X84281174Y-81177664D01*
X84264781Y-81156011D01*
X84256159Y-81147920D01*
X84247697Y-81155118D01*
X84237680Y-81175706D01*
X84229674Y-81202461D01*
X84226400Y-81228052D01*
X84104769Y-81228052D01*
X84093396Y-81142840D01*
X84090373Y-81115652D01*
X84084064Y-81065106D01*
X84077631Y-81029966D01*
X84069623Y-81006855D01*
X84058588Y-80992400D01*
X84057913Y-80992001D01*
X84378327Y-80992001D01*
X84383520Y-81011202D01*
X84398149Y-81043102D01*
X84423059Y-81089854D01*
X84453789Y-81147633D01*
X84510410Y-81271149D01*
X84551125Y-81389562D01*
X84577050Y-81506462D01*
X84583724Y-81571298D01*
X84589297Y-81625440D01*
X84592184Y-81676115D01*
X84596175Y-81715838D01*
X84602252Y-81746421D01*
X84611586Y-81773632D01*
X84625346Y-81803240D01*
X84634647Y-81819342D01*
X84674904Y-81889042D01*
X84754193Y-81992123D01*
X84848633Y-82084618D01*
X84956114Y-82164779D01*
X85074527Y-82230855D01*
X85201760Y-82281098D01*
X85253711Y-82295015D01*
X85332061Y-82308236D01*
X85411248Y-82313846D01*
X85484872Y-82311478D01*
X85546535Y-82300767D01*
X85635008Y-82270111D01*
X85708811Y-82230843D01*
X85765420Y-82183424D01*
X85777235Y-82170500D01*
X85797856Y-82143021D01*
X85804058Y-82119443D01*
X85796355Y-82093228D01*
X85775257Y-82057836D01*
X85768675Y-82049491D01*
X85742537Y-82025759D01*
X85707514Y-82000753D01*
X85670564Y-81979164D01*
X85638640Y-81965686D01*
X85612855Y-81955041D01*
X85586518Y-81929783D01*
X85577680Y-81894349D01*
X85578072Y-81881703D01*
X85582790Y-81860424D01*
X85595283Y-81847548D01*
X85618577Y-81842037D01*
X85655694Y-81842850D01*
X85709659Y-81848946D01*
X85733547Y-81852011D01*
X85775386Y-81856354D01*
X85804978Y-81857101D01*
X85827705Y-81854201D01*
X85848944Y-81847602D01*
X85887560Y-81832934D01*
X85890530Y-81748378D01*
X85891109Y-81726538D01*
X85890267Y-81685716D01*
X85885758Y-81658048D01*
X85876973Y-81638601D01*
X85862938Y-81622696D01*
X85824888Y-81598632D01*
X85772602Y-81580332D01*
X85709760Y-81569321D01*
X85694264Y-81567636D01*
X85625111Y-81556977D01*
X85575077Y-81543188D01*
X85544660Y-81526400D01*
X85533163Y-81507284D01*
X85527272Y-81476967D01*
X85529070Y-81446154D01*
X85539072Y-81424272D01*
X85543242Y-81421674D01*
X85567788Y-81416332D01*
X85612160Y-81413140D01*
X85676551Y-81412080D01*
X85686646Y-81412067D01*
X85742510Y-81411120D01*
X85780369Y-81407925D01*
X85802212Y-81401439D01*
X85810028Y-81390619D01*
X85805805Y-81374423D01*
X85791531Y-81351809D01*
X85788329Y-81347720D01*
X85761072Y-81323999D01*
X85719668Y-81298206D01*
X85668796Y-81272731D01*
X85613134Y-81249960D01*
X85557360Y-81232282D01*
X85542869Y-81228602D01*
X85521542Y-81224049D01*
X85498709Y-81220689D01*
X85471682Y-81218442D01*
X85437777Y-81217230D01*
X85394305Y-81216972D01*
X85338583Y-81217590D01*
X85267922Y-81219005D01*
X85179638Y-81221136D01*
X85164963Y-81221489D01*
X85117447Y-81222130D01*
X85084783Y-81221123D01*
X85062612Y-81217926D01*
X85046576Y-81211996D01*
X85032318Y-81202790D01*
X85011206Y-81180707D01*
X85000557Y-81145535D01*
X85001503Y-81124741D01*
X85016614Y-81095462D01*
X85049506Y-81073222D01*
X85101073Y-81057233D01*
X85131015Y-81052334D01*
X85185723Y-81047824D01*
X85246636Y-81046573D01*
X85307174Y-81048489D01*
X85360757Y-81053478D01*
X85400806Y-81061450D01*
X85417629Y-81066151D01*
X85451361Y-81073502D01*
X85476080Y-81076256D01*
X85476302Y-81076253D01*
X85489032Y-81075059D01*
X85490871Y-81069902D01*
X85480289Y-81057715D01*
X85455760Y-81035427D01*
X85423618Y-81010547D01*
X85381364Y-80982857D01*
X85338920Y-80958993D01*
X85267800Y-80923064D01*
X85264287Y-80946592D01*
X85260229Y-80962825D01*
X85250343Y-80982820D01*
X85235660Y-80992061D01*
X85205501Y-80994800D01*
X85168146Y-80987335D01*
X85129138Y-80970242D01*
X85104234Y-80957373D01*
X85073853Y-80947870D01*
X85042178Y-80947570D01*
X85003682Y-80956628D01*
X84952841Y-80975200D01*
X84917522Y-80988148D01*
X84864295Y-81001700D01*
X84812876Y-81005905D01*
X84780446Y-81007152D01*
X84747711Y-81013345D01*
X84724240Y-81026000D01*
X84719368Y-81029518D01*
X84679411Y-81044809D01*
X84627735Y-81046649D01*
X84567214Y-81035234D01*
X84500721Y-81010760D01*
X84469718Y-80997025D01*
X84435037Y-80983198D01*
X84411544Y-80976977D01*
X84395058Y-80977409D01*
X84381397Y-80983540D01*
X84378327Y-80992001D01*
X84057913Y-80992001D01*
X84043076Y-80983224D01*
X84021634Y-80975952D01*
X84012516Y-80973005D01*
X83977560Y-80958599D01*
X83949540Y-80942881D01*
X83947484Y-80941400D01*
X83930962Y-80925788D01*
X83923405Y-80905907D01*
X83921600Y-80873811D01*
X83921604Y-80871848D01*
X83923839Y-80839813D01*
X83932646Y-80818608D01*
X83951597Y-80799366D01*
X83963425Y-80790918D01*
X83997131Y-80773577D01*
X84034108Y-80760666D01*
X84034588Y-80760543D01*
X84077415Y-80744397D01*
X84102427Y-80723087D01*
X84109652Y-80709458D01*
X84267536Y-80709458D01*
X84275981Y-80737973D01*
X84290536Y-80767642D01*
X84308848Y-80791924D01*
X84336809Y-80813530D01*
X84366882Y-80822112D01*
X84381220Y-80820718D01*
X84408975Y-80813319D01*
X84430872Y-80802303D01*
X84439760Y-80790746D01*
X84438521Y-80787910D01*
X84425390Y-80774432D01*
X84401716Y-80754853D01*
X84372240Y-80732661D01*
X84341706Y-80711344D01*
X84314853Y-80694391D01*
X84296425Y-80685292D01*
X84283060Y-80682473D01*
X84270135Y-80684238D01*
X84267553Y-80688641D01*
X84267536Y-80709458D01*
X84109652Y-80709458D01*
X84111904Y-80705210D01*
X84111300Y-80689122D01*
X84100163Y-80665415D01*
X84082852Y-80642543D01*
X84042992Y-80611733D01*
X83987893Y-80584435D01*
X83920532Y-80562355D01*
X83888587Y-80555591D01*
X83834021Y-80548711D01*
X83775898Y-80545597D01*
X83720085Y-80546309D01*
X83672454Y-80550908D01*
X83638873Y-80559453D01*
X83605066Y-80573938D01*
X83651573Y-80606719D01*
X83667771Y-80618507D01*
X83687457Y-80636515D01*
X83696136Y-80654261D01*
X83698080Y-80678318D01*
X83696661Y-80704343D01*
X83690332Y-80724789D01*
X83676756Y-80736398D01*
X83653612Y-80739423D01*
X83618576Y-80734118D01*
X83569328Y-80720736D01*
X83503545Y-80699530D01*
X83450969Y-80683150D01*
X83397156Y-80668561D01*
X83349813Y-80657812D01*
X83315245Y-80652476D01*
X83304219Y-80651601D01*
X83273499Y-80650268D01*
X83253632Y-80653908D01*
X83237213Y-80665066D01*
X83216835Y-80686286D01*
X83184301Y-80727008D01*
X83162953Y-80764851D01*
X83154363Y-80796340D01*
X83159963Y-80818156D01*
X83176397Y-80833632D01*
X83204405Y-80849850D01*
X83243319Y-80864026D01*
X83295020Y-80876604D01*
X83361393Y-80888028D01*
X83444318Y-80898743D01*
X83545680Y-80909192D01*
X83601492Y-80914747D01*
X83659544Y-80921632D01*
X83700840Y-80928238D01*
X83727404Y-80934907D01*
X83741260Y-80941976D01*
X83753707Y-80960443D01*
X83759371Y-80992858D01*
X83753173Y-81026981D01*
X83735526Y-81054708D01*
X83733200Y-81056732D01*
X83702517Y-81070444D01*
X83654665Y-81076751D01*
X83591210Y-81075668D01*
X83513719Y-81067212D01*
X83423760Y-81051400D01*
X83354923Y-81038454D01*
X83290225Y-81029510D01*
X83238962Y-81026992D01*
X83198037Y-81030772D01*
X83164354Y-81040721D01*
X83146122Y-81049631D01*
X83132054Y-81064662D01*
X83127951Y-81088981D01*
X83127558Y-81103689D01*
X82971739Y-81103689D01*
X82958413Y-81090152D01*
X82928634Y-81074706D01*
X82922929Y-81072254D01*
X82902216Y-81064952D01*
X82879481Y-81060298D01*
X82851707Y-81058325D01*
X82815878Y-81059066D01*
X82768978Y-81062551D01*
X82707991Y-81068813D01*
X82629899Y-81077885D01*
X82625964Y-81078355D01*
X82578297Y-81083671D01*
X82545918Y-81085985D01*
X82524304Y-81085147D01*
X82508932Y-81081007D01*
X82495279Y-81073413D01*
X82475999Y-81052240D01*
X82467439Y-81020130D01*
X82473134Y-80985761D01*
X82493201Y-80955743D01*
X82507018Y-80944362D01*
X82523192Y-80937759D01*
X82546334Y-80936608D01*
X82583000Y-80939740D01*
X82586632Y-80940105D01*
X82658930Y-80938945D01*
X82735692Y-80923905D01*
X82812798Y-80897029D01*
X82886127Y-80860361D01*
X82951561Y-80815942D01*
X83004979Y-80765815D01*
X83042262Y-80712023D01*
X83050410Y-80695478D01*
X83059373Y-80671765D01*
X83059652Y-80653231D01*
X83052272Y-80631649D01*
X83041914Y-80613416D01*
X83022436Y-80595280D01*
X82992325Y-80579939D01*
X82948380Y-80565839D01*
X82887402Y-80551420D01*
X82864904Y-80547163D01*
X82833618Y-80542843D01*
X82796401Y-80539449D01*
X82751455Y-80536945D01*
X82696984Y-80535298D01*
X82631190Y-80534473D01*
X82552275Y-80534436D01*
X82458443Y-80535154D01*
X82347897Y-80536591D01*
X82218837Y-80538715D01*
X82141913Y-80539919D01*
X82074963Y-80540509D01*
X82024082Y-80540262D01*
X81987052Y-80539106D01*
X81961656Y-80536968D01*
X81945677Y-80533775D01*
X81936897Y-80529455D01*
X81935036Y-80527713D01*
X81924414Y-80506248D01*
X81920252Y-80476626D01*
X81922918Y-80447852D01*
X81932780Y-80428931D01*
X81939423Y-80424857D01*
X81967312Y-80414287D01*
X82009394Y-80402754D01*
X82061486Y-80391145D01*
X82119404Y-80380347D01*
X82178964Y-80371244D01*
X82235982Y-80364723D01*
X82252363Y-80363325D01*
X82313257Y-80359748D01*
X82377725Y-80358695D01*
X82448512Y-80360307D01*
X82528360Y-80364725D01*
X82620015Y-80372089D01*
X82726221Y-80382541D01*
X82849720Y-80396221D01*
X82893627Y-80401222D01*
X82969862Y-80409639D01*
X83042881Y-80417391D01*
X83108444Y-80424042D01*
X83162310Y-80429156D01*
X83200240Y-80432297D01*
X83241628Y-80434902D01*
X83274502Y-80435473D01*
X83297684Y-80432824D01*
X83316781Y-80426249D01*
X83337400Y-80415044D01*
X83363176Y-80403487D01*
X83417326Y-80391164D01*
X83486351Y-80385717D01*
X83567658Y-80387172D01*
X83658654Y-80395554D01*
X83756745Y-80410891D01*
X83793007Y-80417547D01*
X83860950Y-80428952D01*
X83913882Y-80435705D01*
X83955078Y-80437887D01*
X83987811Y-80435575D01*
X84015354Y-80428850D01*
X84040980Y-80417792D01*
X84084160Y-80395667D01*
X84083959Y-80266333D01*
X84084658Y-80223837D01*
X84086593Y-80186018D01*
X84219455Y-80186018D01*
X84219814Y-80223384D01*
X84225376Y-80266231D01*
X84228107Y-80281419D01*
X84257644Y-80381564D01*
X84305074Y-80474456D01*
X84368613Y-80557187D01*
X84446479Y-80626849D01*
X84454284Y-80632548D01*
X84491515Y-80658641D01*
X84525713Y-80681060D01*
X84550321Y-80695473D01*
X84584682Y-80712948D01*
X84577885Y-80685864D01*
X84571213Y-80654493D01*
X84561813Y-80596624D01*
X84551875Y-80521387D01*
X84541600Y-80430447D01*
X84531187Y-80325469D01*
X84520833Y-80208120D01*
X84517300Y-80166270D01*
X84507369Y-80055349D01*
X84497806Y-79960759D01*
X84488157Y-79879538D01*
X84477966Y-79808726D01*
X84466777Y-79745361D01*
X84454134Y-79686480D01*
X84439581Y-79629125D01*
X84422662Y-79570332D01*
X84409277Y-79529886D01*
X84386947Y-79479409D01*
X84361990Y-79443332D01*
X84345013Y-79424734D01*
X84331654Y-79413629D01*
X84322494Y-79414586D01*
X84312420Y-79425800D01*
X84302228Y-79441501D01*
X84282791Y-79489991D01*
X84267408Y-79557139D01*
X84256214Y-79642059D01*
X84249341Y-79743863D01*
X84246922Y-79861666D01*
X84246720Y-79896309D01*
X84244223Y-79985723D01*
X84238778Y-80057812D01*
X84230247Y-80114672D01*
X84224608Y-80144484D01*
X84219455Y-80186018D01*
X84086593Y-80186018D01*
X84088744Y-80143992D01*
X84095932Y-80058021D01*
X84105592Y-79974440D01*
X84106131Y-79970424D01*
X84114128Y-79908816D01*
X84119214Y-79863141D01*
X84121530Y-79829465D01*
X84121217Y-79803852D01*
X84118419Y-79782368D01*
X84113275Y-79761080D01*
X84101919Y-79728424D01*
X84087071Y-79707916D01*
X84063702Y-79693293D01*
X84053276Y-79688477D01*
X84035794Y-79682716D01*
X84017192Y-79682024D01*
X83991333Y-79686583D01*
X83952080Y-79696571D01*
X83933484Y-79700966D01*
X83862357Y-79710898D01*
X83781426Y-79714044D01*
X83697786Y-79710611D01*
X83618533Y-79700806D01*
X83550760Y-79684838D01*
X83466531Y-79653838D01*
X83348419Y-79594434D01*
X83235487Y-79517457D01*
X83125529Y-79421540D01*
X83094201Y-79390273D01*
X83035668Y-79326197D01*
X82986526Y-79264567D01*
X82947405Y-79206868D01*
X82918932Y-79154584D01*
X82901736Y-79109198D01*
X82896444Y-79072195D01*
X82903685Y-79045059D01*
X82924086Y-79029275D01*
X82958277Y-79026326D01*
X82963433Y-79026925D01*
X82984238Y-79033404D01*
X83002025Y-79049189D01*
X83022440Y-79078907D01*
X83026797Y-79085901D01*
X83111929Y-79203268D01*
X83210742Y-79306959D01*
X83321556Y-79395623D01*
X83442693Y-79467904D01*
X83572476Y-79522450D01*
X83590457Y-79528458D01*
X83638440Y-79542923D01*
X83679222Y-79551499D01*
X83721577Y-79555689D01*
X83774280Y-79556994D01*
X83798424Y-79556883D01*
X83865955Y-79552492D01*
X83925418Y-79540417D01*
X83984512Y-79518661D01*
X84050937Y-79485226D01*
X84095540Y-79455899D01*
X84130705Y-79419427D01*
X84157620Y-79372281D01*
X84179812Y-79309655D01*
X84190544Y-79264470D01*
X84194949Y-79213152D01*
X84190116Y-79157930D01*
X84175921Y-79091772D01*
X84149728Y-79011335D01*
X84117545Y-78945179D01*
X84291787Y-78945179D01*
X84296216Y-79028655D01*
X84313836Y-79102980D01*
X84347363Y-79184113D01*
X84392854Y-79250948D01*
X84449375Y-79301815D01*
X84460603Y-79310043D01*
X84492887Y-79336732D01*
X84530276Y-79370579D01*
X84566760Y-79406238D01*
X84579994Y-79419357D01*
X84664138Y-79486482D01*
X84758685Y-79536179D01*
X84863284Y-79568256D01*
X84897892Y-79574905D01*
X84957963Y-79581438D01*
X85012360Y-79578817D01*
X85069434Y-79566992D01*
X85137866Y-79541662D01*
X85203222Y-79501339D01*
X85255144Y-79450315D01*
X85290630Y-79390978D01*
X85298614Y-79364209D01*
X85302928Y-79307830D01*
X85296442Y-79240540D01*
X85280112Y-79165642D01*
X85254895Y-79086438D01*
X85221750Y-79006228D01*
X85181633Y-78928316D01*
X85135502Y-78856003D01*
X85113674Y-78827290D01*
X85044707Y-78753919D01*
X84965626Y-78690544D01*
X84880991Y-78640503D01*
X84795360Y-78607131D01*
X84789806Y-78605543D01*
X84754772Y-78593529D01*
X84734988Y-78579873D01*
X84726222Y-78559931D01*
X84724240Y-78529054D01*
X84724240Y-78483157D01*
X84667748Y-78488987D01*
X84607518Y-78500790D01*
X84531196Y-78532894D01*
X84461923Y-78582088D01*
X84401987Y-78646654D01*
X84353673Y-78724876D01*
X84336287Y-78762841D01*
X84305306Y-78855718D01*
X84291787Y-78945179D01*
X84117545Y-78945179D01*
X84099688Y-78908471D01*
X84034492Y-78812454D01*
X83956771Y-78726518D01*
X83869154Y-78653899D01*
X83774272Y-78597829D01*
X83746679Y-78585593D01*
X83680948Y-78561160D01*
X83606284Y-78538094D01*
X83530172Y-78518609D01*
X83460098Y-78504919D01*
X83416763Y-78499838D01*
X83329533Y-78499203D01*
X83246381Y-78510746D01*
X83171894Y-78533651D01*
X83110659Y-78567101D01*
X83095187Y-78579027D01*
X83061703Y-78612435D01*
X83034980Y-78653450D01*
X83012607Y-78706308D01*
X82992172Y-78775244D01*
X82983313Y-78808572D01*
X82968612Y-78857202D01*
X82954974Y-78890143D01*
X82940719Y-78910200D01*
X82924164Y-78920177D01*
X82903626Y-78922879D01*
X82884524Y-78921378D01*
X82855837Y-78908481D01*
X82839647Y-78881051D01*
X82834657Y-78837485D01*
X82839644Y-78769907D01*
X82856823Y-78689365D01*
X82884408Y-78613265D01*
X82920483Y-78546720D01*
X82963130Y-78494841D01*
X82999020Y-78467652D01*
X83050212Y-78438481D01*
X83110508Y-78410538D01*
X83174408Y-78386364D01*
X83236413Y-78368503D01*
X83253020Y-78365169D01*
X83309509Y-78358530D01*
X83378730Y-78355232D01*
X83455372Y-78355116D01*
X83534125Y-78358022D01*
X83609679Y-78363793D01*
X83676725Y-78372267D01*
X83729951Y-78383288D01*
X83759321Y-78391944D01*
X83816887Y-78411390D01*
X83876756Y-78434154D01*
X83933469Y-78458006D01*
X83981568Y-78480713D01*
X84015595Y-78500046D01*
X84032561Y-78515419D01*
X84049363Y-78544766D01*
X84054220Y-78575612D01*
X84045089Y-78600963D01*
X84044025Y-78613000D01*
X84055866Y-78635835D01*
X84081999Y-78670550D01*
X84098265Y-78690713D01*
X84113244Y-78707340D01*
X84126586Y-78715737D01*
X84140890Y-78714817D01*
X84158758Y-78703490D01*
X84182791Y-78680669D01*
X84215589Y-78645267D01*
X84259755Y-78596194D01*
X84300485Y-78551758D01*
X84371719Y-78478562D01*
X84434241Y-78421030D01*
X84489292Y-78378061D01*
X84538112Y-78348550D01*
X84556022Y-78339846D01*
X84583763Y-78328730D01*
X84611441Y-78322397D01*
X84645844Y-78319555D01*
X84693760Y-78318910D01*
X84742298Y-78320368D01*
X84786988Y-78326482D01*
X84827293Y-78339255D01*
X84867832Y-78360684D01*
X84913222Y-78392764D01*
X84968080Y-78437493D01*
X84982491Y-78449792D01*
X85014072Y-78478391D01*
X85033442Y-78499953D01*
X85043626Y-78518266D01*
X85047651Y-78537120D01*
X85047959Y-78539807D01*
X85052580Y-78556818D01*
X85063407Y-78576399D01*
X85082585Y-78601394D01*
X85112256Y-78634647D01*
X85154563Y-78679001D01*
X85163782Y-78688581D01*
X85204285Y-78732387D01*
X85241813Y-78775506D01*
X85272530Y-78813417D01*
X85292597Y-78841600D01*
X85307650Y-78865817D01*
X85336013Y-78910883D01*
X85361967Y-78951543D01*
X85385661Y-78990573D01*
X85411801Y-79044811D01*
X85428427Y-79099872D01*
X85437268Y-79162100D01*
X85440055Y-79237840D01*
X85440043Y-79255876D01*
X85438390Y-79307830D01*
X85437988Y-79320493D01*
X85432330Y-79371120D01*
X85422576Y-79412688D01*
X85420048Y-79420541D01*
X85384738Y-79497656D01*
X85333841Y-79569387D01*
X85271036Y-79632002D01*
X85200001Y-79681775D01*
X85124413Y-79714975D01*
X85118374Y-79716775D01*
X85054990Y-79729509D01*
X84985050Y-79734437D01*
X84913764Y-79731976D01*
X84846346Y-79722545D01*
X84788004Y-79706563D01*
X84743951Y-79684446D01*
X84742478Y-79683410D01*
X84711876Y-79664944D01*
X84678717Y-79648747D01*
X84642175Y-79633478D01*
X84627328Y-79669013D01*
X84625118Y-79674659D01*
X84617277Y-79706075D01*
X84614432Y-79745619D01*
X84616766Y-79795553D01*
X84624464Y-79858139D01*
X84637709Y-79935640D01*
X84656685Y-80030320D01*
X84657594Y-80034898D01*
X84663035Y-80071710D01*
X84668653Y-80123584D01*
X84674055Y-80186059D01*
X84678849Y-80254672D01*
X84682640Y-80324960D01*
X84687819Y-80418872D01*
X84694893Y-80500862D01*
X84704269Y-80566868D01*
X84716636Y-80619114D01*
X84732682Y-80659820D01*
X84753096Y-80691206D01*
X84775897Y-80712948D01*
X84778568Y-80715495D01*
X84809786Y-80734907D01*
G37*
X84809786Y-80734907D02*
X84809890Y-80734961D01*
X84827170Y-80742739D01*
X84846562Y-80748344D01*
X84871705Y-80752159D01*
X84906243Y-80754562D01*
X84953816Y-80755935D01*
X85018066Y-80756657D01*
X85041907Y-80756847D01*
X85100299Y-80757728D01*
X85144566Y-80759507D01*
X85179333Y-80762722D01*
X85209224Y-80767913D01*
X85238865Y-80775620D01*
X85272880Y-80786383D01*
X85285126Y-80790746D01*
X85286869Y-80791367D01*
X85328334Y-80808141D01*
X85382070Y-80831695D01*
X85444155Y-80860245D01*
X85510666Y-80892002D01*
X85577680Y-80925183D01*
X85644879Y-80958854D01*
X85722659Y-80996699D01*
X85788161Y-81026595D01*
X85844569Y-81049591D01*
X85895070Y-81066735D01*
X85942846Y-81079078D01*
X85991085Y-81087667D01*
X86042970Y-81093552D01*
X86101685Y-81097781D01*
X86121974Y-81099013D01*
X86326429Y-81114347D01*
X86528691Y-81134674D01*
X86725166Y-81159496D01*
X86912259Y-81188315D01*
X87086375Y-81220634D01*
X87243920Y-81255955D01*
X87266849Y-81261766D01*
X87318055Y-81275751D01*
X87361493Y-81288981D01*
X87393152Y-81300189D01*
X87409020Y-81308108D01*
X87418788Y-81321422D01*
X87426059Y-81350432D01*
X87423156Y-81380843D01*
X87409985Y-81403215D01*
X87399789Y-81408250D01*
X87378699Y-81412407D01*
X87345026Y-81415089D01*
X87296200Y-81416489D01*
X87229645Y-81416802D01*
X87229399Y-81416801D01*
X87170114Y-81416451D01*
X87122953Y-81415247D01*
X87082608Y-81412515D01*
X87043772Y-81407582D01*
X87001137Y-81399774D01*
X86949396Y-81388417D01*
X86883240Y-81372839D01*
X86834808Y-81361629D01*
X86769043Y-81347362D01*
X86707248Y-81334949D01*
X86654666Y-81325434D01*
X86616540Y-81319856D01*
X86578831Y-81315618D01*
X86502869Y-81306883D01*
X86441016Y-81299378D01*
X86388987Y-81292522D01*
X86342500Y-81285734D01*
X86297271Y-81278433D01*
X86249019Y-81270040D01*
X86211227Y-81263564D01*
X86155539Y-81254815D01*
X86104650Y-81247654D01*
X86066139Y-81243195D01*
X86041013Y-81241734D01*
X85993667Y-81243358D01*
X85952293Y-81250084D01*
X85921630Y-81260968D01*
X85906420Y-81275063D01*
X85905143Y-81282825D01*
X85910812Y-81309175D01*
X85926115Y-81342420D01*
X85947861Y-81377172D01*
X85972861Y-81408043D01*
X85997925Y-81429646D01*
X86027378Y-81447004D01*
X86084046Y-81474643D01*
X86150460Y-81500223D01*
X86228729Y-81524367D01*
X86320962Y-81547698D01*
X86429268Y-81570839D01*
X86555759Y-81594414D01*
X86557382Y-81594700D01*
X86652043Y-81612465D01*
X86736414Y-81630423D01*
X86808516Y-81648051D01*
X86866374Y-81664827D01*
X86908010Y-81680228D01*
X86931448Y-81693730D01*
X86941267Y-81705837D01*
X86949368Y-81736398D01*
X86942522Y-81769971D01*
X86921341Y-81800097D01*
X86891662Y-81823944D01*
X86853185Y-81844018D01*
X86809508Y-81854750D01*
X86758579Y-81855981D01*
X86698344Y-81847551D01*
X86626751Y-81829300D01*
X86541747Y-81801067D01*
X86441280Y-81762694D01*
X86407557Y-81749252D01*
X86335974Y-81721124D01*
X86279427Y-81699891D01*
X86235261Y-81684903D01*
X86200821Y-81675512D01*
X86173454Y-81671067D01*
X86150505Y-81670917D01*
X86129319Y-81674414D01*
X86107243Y-81680907D01*
X86095319Y-81684986D01*
X86050915Y-81703979D01*
X86023017Y-81725154D01*
X86022261Y-81726538D01*
X86008540Y-81751685D01*
X86004400Y-81786748D01*
X86006404Y-81809150D01*
X86023887Y-81860779D01*
X86057079Y-81913876D01*
X86103203Y-81966164D01*
X86159480Y-82015368D01*
X86223133Y-82059214D01*
X86291386Y-82095427D01*
X86361460Y-82121731D01*
X86430578Y-82135851D01*
X86440586Y-82138827D01*
X86467180Y-82157743D01*
X86499158Y-82192240D01*
X86511873Y-82208282D01*
X86531189Y-82237062D01*
X86540480Y-82261739D01*
X86542880Y-82289268D01*
X86540362Y-82321240D01*
X86529332Y-82343304D01*
X86506012Y-82354101D01*
X86466651Y-82356960D01*
X86426290Y-82352067D01*
X86367966Y-82333474D01*
X86304931Y-82303093D01*
X86241664Y-82263148D01*
X86182641Y-82215864D01*
X86173062Y-82207384D01*
X86136292Y-82178010D01*
X86102148Y-82155105D01*
X86076445Y-82142676D01*
X86050852Y-82138535D01*
X86018596Y-82143276D01*
X85982480Y-82159670D01*
X85940502Y-82188926D01*
X85890658Y-82232253D01*
X85830943Y-82290860D01*
X85782261Y-82339415D01*
X85740095Y-82377995D01*
X85703634Y-82406107D01*
X85669058Y-82426333D01*
X85632546Y-82441252D01*
X85590278Y-82453447D01*
X85575406Y-82456697D01*
X85518737Y-82463742D01*
X85450516Y-82466472D01*
X85376964Y-82465115D01*
X85304301Y-82459895D01*
X85238747Y-82451039D01*
X85186520Y-82438774D01*
X85113715Y-82412099D01*
X84990524Y-82352232D01*
X84863955Y-82272880D01*
X84734417Y-82174310D01*
X84602320Y-82056791D01*
X84546440Y-82003568D01*
X84383880Y-82018472D01*
X84329375Y-82022849D01*
X84226102Y-82028092D01*
X84123011Y-82029722D01*
X84024083Y-82027849D01*
X83933300Y-82022580D01*
X83854641Y-82014026D01*
X83792089Y-82002294D01*
X83780195Y-81999234D01*
X83675200Y-81962995D01*
X83583552Y-81912721D01*
X83502516Y-81846607D01*
X83429356Y-81762847D01*
X83398977Y-81724504D01*
X83357272Y-81680574D01*
X83314885Y-81648757D01*
X83268759Y-81628220D01*
X83215835Y-81618134D01*
X83153056Y-81617667D01*
X83077363Y-81625988D01*
X82985698Y-81642266D01*
X82981590Y-81643075D01*
X82893956Y-81657672D01*
X82809168Y-81667009D01*
X82730564Y-81671021D01*
X82661483Y-81669643D01*
X82605262Y-81662809D01*
X82565240Y-81650456D01*
X82541968Y-81637225D01*
X82527001Y-81620570D01*
X82521367Y-81596821D01*
X82520602Y-81574741D01*
X82525315Y-81557971D01*
X82538589Y-81546586D01*
X82563365Y-81539174D01*
X82602580Y-81534321D01*
X82659175Y-81530617D01*
X82703631Y-81527560D01*
X82803878Y-81515388D01*
X82891920Y-81496942D01*
X82965826Y-81472797D01*
X83023665Y-81443531D01*
X83063505Y-81409722D01*
X83072985Y-81396485D01*
X83085983Y-81364188D01*
X83086845Y-81333757D01*
X83074810Y-81311782D01*
X83070438Y-81307128D01*
X83056652Y-81285864D01*
X83042424Y-81257198D01*
X83037161Y-81245437D01*
X83023159Y-81217158D01*
X83012127Y-81198720D01*
X83008938Y-81193698D01*
X82998253Y-81169986D01*
X82987966Y-81139433D01*
X82986312Y-81133803D01*
X82975391Y-81107399D01*
X82971739Y-81103689D01*
X83127558Y-81103689D01*
X83128665Y-81132514D01*
X83134458Y-81157017D01*
X83147124Y-81184279D01*
X83168851Y-81221382D01*
X83170969Y-81224826D01*
X83206638Y-81271537D01*
X83249176Y-81305189D01*
X83302821Y-81328333D01*
X83371815Y-81343520D01*
X83373946Y-81343847D01*
X83410998Y-81348225D01*
X83443216Y-81348123D01*
X83478652Y-81342940D01*
X83525360Y-81332076D01*
X83534331Y-81329717D01*
X83581890Y-81314712D01*
X83626893Y-81296985D01*
X83660656Y-81279887D01*
X83681175Y-81268443D01*
X83713281Y-81254829D01*
X83737625Y-81249520D01*
X83752326Y-81251162D01*
X83782340Y-81267345D01*
X83802481Y-81297903D01*
X83809840Y-81339224D01*
X83808091Y-81366093D01*
X83799310Y-81385102D01*
X83779080Y-81400605D01*
X83778206Y-81401118D01*
X83755433Y-81410609D01*
X83718034Y-81422423D01*
X83670998Y-81435104D01*
X83619315Y-81447198D01*
X83609928Y-81449250D01*
X83541317Y-81465863D01*
X83484216Y-81482595D01*
X83440772Y-81498666D01*
X83413131Y-81513295D01*
X83403440Y-81525702D01*
X83403452Y-81526034D01*
X83412177Y-81540380D01*
X83435680Y-81564038D01*
X83471862Y-81595193D01*
X83518621Y-81632034D01*
X83573856Y-81672746D01*
X83628684Y-81709662D01*
X83727666Y-81767015D01*
X83829505Y-81815747D01*
X83926680Y-81852038D01*
X83986278Y-81867963D01*
X84059488Y-81880633D01*
X84126169Y-81884739D01*
X84180680Y-81879669D01*
X84195884Y-81876040D01*
X84231184Y-81865711D01*
X84269007Y-81852864D01*
X84303844Y-81839541D01*
X84330185Y-81827787D01*
X84342519Y-81819646D01*
X84342659Y-81819342D01*
X84338281Y-81807446D01*
X84323745Y-81785073D01*
X84302004Y-81756804D01*
X84292376Y-81744835D01*
X84241352Y-81671583D01*
X84198595Y-81590799D01*
X84163261Y-81500009D01*
X84134511Y-81396737D01*
X84111503Y-81278505D01*
X84104769Y-81228052D01*
X84226400Y-81228052D01*
X84226502Y-81234173D01*
X84233914Y-81290034D01*
X84251386Y-81355178D01*
X84276550Y-81423785D01*
X84307038Y-81490035D01*
X84340484Y-81548109D01*
X84374519Y-81592187D01*
X84393586Y-81610965D01*
X84414739Y-81628736D01*
X84427501Y-81635600D01*
X84429747Y-81635372D01*
X84444236Y-81623929D01*
X84455529Y-81600239D01*
X84460080Y-81571298D01*
X84459855Y-81566151D01*
X84454376Y-81534657D01*
X84442978Y-81491956D01*
X84427545Y-81444007D01*
X84409959Y-81396768D01*
X84392104Y-81356200D01*
X84389840Y-81351692D01*
X84373104Y-81321228D01*
X84351302Y-81284660D01*
X84327002Y-81245921D01*
X84302770Y-81208945D01*
X84281174Y-81177664D01*
X84264781Y-81156011D01*
X84256159Y-81147920D01*
X84247697Y-81155118D01*
X84237680Y-81175706D01*
X84229674Y-81202461D01*
X84226400Y-81228052D01*
X84104769Y-81228052D01*
X84093396Y-81142840D01*
X84090373Y-81115652D01*
X84084064Y-81065106D01*
X84077631Y-81029966D01*
X84069623Y-81006855D01*
X84058588Y-80992400D01*
X84057913Y-80992001D01*
X84378327Y-80992001D01*
X84383520Y-81011202D01*
X84398149Y-81043102D01*
X84423059Y-81089854D01*
X84453789Y-81147633D01*
X84510410Y-81271149D01*
X84551125Y-81389562D01*
X84577050Y-81506462D01*
X84583724Y-81571298D01*
X84589297Y-81625440D01*
X84592184Y-81676115D01*
X84596175Y-81715838D01*
X84602252Y-81746421D01*
X84611586Y-81773632D01*
X84625346Y-81803240D01*
X84634647Y-81819342D01*
X84674904Y-81889042D01*
X84754193Y-81992123D01*
X84848633Y-82084618D01*
X84956114Y-82164779D01*
X85074527Y-82230855D01*
X85201760Y-82281098D01*
X85253711Y-82295015D01*
X85332061Y-82308236D01*
X85411248Y-82313846D01*
X85484872Y-82311478D01*
X85546535Y-82300767D01*
X85635008Y-82270111D01*
X85708811Y-82230843D01*
X85765420Y-82183424D01*
X85777235Y-82170500D01*
X85797856Y-82143021D01*
X85804058Y-82119443D01*
X85796355Y-82093228D01*
X85775257Y-82057836D01*
X85768675Y-82049491D01*
X85742537Y-82025759D01*
X85707514Y-82000753D01*
X85670564Y-81979164D01*
X85638640Y-81965686D01*
X85612855Y-81955041D01*
X85586518Y-81929783D01*
X85577680Y-81894349D01*
X85578072Y-81881703D01*
X85582790Y-81860424D01*
X85595283Y-81847548D01*
X85618577Y-81842037D01*
X85655694Y-81842850D01*
X85709659Y-81848946D01*
X85733547Y-81852011D01*
X85775386Y-81856354D01*
X85804978Y-81857101D01*
X85827705Y-81854201D01*
X85848944Y-81847602D01*
X85887560Y-81832934D01*
X85890530Y-81748378D01*
X85891109Y-81726538D01*
X85890267Y-81685716D01*
X85885758Y-81658048D01*
X85876973Y-81638601D01*
X85862938Y-81622696D01*
X85824888Y-81598632D01*
X85772602Y-81580332D01*
X85709760Y-81569321D01*
X85694264Y-81567636D01*
X85625111Y-81556977D01*
X85575077Y-81543188D01*
X85544660Y-81526400D01*
X85533163Y-81507284D01*
X85527272Y-81476967D01*
X85529070Y-81446154D01*
X85539072Y-81424272D01*
X85543242Y-81421674D01*
X85567788Y-81416332D01*
X85612160Y-81413140D01*
X85676551Y-81412080D01*
X85686646Y-81412067D01*
X85742510Y-81411120D01*
X85780369Y-81407925D01*
X85802212Y-81401439D01*
X85810028Y-81390619D01*
X85805805Y-81374423D01*
X85791531Y-81351809D01*
X85788329Y-81347720D01*
X85761072Y-81323999D01*
X85719668Y-81298206D01*
X85668796Y-81272731D01*
X85613134Y-81249960D01*
X85557360Y-81232282D01*
X85542869Y-81228602D01*
X85521542Y-81224049D01*
X85498709Y-81220689D01*
X85471682Y-81218442D01*
X85437777Y-81217230D01*
X85394305Y-81216972D01*
X85338583Y-81217590D01*
X85267922Y-81219005D01*
X85179638Y-81221136D01*
X85164963Y-81221489D01*
X85117447Y-81222130D01*
X85084783Y-81221123D01*
X85062612Y-81217926D01*
X85046576Y-81211996D01*
X85032318Y-81202790D01*
X85011206Y-81180707D01*
X85000557Y-81145535D01*
X85001503Y-81124741D01*
X85016614Y-81095462D01*
X85049506Y-81073222D01*
X85101073Y-81057233D01*
X85131015Y-81052334D01*
X85185723Y-81047824D01*
X85246636Y-81046573D01*
X85307174Y-81048489D01*
X85360757Y-81053478D01*
X85400806Y-81061450D01*
X85417629Y-81066151D01*
X85451361Y-81073502D01*
X85476080Y-81076256D01*
X85476302Y-81076253D01*
X85489032Y-81075059D01*
X85490871Y-81069902D01*
X85480289Y-81057715D01*
X85455760Y-81035427D01*
X85423618Y-81010547D01*
X85381364Y-80982857D01*
X85338920Y-80958993D01*
X85267800Y-80923064D01*
X85264287Y-80946592D01*
X85260229Y-80962825D01*
X85250343Y-80982820D01*
X85235660Y-80992061D01*
X85205501Y-80994800D01*
X85168146Y-80987335D01*
X85129138Y-80970242D01*
X85104234Y-80957373D01*
X85073853Y-80947870D01*
X85042178Y-80947570D01*
X85003682Y-80956628D01*
X84952841Y-80975200D01*
X84917522Y-80988148D01*
X84864295Y-81001700D01*
X84812876Y-81005905D01*
X84780446Y-81007152D01*
X84747711Y-81013345D01*
X84724240Y-81026000D01*
X84719368Y-81029518D01*
X84679411Y-81044809D01*
X84627735Y-81046649D01*
X84567214Y-81035234D01*
X84500721Y-81010760D01*
X84469718Y-80997025D01*
X84435037Y-80983198D01*
X84411544Y-80976977D01*
X84395058Y-80977409D01*
X84381397Y-80983540D01*
X84378327Y-80992001D01*
X84057913Y-80992001D01*
X84043076Y-80983224D01*
X84021634Y-80975952D01*
X84012516Y-80973005D01*
X83977560Y-80958599D01*
X83949540Y-80942881D01*
X83947484Y-80941400D01*
X83930962Y-80925788D01*
X83923405Y-80905907D01*
X83921600Y-80873811D01*
X83921604Y-80871848D01*
X83923839Y-80839813D01*
X83932646Y-80818608D01*
X83951597Y-80799366D01*
X83963425Y-80790918D01*
X83997131Y-80773577D01*
X84034108Y-80760666D01*
X84034588Y-80760543D01*
X84077415Y-80744397D01*
X84102427Y-80723087D01*
X84109652Y-80709458D01*
X84267536Y-80709458D01*
X84275981Y-80737973D01*
X84290536Y-80767642D01*
X84308848Y-80791924D01*
X84336809Y-80813530D01*
X84366882Y-80822112D01*
X84381220Y-80820718D01*
X84408975Y-80813319D01*
X84430872Y-80802303D01*
X84439760Y-80790746D01*
X84438521Y-80787910D01*
X84425390Y-80774432D01*
X84401716Y-80754853D01*
X84372240Y-80732661D01*
X84341706Y-80711344D01*
X84314853Y-80694391D01*
X84296425Y-80685292D01*
X84283060Y-80682473D01*
X84270135Y-80684238D01*
X84267553Y-80688641D01*
X84267536Y-80709458D01*
X84109652Y-80709458D01*
X84111904Y-80705210D01*
X84111300Y-80689122D01*
X84100163Y-80665415D01*
X84082852Y-80642543D01*
X84042992Y-80611733D01*
X83987893Y-80584435D01*
X83920532Y-80562355D01*
X83888587Y-80555591D01*
X83834021Y-80548711D01*
X83775898Y-80545597D01*
X83720085Y-80546309D01*
X83672454Y-80550908D01*
X83638873Y-80559453D01*
X83605066Y-80573938D01*
X83651573Y-80606719D01*
X83667771Y-80618507D01*
X83687457Y-80636515D01*
X83696136Y-80654261D01*
X83698080Y-80678318D01*
X83696661Y-80704343D01*
X83690332Y-80724789D01*
X83676756Y-80736398D01*
X83653612Y-80739423D01*
X83618576Y-80734118D01*
X83569328Y-80720736D01*
X83503545Y-80699530D01*
X83450969Y-80683150D01*
X83397156Y-80668561D01*
X83349813Y-80657812D01*
X83315245Y-80652476D01*
X83304219Y-80651601D01*
X83273499Y-80650268D01*
X83253632Y-80653908D01*
X83237213Y-80665066D01*
X83216835Y-80686286D01*
X83184301Y-80727008D01*
X83162953Y-80764851D01*
X83154363Y-80796340D01*
X83159963Y-80818156D01*
X83176397Y-80833632D01*
X83204405Y-80849850D01*
X83243319Y-80864026D01*
X83295020Y-80876604D01*
X83361393Y-80888028D01*
X83444318Y-80898743D01*
X83545680Y-80909192D01*
X83601492Y-80914747D01*
X83659544Y-80921632D01*
X83700840Y-80928238D01*
X83727404Y-80934907D01*
X83741260Y-80941976D01*
X83753707Y-80960443D01*
X83759371Y-80992858D01*
X83753173Y-81026981D01*
X83735526Y-81054708D01*
X83733200Y-81056732D01*
X83702517Y-81070444D01*
X83654665Y-81076751D01*
X83591210Y-81075668D01*
X83513719Y-81067212D01*
X83423760Y-81051400D01*
X83354923Y-81038454D01*
X83290225Y-81029510D01*
X83238962Y-81026992D01*
X83198037Y-81030772D01*
X83164354Y-81040721D01*
X83146122Y-81049631D01*
X83132054Y-81064662D01*
X83127951Y-81088981D01*
X83127558Y-81103689D01*
X82971739Y-81103689D01*
X82958413Y-81090152D01*
X82928634Y-81074706D01*
X82922929Y-81072254D01*
X82902216Y-81064952D01*
X82879481Y-81060298D01*
X82851707Y-81058325D01*
X82815878Y-81059066D01*
X82768978Y-81062551D01*
X82707991Y-81068813D01*
X82629899Y-81077885D01*
X82625964Y-81078355D01*
X82578297Y-81083671D01*
X82545918Y-81085985D01*
X82524304Y-81085147D01*
X82508932Y-81081007D01*
X82495279Y-81073413D01*
X82475999Y-81052240D01*
X82467439Y-81020130D01*
X82473134Y-80985761D01*
X82493201Y-80955743D01*
X82507018Y-80944362D01*
X82523192Y-80937759D01*
X82546334Y-80936608D01*
X82583000Y-80939740D01*
X82586632Y-80940105D01*
X82658930Y-80938945D01*
X82735692Y-80923905D01*
X82812798Y-80897029D01*
X82886127Y-80860361D01*
X82951561Y-80815942D01*
X83004979Y-80765815D01*
X83042262Y-80712023D01*
X83050410Y-80695478D01*
X83059373Y-80671765D01*
X83059652Y-80653231D01*
X83052272Y-80631649D01*
X83041914Y-80613416D01*
X83022436Y-80595280D01*
X82992325Y-80579939D01*
X82948380Y-80565839D01*
X82887402Y-80551420D01*
X82864904Y-80547163D01*
X82833618Y-80542843D01*
X82796401Y-80539449D01*
X82751455Y-80536945D01*
X82696984Y-80535298D01*
X82631190Y-80534473D01*
X82552275Y-80534436D01*
X82458443Y-80535154D01*
X82347897Y-80536591D01*
X82218837Y-80538715D01*
X82141913Y-80539919D01*
X82074963Y-80540509D01*
X82024082Y-80540262D01*
X81987052Y-80539106D01*
X81961656Y-80536968D01*
X81945677Y-80533775D01*
X81936897Y-80529455D01*
X81935036Y-80527713D01*
X81924414Y-80506248D01*
X81920252Y-80476626D01*
X81922918Y-80447852D01*
X81932780Y-80428931D01*
X81939423Y-80424857D01*
X81967312Y-80414287D01*
X82009394Y-80402754D01*
X82061486Y-80391145D01*
X82119404Y-80380347D01*
X82178964Y-80371244D01*
X82235982Y-80364723D01*
X82252363Y-80363325D01*
X82313257Y-80359748D01*
X82377725Y-80358695D01*
X82448512Y-80360307D01*
X82528360Y-80364725D01*
X82620015Y-80372089D01*
X82726221Y-80382541D01*
X82849720Y-80396221D01*
X82893627Y-80401222D01*
X82969862Y-80409639D01*
X83042881Y-80417391D01*
X83108444Y-80424042D01*
X83162310Y-80429156D01*
X83200240Y-80432297D01*
X83241628Y-80434902D01*
X83274502Y-80435473D01*
X83297684Y-80432824D01*
X83316781Y-80426249D01*
X83337400Y-80415044D01*
X83363176Y-80403487D01*
X83417326Y-80391164D01*
X83486351Y-80385717D01*
X83567658Y-80387172D01*
X83658654Y-80395554D01*
X83756745Y-80410891D01*
X83793007Y-80417547D01*
X83860950Y-80428952D01*
X83913882Y-80435705D01*
X83955078Y-80437887D01*
X83987811Y-80435575D01*
X84015354Y-80428850D01*
X84040980Y-80417792D01*
X84084160Y-80395667D01*
X84083959Y-80266333D01*
X84084658Y-80223837D01*
X84086593Y-80186018D01*
X84219455Y-80186018D01*
X84219814Y-80223384D01*
X84225376Y-80266231D01*
X84228107Y-80281419D01*
X84257644Y-80381564D01*
X84305074Y-80474456D01*
X84368613Y-80557187D01*
X84446479Y-80626849D01*
X84454284Y-80632548D01*
X84491515Y-80658641D01*
X84525713Y-80681060D01*
X84550321Y-80695473D01*
X84584682Y-80712948D01*
X84577885Y-80685864D01*
X84571213Y-80654493D01*
X84561813Y-80596624D01*
X84551875Y-80521387D01*
X84541600Y-80430447D01*
X84531187Y-80325469D01*
X84520833Y-80208120D01*
X84517300Y-80166270D01*
X84507369Y-80055349D01*
X84497806Y-79960759D01*
X84488157Y-79879538D01*
X84477966Y-79808726D01*
X84466777Y-79745361D01*
X84454134Y-79686480D01*
X84439581Y-79629125D01*
X84422662Y-79570332D01*
X84409277Y-79529886D01*
X84386947Y-79479409D01*
X84361990Y-79443332D01*
X84345013Y-79424734D01*
X84331654Y-79413629D01*
X84322494Y-79414586D01*
X84312420Y-79425800D01*
X84302228Y-79441501D01*
X84282791Y-79489991D01*
X84267408Y-79557139D01*
X84256214Y-79642059D01*
X84249341Y-79743863D01*
X84246922Y-79861666D01*
X84246720Y-79896309D01*
X84244223Y-79985723D01*
X84238778Y-80057812D01*
X84230247Y-80114672D01*
X84224608Y-80144484D01*
X84219455Y-80186018D01*
X84086593Y-80186018D01*
X84088744Y-80143992D01*
X84095932Y-80058021D01*
X84105592Y-79974440D01*
X84106131Y-79970424D01*
X84114128Y-79908816D01*
X84119214Y-79863141D01*
X84121530Y-79829465D01*
X84121217Y-79803852D01*
X84118419Y-79782368D01*
X84113275Y-79761080D01*
X84101919Y-79728424D01*
X84087071Y-79707916D01*
X84063702Y-79693293D01*
X84053276Y-79688477D01*
X84035794Y-79682716D01*
X84017192Y-79682024D01*
X83991333Y-79686583D01*
X83952080Y-79696571D01*
X83933484Y-79700966D01*
X83862357Y-79710898D01*
X83781426Y-79714044D01*
X83697786Y-79710611D01*
X83618533Y-79700806D01*
X83550760Y-79684838D01*
X83466531Y-79653838D01*
X83348419Y-79594434D01*
X83235487Y-79517457D01*
X83125529Y-79421540D01*
X83094201Y-79390273D01*
X83035668Y-79326197D01*
X82986526Y-79264567D01*
X82947405Y-79206868D01*
X82918932Y-79154584D01*
X82901736Y-79109198D01*
X82896444Y-79072195D01*
X82903685Y-79045059D01*
X82924086Y-79029275D01*
X82958277Y-79026326D01*
X82963433Y-79026925D01*
X82984238Y-79033404D01*
X83002025Y-79049189D01*
X83022440Y-79078907D01*
X83026797Y-79085901D01*
X83111929Y-79203268D01*
X83210742Y-79306959D01*
X83321556Y-79395623D01*
X83442693Y-79467904D01*
X83572476Y-79522450D01*
X83590457Y-79528458D01*
X83638440Y-79542923D01*
X83679222Y-79551499D01*
X83721577Y-79555689D01*
X83774280Y-79556994D01*
X83798424Y-79556883D01*
X83865955Y-79552492D01*
X83925418Y-79540417D01*
X83984512Y-79518661D01*
X84050937Y-79485226D01*
X84095540Y-79455899D01*
X84130705Y-79419427D01*
X84157620Y-79372281D01*
X84179812Y-79309655D01*
X84190544Y-79264470D01*
X84194949Y-79213152D01*
X84190116Y-79157930D01*
X84175921Y-79091772D01*
X84149728Y-79011335D01*
X84117545Y-78945179D01*
X84291787Y-78945179D01*
X84296216Y-79028655D01*
X84313836Y-79102980D01*
X84347363Y-79184113D01*
X84392854Y-79250948D01*
X84449375Y-79301815D01*
X84460603Y-79310043D01*
X84492887Y-79336732D01*
X84530276Y-79370579D01*
X84566760Y-79406238D01*
X84579994Y-79419357D01*
X84664138Y-79486482D01*
X84758685Y-79536179D01*
X84863284Y-79568256D01*
X84897892Y-79574905D01*
X84957963Y-79581438D01*
X85012360Y-79578817D01*
X85069434Y-79566992D01*
X85137866Y-79541662D01*
X85203222Y-79501339D01*
X85255144Y-79450315D01*
X85290630Y-79390978D01*
X85298614Y-79364209D01*
X85302928Y-79307830D01*
X85296442Y-79240540D01*
X85280112Y-79165642D01*
X85254895Y-79086438D01*
X85221750Y-79006228D01*
X85181633Y-78928316D01*
X85135502Y-78856003D01*
X85113674Y-78827290D01*
X85044707Y-78753919D01*
X84965626Y-78690544D01*
X84880991Y-78640503D01*
X84795360Y-78607131D01*
X84789806Y-78605543D01*
X84754772Y-78593529D01*
X84734988Y-78579873D01*
X84726222Y-78559931D01*
X84724240Y-78529054D01*
X84724240Y-78483157D01*
X84667748Y-78488987D01*
X84607518Y-78500790D01*
X84531196Y-78532894D01*
X84461923Y-78582088D01*
X84401987Y-78646654D01*
X84353673Y-78724876D01*
X84336287Y-78762841D01*
X84305306Y-78855718D01*
X84291787Y-78945179D01*
X84117545Y-78945179D01*
X84099688Y-78908471D01*
X84034492Y-78812454D01*
X83956771Y-78726518D01*
X83869154Y-78653899D01*
X83774272Y-78597829D01*
X83746679Y-78585593D01*
X83680948Y-78561160D01*
X83606284Y-78538094D01*
X83530172Y-78518609D01*
X83460098Y-78504919D01*
X83416763Y-78499838D01*
X83329533Y-78499203D01*
X83246381Y-78510746D01*
X83171894Y-78533651D01*
X83110659Y-78567101D01*
X83095187Y-78579027D01*
X83061703Y-78612435D01*
X83034980Y-78653450D01*
X83012607Y-78706308D01*
X82992172Y-78775244D01*
X82983313Y-78808572D01*
X82968612Y-78857202D01*
X82954974Y-78890143D01*
X82940719Y-78910200D01*
X82924164Y-78920177D01*
X82903626Y-78922879D01*
X82884524Y-78921378D01*
X82855837Y-78908481D01*
X82839647Y-78881051D01*
X82834657Y-78837485D01*
X82839644Y-78769907D01*
X82856823Y-78689365D01*
X82884408Y-78613265D01*
X82920483Y-78546720D01*
X82963130Y-78494841D01*
X82999020Y-78467652D01*
X83050212Y-78438481D01*
X83110508Y-78410538D01*
X83174408Y-78386364D01*
X83236413Y-78368503D01*
X83253020Y-78365169D01*
X83309509Y-78358530D01*
X83378730Y-78355232D01*
X83455372Y-78355116D01*
X83534125Y-78358022D01*
X83609679Y-78363793D01*
X83676725Y-78372267D01*
X83729951Y-78383288D01*
X83759321Y-78391944D01*
X83816887Y-78411390D01*
X83876756Y-78434154D01*
X83933469Y-78458006D01*
X83981568Y-78480713D01*
X84015595Y-78500046D01*
X84032561Y-78515419D01*
X84049363Y-78544766D01*
X84054220Y-78575612D01*
X84045089Y-78600963D01*
X84044025Y-78613000D01*
X84055866Y-78635835D01*
X84081999Y-78670550D01*
X84098265Y-78690713D01*
X84113244Y-78707340D01*
X84126586Y-78715737D01*
X84140890Y-78714817D01*
X84158758Y-78703490D01*
X84182791Y-78680669D01*
X84215589Y-78645267D01*
X84259755Y-78596194D01*
X84300485Y-78551758D01*
X84371719Y-78478562D01*
X84434241Y-78421030D01*
X84489292Y-78378061D01*
X84538112Y-78348550D01*
X84556022Y-78339846D01*
X84583763Y-78328730D01*
X84611441Y-78322397D01*
X84645844Y-78319555D01*
X84693760Y-78318910D01*
X84742298Y-78320368D01*
X84786988Y-78326482D01*
X84827293Y-78339255D01*
X84867832Y-78360684D01*
X84913222Y-78392764D01*
X84968080Y-78437493D01*
X84982491Y-78449792D01*
X85014072Y-78478391D01*
X85033442Y-78499953D01*
X85043626Y-78518266D01*
X85047651Y-78537120D01*
X85047959Y-78539807D01*
X85052580Y-78556818D01*
X85063407Y-78576399D01*
X85082585Y-78601394D01*
X85112256Y-78634647D01*
X85154563Y-78679001D01*
X85163782Y-78688581D01*
X85204285Y-78732387D01*
X85241813Y-78775506D01*
X85272530Y-78813417D01*
X85292597Y-78841600D01*
X85307650Y-78865817D01*
X85336013Y-78910883D01*
X85361967Y-78951543D01*
X85385661Y-78990573D01*
X85411801Y-79044811D01*
X85428427Y-79099872D01*
X85437268Y-79162100D01*
X85440055Y-79237840D01*
X85440043Y-79255876D01*
X85438390Y-79307830D01*
X85437988Y-79320493D01*
X85432330Y-79371120D01*
X85422576Y-79412688D01*
X85420048Y-79420541D01*
X85384738Y-79497656D01*
X85333841Y-79569387D01*
X85271036Y-79632002D01*
X85200001Y-79681775D01*
X85124413Y-79714975D01*
X85118374Y-79716775D01*
X85054990Y-79729509D01*
X84985050Y-79734437D01*
X84913764Y-79731976D01*
X84846346Y-79722545D01*
X84788004Y-79706563D01*
X84743951Y-79684446D01*
X84742478Y-79683410D01*
X84711876Y-79664944D01*
X84678717Y-79648747D01*
X84642175Y-79633478D01*
X84627328Y-79669013D01*
X84625118Y-79674659D01*
X84617277Y-79706075D01*
X84614432Y-79745619D01*
X84616766Y-79795553D01*
X84624464Y-79858139D01*
X84637709Y-79935640D01*
X84656685Y-80030320D01*
X84657594Y-80034898D01*
X84663035Y-80071710D01*
X84668653Y-80123584D01*
X84674055Y-80186059D01*
X84678849Y-80254672D01*
X84682640Y-80324960D01*
X84687819Y-80418872D01*
X84694893Y-80500862D01*
X84704269Y-80566868D01*
X84716636Y-80619114D01*
X84732682Y-80659820D01*
X84753096Y-80691206D01*
X84775897Y-80712948D01*
X84778568Y-80715495D01*
X84809786Y-80734907D01*
%TD*%
M02*
