M48
; DRILL file {KiCad (6.0.9-0)} date Thursday, January 05, 2023 at 04:32:18 PM
; FORMAT={-:-/ absolute / metric / decimal}
; #@! TF.CreationDate,2023-01-05T16:32:18-08:00
; #@! TF.GenerationSoftware,Kicad,Pcbnew,(6.0.9-0)
; #@! TF.FileFunction,Plated,1,2,PTH
FMAT,2
METRIC
; #@! TA.AperFunction,Plated,PTH,ComponentDrill
T1C1.000
%
G90
G05
T1
X102.87Y-65.913
X102.87Y-68.453
X105.41Y-65.913
X105.41Y-68.453
X107.95Y-65.913
X107.95Y-68.453
X110.49Y-65.913
X110.49Y-68.453
X113.03Y-65.913
X113.03Y-68.453
X115.57Y-65.913
X115.57Y-68.453
X118.11Y-65.913
X118.11Y-68.453
X120.65Y-65.913
X120.65Y-68.453
X123.19Y-65.913
X123.19Y-68.453
X125.73Y-65.913
X125.73Y-68.453
X128.27Y-65.913
X128.27Y-68.453
X130.81Y-65.913
X130.81Y-68.453
X133.35Y-65.913
X133.35Y-68.453
X135.89Y-65.913
X135.89Y-68.453
X138.43Y-65.913
X138.43Y-68.453
X140.97Y-65.913
X140.97Y-68.453
X143.51Y-65.913
X143.51Y-68.453
X146.05Y-65.913
X146.05Y-68.453
X148.59Y-65.913
X148.59Y-68.453
X151.13Y-65.913
X151.13Y-68.453
X153.67Y-65.913
X153.67Y-68.453
X156.21Y-65.913
X156.21Y-68.453
X158.75Y-65.913
X158.75Y-68.453
X161.29Y-65.913
X161.29Y-68.453
X163.83Y-65.913
X163.83Y-68.453
X166.37Y-65.913
X166.37Y-68.453
X168.91Y-65.913
X168.91Y-68.453
X171.45Y-65.913
X171.45Y-68.453
X173.99Y-65.913
X173.99Y-68.453
X176.53Y-65.913
X176.53Y-68.453
X179.07Y-65.913
X179.07Y-68.453
X181.61Y-65.913
X181.61Y-68.453
X184.15Y-65.913
X184.15Y-68.453
X186.69Y-65.913
X186.69Y-68.453
X189.23Y-65.913
X189.23Y-68.453
X191.643Y-86.355
X191.643Y-88.895
X191.77Y-65.913
X191.77Y-68.453
X194.31Y-65.913
X194.31Y-68.453
X195.58Y-86.355
X195.58Y-88.895
X196.85Y-65.913
X196.85Y-68.453
X199.39Y-65.913
X199.39Y-68.453
X201.93Y-65.913
X201.93Y-68.453
T0
M30
