%TF.GenerationSoftware,KiCad,Pcbnew,(6.0.9-0)*%
%TF.CreationDate,2023-01-05T16:32:08-08:00*%
%TF.ProjectId,mini-extender-m2,6d696e69-2d65-4787-9465-6e6465722d6d,rev?*%
%TF.SameCoordinates,Original*%
%TF.FileFunction,Copper,L1,Top*%
%TF.FilePolarity,Positive*%
%FSLAX46Y46*%
G04 Gerber Fmt 4.6, Leading zero omitted, Abs format (unit mm)*
G04 Created by KiCad (PCBNEW (6.0.9-0)) date 2023-01-05 16:32:08*
%MOMM*%
%LPD*%
G01*
G04 APERTURE LIST*
%TA.AperFunction,ComponentPad*%
%ADD10R,1.700000X1.700000*%
%TD*%
%TA.AperFunction,ComponentPad*%
%ADD11O,1.700000X1.700000*%
%TD*%
%TA.AperFunction,SMDPad,CuDef*%
%ADD12R,1.778000X9.525000*%
%TD*%
%TA.AperFunction,Conductor*%
%ADD13C,0.250000*%
%TD*%
G04 APERTURE END LIST*
D10*
%TO.P,JP1,1,A*%
%TO.N,/N8*%
X191643000Y-86355000D03*
D11*
%TO.P,JP1,2,B*%
%TO.N,Net-(J0-Pad16)*%
X191643000Y-88895000D03*
%TD*%
D12*
%TO.P,P0,2,USER1*%
%TO.N,Net-(J0-Pad2)*%
X214312500Y-98107500D03*
%TO.P,P0,4,GND*%
%TO.N,Net-(J0-Pad4)*%
X211137500Y-98107500D03*
%TO.P,P0,6,+12V*%
%TO.N,Net-(J0-Pad6)*%
X207962500Y-98107500D03*
%TO.P,P0,8,GND*%
%TO.N,Net-(J0-Pad8)*%
X204787500Y-98107500D03*
%TO.P,P0,10,+5V*%
%TO.N,Net-(J0-Pad10)*%
X201612500Y-98107500D03*
%TO.P,P0,12,~{NMIRQ}*%
%TO.N,Net-(J0-Pad12)*%
X198437500Y-98107500D03*
%TO.P,P0,14,IEOUT*%
%TO.N,Net-(J0-Pad14)*%
X195262500Y-98107500D03*
%TO.P,P0,16,~{BAKOUT}*%
%TO.N,Net-(J0-Pad16)*%
X192087500Y-98107500D03*
%TO.P,P0,18,~{SYNC}*%
%TO.N,Net-(J0-Pad18)*%
X188912500Y-98107500D03*
%TO.P,P0,20,~{WR}*%
%TO.N,Net-(J0-Pad20)*%
X185737500Y-98107500D03*
%TO.P,P0,22,~{IOCYC}*%
%TO.N,Net-(J0-Pad22)*%
X182562500Y-98107500D03*
%TO.P,P0,24,~{A01}*%
%TO.N,Net-(J0-Pad24)*%
X179387500Y-98107500D03*
%TO.P,P0,26,~{A03}*%
%TO.N,Net-(J0-Pad26)*%
X176212500Y-98107500D03*
%TO.P,P0,28,~{A05}*%
%TO.N,Net-(J0-Pad28)*%
X173037500Y-98107500D03*
%TO.P,P0,30,~{A07}*%
%TO.N,Net-(J0-Pad30)*%
X169862500Y-98107500D03*
%TO.P,P0,32,~{A09}*%
%TO.N,Net-(J0-Pad32)*%
X166687500Y-98107500D03*
%TO.P,P0,34,~{A11}*%
%TO.N,Net-(J0-Pad34)*%
X163512500Y-98107500D03*
%TO.P,P0,36,~{A13}*%
%TO.N,Net-(J0-Pad36)*%
X160337500Y-98107500D03*
%TO.P,P0,38,~{A15}*%
%TO.N,Net-(J0-Pad38)*%
X157162500Y-98107500D03*
%TO.P,P0,40,~{DISRO}*%
%TO.N,Net-(J0-Pad40)*%
X153987500Y-98107500D03*
%TO.P,P0,42,~{KBIRQ}*%
%TO.N,Net-(J0-Pad42)*%
X150812500Y-98107500D03*
%TO.P,P0,44,CLOCK*%
%TO.N,Net-(J0-Pad44)*%
X147637500Y-98107500D03*
%TO.P,P0,46,8MHz*%
%TO.N,Net-(J0-Pad46)*%
X144462500Y-98107500D03*
%TO.P,P0,48,~{WAIT}*%
%TO.N,Net-(J0-Pad48)*%
X141287500Y-98107500D03*
%TO.P,P0,50,GND*%
%TO.N,Net-(J0-Pad50)*%
X138112500Y-98107500D03*
%TO.P,P0,52,~{DAT1}*%
%TO.N,Net-(J0-Pad52)*%
X134937500Y-98107500D03*
%TO.P,P0,54,~{DAT3}*%
%TO.N,Net-(J0-Pad54)*%
X131762500Y-98107500D03*
%TO.P,P0,56,~{DAT5}*%
%TO.N,Net-(J0-Pad56)*%
X128587500Y-98107500D03*
%TO.P,P0,58,~{DAT7}*%
%TO.N,Net-(J0-Pad58)*%
X125412500Y-98107500D03*
%TO.P,P0,60,~{DAT9}*%
%TO.N,Net-(J0-Pad60)*%
X122237500Y-98107500D03*
%TO.P,P0,62,~{DAT11}*%
%TO.N,Net-(J0-Pad62)*%
X119062500Y-98107500D03*
%TO.P,P0,64,~{DAT13}*%
%TO.N,Net-(J0-Pad64)*%
X115887500Y-98107500D03*
%TO.P,P0,66,~{DAT15}*%
%TO.N,Net-(J0-Pad66)*%
X112712500Y-98107500D03*
%TO.P,P0,68,~{HALT}*%
%TO.N,Net-(J0-Pad68)*%
X109537500Y-98107500D03*
%TO.P,P0,70,GND*%
%TO.N,Net-(J0-Pad70)*%
X106362500Y-98107500D03*
%TO.P,P0,72,+5V*%
%TO.N,Net-(J0-Pad72)*%
X103187500Y-98107500D03*
%TO.P,P0,74,GND*%
%TO.N,Net-(J0-Pad74)*%
X100012500Y-98107500D03*
%TO.P,P0,76,-12V*%
%TO.N,Net-(J0-Pad76)*%
X96837500Y-98107500D03*
%TO.P,P0,78,+12V*%
%TO.N,Net-(J0-Pad78)*%
X93662500Y-98107500D03*
%TO.P,P0,80,GND*%
%TO.N,Net-(J0-Pad80)*%
X90487500Y-98107500D03*
%TD*%
D10*
%TO.P,J1,1,Pin_1*%
%TO.N,/N1*%
X201930000Y-65913000D03*
D11*
%TO.P,J1,2,Pin_2*%
%TO.N,Net-(J0-Pad2)*%
X201930000Y-68453000D03*
%TO.P,J1,3,Pin_3*%
%TO.N,/N2*%
X199390000Y-65913000D03*
%TO.P,J1,4,Pin_4*%
%TO.N,Net-(J0-Pad4)*%
X199390000Y-68453000D03*
%TO.P,J1,5,Pin_5*%
%TO.N,/N3*%
X196850000Y-65913000D03*
%TO.P,J1,6,Pin_6*%
%TO.N,Net-(J0-Pad6)*%
X196850000Y-68453000D03*
%TO.P,J1,7,Pin_7*%
%TO.N,/N4*%
X194310000Y-65913000D03*
%TO.P,J1,8,Pin_8*%
%TO.N,Net-(J0-Pad8)*%
X194310000Y-68453000D03*
%TO.P,J1,9,Pin_9*%
%TO.N,/N5*%
X191770000Y-65913000D03*
%TO.P,J1,10,Pin_10*%
%TO.N,Net-(J0-Pad10)*%
X191770000Y-68453000D03*
%TO.P,J1,11,Pin_11*%
%TO.N,/N6*%
X189230000Y-65913000D03*
%TO.P,J1,12,Pin_12*%
%TO.N,Net-(J0-Pad12)*%
X189230000Y-68453000D03*
%TO.P,J1,13,Pin_13*%
%TO.N,/N7*%
X186690000Y-65913000D03*
%TO.P,J1,14,Pin_14*%
%TO.N,Net-(J0-Pad14)*%
X186690000Y-68453000D03*
%TO.P,J1,15,Pin_15*%
%TO.N,/N8*%
X184150000Y-65913000D03*
%TO.P,J1,16,Pin_16*%
%TO.N,Net-(J0-Pad16)*%
X184150000Y-68453000D03*
%TO.P,J1,17,Pin_17*%
%TO.N,/N9*%
X181610000Y-65913000D03*
%TO.P,J1,18,Pin_18*%
%TO.N,Net-(J0-Pad18)*%
X181610000Y-68453000D03*
%TO.P,J1,19,Pin_19*%
%TO.N,/N10*%
X179070000Y-65913000D03*
%TO.P,J1,20,Pin_20*%
%TO.N,Net-(J0-Pad20)*%
X179070000Y-68453000D03*
%TO.P,J1,21,Pin_21*%
%TO.N,/N11*%
X176530000Y-65913000D03*
%TO.P,J1,22,Pin_22*%
%TO.N,Net-(J0-Pad22)*%
X176530000Y-68453000D03*
%TO.P,J1,23,Pin_23*%
%TO.N,/N12*%
X173990000Y-65913000D03*
%TO.P,J1,24,Pin_24*%
%TO.N,Net-(J0-Pad24)*%
X173990000Y-68453000D03*
%TO.P,J1,25,Pin_25*%
%TO.N,/N13*%
X171450000Y-65913000D03*
%TO.P,J1,26,Pin_26*%
%TO.N,Net-(J0-Pad26)*%
X171450000Y-68453000D03*
%TO.P,J1,27,Pin_27*%
%TO.N,/N14*%
X168910000Y-65913000D03*
%TO.P,J1,28,Pin_28*%
%TO.N,Net-(J0-Pad28)*%
X168910000Y-68453000D03*
%TO.P,J1,29,Pin_29*%
%TO.N,/N15*%
X166370000Y-65913000D03*
%TO.P,J1,30,Pin_30*%
%TO.N,Net-(J0-Pad30)*%
X166370000Y-68453000D03*
%TO.P,J1,31,Pin_31*%
%TO.N,/N16*%
X163830000Y-65913000D03*
%TO.P,J1,32,Pin_32*%
%TO.N,Net-(J0-Pad32)*%
X163830000Y-68453000D03*
%TO.P,J1,33,Pin_33*%
%TO.N,/N17*%
X161290000Y-65913000D03*
%TO.P,J1,34,Pin_34*%
%TO.N,Net-(J0-Pad34)*%
X161290000Y-68453000D03*
%TO.P,J1,35,Pin_35*%
%TO.N,/N18*%
X158750000Y-65913000D03*
%TO.P,J1,36,Pin_36*%
%TO.N,Net-(J0-Pad36)*%
X158750000Y-68453000D03*
%TO.P,J1,37,Pin_37*%
%TO.N,/N19*%
X156210000Y-65913000D03*
%TO.P,J1,38,Pin_38*%
%TO.N,Net-(J0-Pad38)*%
X156210000Y-68453000D03*
%TO.P,J1,39,Pin_39*%
%TO.N,/N20*%
X153670000Y-65913000D03*
%TO.P,J1,40,Pin_40*%
%TO.N,Net-(J0-Pad40)*%
X153670000Y-68453000D03*
%TO.P,J1,41,Pin_41*%
%TO.N,/N21*%
X151130000Y-65913000D03*
%TO.P,J1,42,Pin_42*%
%TO.N,Net-(J0-Pad42)*%
X151130000Y-68453000D03*
%TO.P,J1,43,Pin_43*%
%TO.N,/N22*%
X148590000Y-65913000D03*
%TO.P,J1,44,Pin_44*%
%TO.N,Net-(J0-Pad44)*%
X148590000Y-68453000D03*
%TO.P,J1,45,Pin_45*%
%TO.N,/N23*%
X146050000Y-65913000D03*
%TO.P,J1,46,Pin_46*%
%TO.N,Net-(J0-Pad46)*%
X146050000Y-68453000D03*
%TO.P,J1,47,Pin_47*%
%TO.N,/N24*%
X143510000Y-65913000D03*
%TO.P,J1,48,Pin_48*%
%TO.N,Net-(J0-Pad48)*%
X143510000Y-68453000D03*
%TO.P,J1,49,Pin_49*%
%TO.N,/N25*%
X140970000Y-65913000D03*
%TO.P,J1,50,Pin_50*%
%TO.N,Net-(J0-Pad50)*%
X140970000Y-68453000D03*
%TO.P,J1,51,Pin_51*%
%TO.N,/N26*%
X138430000Y-65913000D03*
%TO.P,J1,52,Pin_52*%
%TO.N,Net-(J0-Pad52)*%
X138430000Y-68453000D03*
%TO.P,J1,53,Pin_53*%
%TO.N,/N27*%
X135890000Y-65913000D03*
%TO.P,J1,54,Pin_54*%
%TO.N,Net-(J0-Pad54)*%
X135890000Y-68453000D03*
%TO.P,J1,55,Pin_55*%
%TO.N,/N28*%
X133350000Y-65913000D03*
%TO.P,J1,56,Pin_56*%
%TO.N,Net-(J0-Pad56)*%
X133350000Y-68453000D03*
%TO.P,J1,57,Pin_57*%
%TO.N,/N29*%
X130810000Y-65913000D03*
%TO.P,J1,58,Pin_58*%
%TO.N,Net-(J0-Pad58)*%
X130810000Y-68453000D03*
%TO.P,J1,59,Pin_59*%
%TO.N,/N30*%
X128270000Y-65913000D03*
%TO.P,J1,60,Pin_60*%
%TO.N,Net-(J0-Pad60)*%
X128270000Y-68453000D03*
%TO.P,J1,61,Pin_61*%
%TO.N,/N31*%
X125730000Y-65913000D03*
%TO.P,J1,62,Pin_62*%
%TO.N,Net-(J0-Pad62)*%
X125730000Y-68453000D03*
%TO.P,J1,63,Pin_63*%
%TO.N,/N32*%
X123190000Y-65913000D03*
%TO.P,J1,64,Pin_64*%
%TO.N,Net-(J0-Pad64)*%
X123190000Y-68453000D03*
%TO.P,J1,65,Pin_65*%
%TO.N,/N33*%
X120650000Y-65913000D03*
%TO.P,J1,66,Pin_66*%
%TO.N,Net-(J0-Pad66)*%
X120650000Y-68453000D03*
%TO.P,J1,67,Pin_67*%
%TO.N,/N34*%
X118110000Y-65913000D03*
%TO.P,J1,68,Pin_68*%
%TO.N,Net-(J0-Pad68)*%
X118110000Y-68453000D03*
%TO.P,J1,69,Pin_69*%
%TO.N,/N35*%
X115570000Y-65913000D03*
%TO.P,J1,70,Pin_70*%
%TO.N,Net-(J0-Pad70)*%
X115570000Y-68453000D03*
%TO.P,J1,71,Pin_71*%
%TO.N,/N36*%
X113030000Y-65913000D03*
%TO.P,J1,72,Pin_72*%
%TO.N,Net-(J0-Pad72)*%
X113030000Y-68453000D03*
%TO.P,J1,73,Pin_73*%
%TO.N,/N37*%
X110490000Y-65913000D03*
%TO.P,J1,74,Pin_74*%
%TO.N,Net-(J0-Pad74)*%
X110490000Y-68453000D03*
%TO.P,J1,75,Pin_75*%
%TO.N,/N38*%
X107950000Y-65913000D03*
%TO.P,J1,76,Pin_76*%
%TO.N,Net-(J0-Pad76)*%
X107950000Y-68453000D03*
%TO.P,J1,77,Pin_77*%
%TO.N,/N39*%
X105410000Y-65913000D03*
%TO.P,J1,78,Pin_78*%
%TO.N,Net-(J0-Pad78)*%
X105410000Y-68453000D03*
%TO.P,J1,79,Pin_79*%
%TO.N,/N40*%
X102870000Y-65913000D03*
%TO.P,J1,80,Pin_80*%
%TO.N,Net-(J0-Pad80)*%
X102870000Y-68453000D03*
%TD*%
D10*
%TO.P,JP2,1,A*%
%TO.N,/N7*%
X195580000Y-86355000D03*
D11*
%TO.P,JP2,2,B*%
%TO.N,Net-(J0-Pad14)*%
X195580000Y-88895000D03*
%TD*%
D13*
%TO.N,Net-(J0-Pad44)*%
X147637500Y-70580800D02*
X148590000Y-69628300D01*
X147637500Y-98107500D02*
X147637500Y-70580800D01*
X148590000Y-68453000D02*
X148590000Y-69628300D01*
%TO.N,Net-(J0-Pad72)*%
X103187500Y-79470800D02*
X113030000Y-69628300D01*
X113030000Y-68453000D02*
X113030000Y-69628300D01*
X103187500Y-98107500D02*
X103187500Y-79470800D01*
%TO.N,Net-(J0-Pad68)*%
X118110000Y-68453000D02*
X118110000Y-69628300D01*
X109537500Y-78200800D02*
X118110000Y-69628300D01*
X109537500Y-98107500D02*
X109537500Y-78200800D01*
%TO.N,Net-(J0-Pad76)*%
X107950000Y-68453000D02*
X107950000Y-69628300D01*
X96837500Y-80740800D02*
X107950000Y-69628300D01*
X96837500Y-98107500D02*
X96837500Y-80740800D01*
%TO.N,Net-(J0-Pad62)*%
X125730000Y-68453000D02*
X125730000Y-69628300D01*
X119062500Y-98107500D02*
X119062500Y-76295800D01*
X119062500Y-76295800D02*
X125730000Y-69628300D01*
%TO.N,Net-(J0-Pad52)*%
X134937500Y-73120800D02*
X138430000Y-69628300D01*
X138430000Y-68453000D02*
X138430000Y-69628300D01*
X134937500Y-98107500D02*
X134937500Y-73120800D01*
%TO.N,Net-(J0-Pad56)*%
X133350000Y-68453000D02*
X133350000Y-69628300D01*
X128587500Y-98107500D02*
X128587500Y-74390800D01*
X128587500Y-74390800D02*
X133350000Y-69628300D01*
%TO.N,Net-(J0-Pad60)*%
X122237500Y-98107500D02*
X122237500Y-75660800D01*
X122237500Y-75660800D02*
X128270000Y-69628300D01*
X128270000Y-68453000D02*
X128270000Y-69628300D01*
%TO.N,Net-(J0-Pad48)*%
X143510000Y-68453000D02*
X143510000Y-69628300D01*
X141287500Y-98107500D02*
X141287500Y-71850800D01*
X141287500Y-71850800D02*
X143510000Y-69628300D01*
%TO.N,Net-(J0-Pad54)*%
X131762500Y-73755800D02*
X135890000Y-69628300D01*
X135890000Y-68453000D02*
X135890000Y-69628300D01*
X131762500Y-98107500D02*
X131762500Y-73755800D01*
%TO.N,Net-(J0-Pad42)*%
X150812500Y-98107500D02*
X150812500Y-93019700D01*
X150812500Y-93019700D02*
X151130000Y-92702200D01*
X151130000Y-92702200D02*
X151130000Y-68453000D01*
%TO.N,Net-(J0-Pad66)*%
X112712500Y-77565800D02*
X120650000Y-69628300D01*
X120650000Y-68453000D02*
X120650000Y-69628300D01*
X112712500Y-98107500D02*
X112712500Y-77565800D01*
%TO.N,Net-(J0-Pad78)*%
X93662500Y-81375800D02*
X105410000Y-69628300D01*
X93662500Y-98107500D02*
X93662500Y-81375800D01*
X105410000Y-68453000D02*
X105410000Y-69628300D01*
%TO.N,Net-(J0-Pad46)*%
X146050000Y-68453000D02*
X146050000Y-69628300D01*
X144462500Y-71215800D02*
X146050000Y-69628300D01*
X144462500Y-98107500D02*
X144462500Y-71215800D01*
%TO.N,Net-(J0-Pad58)*%
X125412500Y-98107500D02*
X125412500Y-75025800D01*
X125412500Y-75025800D02*
X130810000Y-69628300D01*
X130810000Y-68453000D02*
X130810000Y-69628300D01*
%TO.N,Net-(J0-Pad64)*%
X123190000Y-68453000D02*
X123190000Y-69628300D01*
X115887500Y-98107500D02*
X115887500Y-76930800D01*
X115887500Y-76930800D02*
X123190000Y-69628300D01*
%TO.N,Net-(J0-Pad2)*%
X214312500Y-82010800D02*
X201930000Y-69628300D01*
X201930000Y-68453000D02*
X201930000Y-69628300D01*
X214312500Y-98107500D02*
X214312500Y-82010800D01*
%TO.N,Net-(J0-Pad6)*%
X207962500Y-98107500D02*
X207962500Y-80740800D01*
X207962500Y-80740800D02*
X196850000Y-69628300D01*
X196850000Y-68453000D02*
X196850000Y-69628300D01*
%TO.N,Net-(J0-Pad10)*%
X191770000Y-69628300D02*
X201612500Y-79470800D01*
X191770000Y-68453000D02*
X191770000Y-69628300D01*
X201612500Y-79470800D02*
X201612500Y-98107500D01*
%TO.N,Net-(J0-Pad12)*%
X198437500Y-98107500D02*
X198437500Y-78835800D01*
X189230000Y-68453000D02*
X189230000Y-69628300D01*
X198437500Y-78835800D02*
X189230000Y-69628300D01*
%TO.N,Net-(J0-Pad14)*%
X195580000Y-88895000D02*
X195580000Y-90070300D01*
X195262500Y-90387800D02*
X195580000Y-90070300D01*
X195262500Y-98107500D02*
X195262500Y-90387800D01*
%TO.N,Net-(J0-Pad16)*%
X191643000Y-88895000D02*
X191643000Y-90070300D01*
X192087500Y-98107500D02*
X192087500Y-90514800D01*
X192087500Y-90514800D02*
X191643000Y-90070300D01*
%TO.N,Net-(J0-Pad18)*%
X188912500Y-98107500D02*
X188912500Y-76930800D01*
X188912500Y-76930800D02*
X181610000Y-69628300D01*
X181610000Y-68453000D02*
X181610000Y-69628300D01*
%TO.N,Net-(J0-Pad20)*%
X185737500Y-76295800D02*
X179070000Y-69628300D01*
X185737500Y-98107500D02*
X185737500Y-76295800D01*
X179070000Y-68453000D02*
X179070000Y-69628300D01*
%TO.N,Net-(J0-Pad22)*%
X182562500Y-75660800D02*
X182562500Y-98107500D01*
X176530000Y-69628300D02*
X182562500Y-75660800D01*
X176530000Y-68453000D02*
X176530000Y-69628300D01*
%TO.N,Net-(J0-Pad24)*%
X179387500Y-75025800D02*
X173990000Y-69628300D01*
X179387500Y-98107500D02*
X179387500Y-75025800D01*
X173990000Y-68453000D02*
X173990000Y-69628300D01*
%TO.N,Net-(J0-Pad26)*%
X171450000Y-68453000D02*
X171450000Y-69628300D01*
X176212500Y-74390800D02*
X171450000Y-69628300D01*
X176212500Y-98107500D02*
X176212500Y-74390800D01*
%TO.N,Net-(J0-Pad28)*%
X173037500Y-73755800D02*
X168910000Y-69628300D01*
X173037500Y-98107500D02*
X173037500Y-73755800D01*
X168910000Y-68453000D02*
X168910000Y-69628300D01*
%TO.N,Net-(J0-Pad30)*%
X169862500Y-73120800D02*
X166370000Y-69628300D01*
X169862500Y-98107500D02*
X169862500Y-73120800D01*
X166370000Y-68453000D02*
X166370000Y-69628300D01*
%TO.N,Net-(J0-Pad32)*%
X166687500Y-98107500D02*
X166687500Y-72485800D01*
X166687500Y-72485800D02*
X163830000Y-69628300D01*
X163830000Y-68453000D02*
X163830000Y-69628300D01*
%TO.N,Net-(J0-Pad34)*%
X163512500Y-98107500D02*
X163512500Y-71850800D01*
X163512500Y-71850800D02*
X161290000Y-69628300D01*
X161290000Y-68453000D02*
X161290000Y-69628300D01*
%TO.N,Net-(J0-Pad36)*%
X160337500Y-71215800D02*
X158750000Y-69628300D01*
X160337500Y-98107500D02*
X160337500Y-71215800D01*
X158750000Y-68453000D02*
X158750000Y-69628300D01*
%TO.N,Net-(J0-Pad38)*%
X156210000Y-68453000D02*
X156210000Y-69628300D01*
X157162500Y-70580800D02*
X156210000Y-69628300D01*
X157162500Y-98107500D02*
X157162500Y-70580800D01*
%TO.N,Net-(J0-Pad40)*%
X153987500Y-93019700D02*
X153670000Y-92702200D01*
X153987500Y-98107500D02*
X153987500Y-93019700D01*
X153670000Y-92702200D02*
X153670000Y-68453000D01*
%TO.N,Net-(J0-Pad8)*%
X204787500Y-80105800D02*
X194310000Y-69628300D01*
X194310000Y-68453000D02*
X194310000Y-69628300D01*
X204787500Y-98107500D02*
X204787500Y-80105800D01*
%TO.N,Net-(J0-Pad4)*%
X199390000Y-68453000D02*
X199390000Y-69628300D01*
X199390000Y-69628300D02*
X211137500Y-81375800D01*
X211137500Y-81375800D02*
X211137500Y-98107500D01*
%TO.N,Net-(J0-Pad74)*%
X100012500Y-98107500D02*
X100012500Y-80105800D01*
X110490000Y-68453000D02*
X110490000Y-69628300D01*
X100012500Y-80105800D02*
X110490000Y-69628300D01*
%TO.N,Net-(J0-Pad70)*%
X106362500Y-78835800D02*
X115570000Y-69628300D01*
X115570000Y-68453000D02*
X115570000Y-69628300D01*
X106362500Y-98107500D02*
X106362500Y-78835800D01*
%TO.N,Net-(J0-Pad80)*%
X102870000Y-68453000D02*
X102870000Y-69628300D01*
X90487500Y-98107500D02*
X90487500Y-82010800D01*
X90487500Y-82010800D02*
X102870000Y-69628300D01*
%TO.N,Net-(J0-Pad50)*%
X138112500Y-72485800D02*
X140970000Y-69628300D01*
X138112500Y-98107500D02*
X138112500Y-72485800D01*
X140970000Y-68453000D02*
X140970000Y-69628300D01*
%TD*%
M02*
